{"glyphs":{"0":{"ha":798,"x_min":140,"x_max":870,"o":"m 163 513 q 333 879 214 747 q 615 1010 452 1010 q 805 931 740 1010 q 870 704 870 852 q 842 488 870 618 q 749 237 814 357 q 592 49 684 117 q 393 -19 499 -19 l 392 -19 q 205 70 269 -19 q 140 313 140 158 q 163 513 140 406 m 580 846 q 435 771 486 846 q 349 533 384 696 q 315 294 315 370 q 341 182 315 218 q 421 145 368 145 q 511 169 474 145 q 576 241 548 192 q 661 490 627 330 q 695 718 695 650 q 668 816 695 785 q 580 846 641 846 z "},"1":{"ha":798,"x_min":329,"x_max":732,"o":"m 511 803 l 514 818 l 329 818 l 552 987 l 732 987 l 522 0 l 340 0 l 511 803 z "},"2":{"ha":798,"x_min":62,"x_max":852,"o":"m 398 730 l 247 778 q 392 944 288 876 q 600 1012 496 1012 q 798 944 728 1012 q 852 792 852 890 q 839 689 852 754 q 789 568 825 624 q 693 463 753 511 q 546 358 633 414 q 396 254 459 302 q 307 163 332 206 l 754 163 l 720 0 l 62 0 q 133 197 87 117 q 441 473 212 336 q 635 635 585 559 q 669 743 669 687 q 564 849 669 849 q 398 730 458 849 z "},"3":{"ha":798,"x_min":110,"x_max":852,"o":"m 852 810 q 706 556 852 647 q 759 508 738 531 q 798 445 780 485 q 815 363 815 404 q 663 73 815 191 q 401 -19 547 -19 q 145 110 218 -19 q 110 219 119 157 l 295 267 q 346 174 307 203 q 446 145 386 145 q 558 187 505 145 q 625 291 612 229 q 629 319 629 307 q 591 407 629 372 q 499 441 553 441 l 387 441 l 418 586 l 515 586 q 611 626 566 586 q 671 751 671 679 q 642 824 671 799 q 570 850 613 850 q 491 827 526 850 q 437 774 456 805 l 277 819 q 600 1010 391 1010 q 817 925 751 1010 q 852 810 852 879 z "},"4":{"ha":798,"x_min":111,"x_max":850,"o":"m 724 397 l 818 397 l 784 236 l 690 236 l 640 0 l 458 0 l 508 236 l 111 236 l 140 374 l 654 987 l 850 987 l 724 397 m 623 749 l 321 399 l 548 399 l 623 749 z "},"5":{"ha":798,"x_min":117,"x_max":871,"o":"m 642 354 q 607 450 642 412 q 503 488 572 488 q 387 448 435 488 l 226 509 l 408 987 l 871 987 l 837 825 l 519 825 l 439 628 q 543 643 469 643 q 747 574 669 643 q 825 389 825 505 q 734 139 825 251 q 585 23 672 63 q 419 -18 498 -18 q 290 0 340 -18 q 209 46 240 18 q 156 111 178 75 q 117 248 117 176 l 303 279 q 331 198 302 243 q 373 161 345 176 q 437 146 401 146 q 567 194 511 146 q 642 354 642 258 z "},"6":{"ha":798,"x_min":130,"x_max":794,"o":"m 541 187 q 607 328 607 248 q 576 414 607 380 q 487 448 545 448 q 380 401 429 448 q 314 257 314 338 q 346 173 314 205 q 434 141 377 141 q 541 187 491 141 m 493 608 q 530 612 498 612 q 724 545 653 612 q 794 368 794 478 q 650 79 794 202 q 531 8 599 35 q 392 -19 463 -19 q 201 53 272 -19 q 130 231 130 125 q 165 384 130 308 q 220 490 200 460 q 276 569 240 521 q 319 627 313 618 l 581 987 l 775 987 l 493 608 z "},"7":{"ha":798,"x_min":66,"x_max":995,"o":"m 995 987 l 286 0 l 66 0 l 650 815 l 241 815 l 277 987 l 995 987 z "},"8":{"ha":798,"x_min":100,"x_max":880,"o":"m 286 256 q 324 165 286 199 q 433 131 362 131 q 562 176 505 131 q 635 294 619 222 q 638 327 638 308 q 598 422 638 385 q 487 458 557 458 q 361 413 416 458 q 290 294 306 367 q 286 256 286 273 m 476 828 q 420 711 420 783 q 533 626 420 626 q 636 655 593 626 q 691 743 678 684 q 694 772 694 756 q 666 837 694 813 q 577 861 638 861 q 476 828 516 861 m 243 743 q 370 937 269 863 q 603 1010 471 1010 q 807 951 735 1010 q 880 798 880 893 q 853 681 880 727 q 799 612 826 635 q 730 559 755 573 q 703 544 705 545 q 786 475 749 531 q 823 348 823 420 q 817 294 823 321 q 731 121 795 193 q 393 -19 606 -19 q 177 46 254 -19 q 100 220 100 111 q 198 455 100 352 q 328 544 269 530 q 238 699 238 600 q 243 743 238 721 z "},"9":{"ha":798,"x_min":212,"x_max":877,"o":"m 465 800 q 399 660 399 740 q 430 574 399 608 q 519 540 461 540 q 626 586 577 540 q 692 730 692 649 q 660 814 692 782 q 572 846 629 846 q 465 800 515 846 m 513 379 q 476 376 509 376 q 283 443 353 376 q 212 620 212 509 q 355 909 212 786 q 475 979 407 952 q 614 1006 543 1006 q 805 934 734 1006 q 877 757 877 862 q 842 604 877 680 q 786 497 806 528 q 730 418 766 467 q 687 361 694 370 l 425 0 l 231 0 l 513 379 z "},"":{"ha":956,"x_min":159,"x_max":1025,"o":"m 832 635 q 665 847 832 847 q 437 696 524 847 q 352 370 352 546 q 375 233 352 277 q 515 144 421 144 q 747 310 656 144 q 832 629 828 462 l 832 635 m 159 367 q 219 647 161 503 q 396 897 279 793 q 533 979 454 947 q 700 1010 611 1010 q 853 979 789 1010 q 1008 781 972 921 q 1025 654 1025 715 l 1025 647 q 966 368 1024 513 q 785 100 903 211 q 648 14 728 47 q 481 -20 569 -20 q 327 14 393 -20 q 175 224 210 74 q 159 358 159 292 l 159 367 m 609 421 l 600 378 l 511 378 l 525 442 q 550 489 530 471 q 602 530 581 516 q 671 608 663 568 q 646 656 679 644 q 612 661 633 661 q 569 644 591 661 q 540 600 548 627 l 454 614 q 520 707 472 671 q 632 743 568 743 q 749 694 711 743 q 767 647 767 673 q 696 503 767 560 q 671 486 685 494 q 622 446 632 460 q 609 421 612 432 m 568 250 q 558 242 568 250 q 526 234 548 234 q 492 248 503 234 q 481 283 481 261 q 504 324 481 305 q 549 343 526 343 q 582 329 571 343 q 593 305 593 314 q 590 281 593 296 q 568 250 587 267 z "}," ":{"ha":418,"x_min":0,"x_max":0,"o":""},"!":{"ha":310,"x_min":63,"x_max":454,"o":"m 63 66 q 109 162 63 125 q 198 200 155 200 q 266 175 241 200 q 291 113 291 151 q 245 15 291 53 q 157 -22 199 -22 q 89 3 114 -22 q 63 66 63 28 m 153 295 l 262 942 q 304 986 268 967 q 369 1006 341 1006 q 426 988 397 1006 q 454 949 454 971 q 453 943 454 945 l 289 298 q 258 271 286 283 q 213 258 231 258 q 174 270 195 258 q 153 295 153 281 z "},"\"":{"ha":593,"x_min":258,"x_max":711,"o":"m 259 741 l 299 994 q 334 1031 304 1017 q 387 1046 363 1046 l 389 1046 q 434 1036 410 1046 q 457 1008 457 1025 q 456 994 457 1006 l 388 741 q 358 717 384 726 q 316 708 333 708 q 279 715 300 708 q 258 734 258 722 q 259 741 258 739 m 513 741 l 553 994 q 588 1031 558 1017 q 641 1046 618 1046 l 644 1046 q 688 1035 664 1046 q 711 1008 711 1025 q 710 994 711 1006 l 642 741 q 612 717 638 726 q 570 708 587 708 q 533 715 553 708 q 512 734 512 722 q 513 737 513 735 l 513 741 z "},"#":{"ha":1061,"x_min":132,"x_max":1132,"o":"m 680 404 l 715 567 l 589 567 l 555 404 l 680 404 m 818 241 l 773 32 l 601 32 l 646 241 l 520 241 l 475 32 l 303 32 l 348 241 l 132 241 l 167 404 l 382 404 l 417 567 l 201 567 l 235 728 l 451 728 l 498 951 l 671 951 l 623 728 l 749 728 l 796 951 l 968 951 l 921 728 l 1132 728 l 1098 567 l 887 567 l 852 404 l 1063 404 l 1029 241 l 818 241 z "},"$":{"ha":629,"x_min":63,"x_max":825,"o":"m 515 1042 l 630 1042 l 610 952 q 825 783 774 939 l 634 728 q 610 769 620 758 q 575 786 601 779 l 527 558 q 705 456 657 510 q 752 326 752 403 q 745 261 752 297 q 630 72 721 149 q 404 -18 538 -5 l 386 -105 l 272 -105 l 290 -18 q 83 151 144 -6 q 63 233 68 191 l 242 289 q 273 195 261 214 q 327 153 298 157 l 387 433 q 174 648 174 484 q 294 880 174 792 q 496 953 387 947 l 515 1042 m 422 600 l 463 791 q 397 760 421 787 q 363 684 363 722 q 377 630 363 647 q 422 600 391 613 m 492 392 l 439 147 q 558 262 538 168 q 562 291 562 281 q 492 392 562 360 z "},"%":{"ha":973,"x_min":203,"x_max":970,"o":"m 811 260 q 811 277 811 260 q 799 309 811 294 q 764 325 786 325 q 715 299 741 325 q 689 241 689 273 q 736 183 689 183 q 782 201 762 183 q 811 260 811 227 m 545 251 q 637 402 564 340 q 789 464 710 464 q 915 417 869 464 q 961 297 961 370 q 865 104 961 184 q 712 43 791 43 q 586 89 632 43 q 540 206 540 135 q 545 251 540 226 m 484 738 q 484 754 484 738 q 472 787 484 771 q 437 803 460 803 q 389 777 415 803 q 362 719 362 750 q 410 661 362 661 q 456 679 435 661 q 484 738 484 704 m 214 684 q 311 880 214 798 q 464 942 384 942 q 590 895 543 942 q 636 774 636 847 q 631 729 636 754 q 539 582 612 642 q 386 521 466 521 q 260 567 306 521 q 214 684 214 613 m 346 81 l 203 81 l 834 907 l 970 907 l 346 81 z "},"&":{"ha":871,"x_min":90,"x_max":886,"o":"m 650 791 q 617 843 642 820 q 549 867 591 867 q 467 838 506 867 q 412 729 412 800 q 440 664 412 687 q 514 642 469 642 l 629 642 l 595 479 l 482 479 q 353 425 410 479 q 279 290 296 371 q 275 253 275 271 q 309 163 275 198 q 409 127 342 127 q 520 161 476 127 q 575 243 565 195 l 457 243 l 488 390 l 886 390 l 855 244 l 748 244 q 669 98 732 170 q 366 -36 549 -36 q 169 32 247 -36 q 90 205 90 99 q 96 265 90 235 q 321 562 144 488 q 257 616 287 577 q 228 713 228 656 q 233 758 228 733 q 360 956 259 880 q 587 1031 462 1031 q 738 985 682 1031 q 809 864 793 939 l 650 791 z "},"'":{"ha":315,"x_min":258,"x_max":457,"o":"m 259 741 l 299 994 q 334 1031 304 1017 q 387 1046 363 1046 l 389 1046 q 434 1036 410 1046 q 457 1008 457 1025 q 456 994 457 1006 l 388 741 q 358 717 384 726 q 316 708 333 708 q 279 715 300 708 q 258 734 258 722 q 259 741 258 739 z "},"(":{"ha":443,"x_min":100,"x_max":600,"o":"m 184 -57 q 100 268 100 88 q 127 501 100 371 q 421 1060 199 835 l 600 1060 q 301 494 366 800 q 282 313 282 403 q 363 -57 282 115 l 184 -57 z "},")":{"ha":436,"x_min":41,"x_max":537,"o":"m 217 -65 l 41 -65 q 231 209 153 60 q 333 467 309 357 q 356 673 356 578 q 277 1050 356 883 l 454 1050 q 537 711 537 904 q 513 493 537 605 q 217 -65 443 158 z "},"*":{"ha":795,"x_min":161,"x_max":840,"o":"m 161 469 l 163 489 q 183 536 168 510 q 231 566 201 566 l 397 557 l 335 697 q 352 747 328 722 q 455 797 402 797 q 479 790 475 797 q 487 776 484 784 l 532 627 l 637 775 q 682 794 652 794 q 734 781 707 794 q 757 756 746 772 q 768 730 768 740 q 757 697 768 711 l 636 557 l 803 566 q 831 548 821 566 q 840 517 840 530 q 838 490 840 504 l 838 487 q 818 440 833 466 q 770 410 800 410 l 605 418 l 667 279 q 649 230 673 255 q 547 180 602 180 q 522 187 527 180 q 514 201 517 194 l 470 350 l 363 201 q 319 183 349 183 q 270 195 289 183 l 269 197 q 244 221 256 205 q 233 248 233 238 q 237 267 233 263 q 245 280 238 272 l 364 419 l 197 410 q 170 428 179 410 q 161 469 161 446 z "},"+":{"ha":659,"x_min":121,"x_max":694,"o":"m 156 515 l 336 515 l 380 720 l 543 720 l 499 515 l 694 515 l 659 353 l 464 353 l 422 158 l 260 158 l 302 353 l 121 353 l 156 515 z "},",":{"ha":301,"x_min":54,"x_max":281,"o":"m 190 202 q 212 202 190 202 q 258 176 235 202 q 281 111 281 151 q 253 23 281 72 q 198 -56 225 -26 q 108 -139 144 -116 l 64 -110 q 92 -69 75 -97 q 113 -20 113 -35 q 71 7 87 -14 q 54 54 54 28 q 58 93 54 79 q 106 168 66 134 q 190 202 146 202 z "},"-":{"ha":651,"x_min":140,"x_max":699,"o":"m 175 511 l 699 511 l 664 349 l 140 349 l 175 511 z "},".":{"ha":306,"x_min":60,"x_max":288,"o":"m 60 66 q 105 162 60 125 q 194 200 151 200 q 262 175 237 200 q 288 113 288 151 q 242 15 288 53 q 153 -22 196 -22 q 85 3 111 -22 q 60 66 60 28 z "},"/":{"ha":574,"x_min":-28,"x_max":820,"o":"m 166 0 l -28 0 l 638 1047 l 820 1047 l 166 0 z "},":":{"ha":298,"x_min":60,"x_max":392,"o":"m 60 66 q 105 162 60 125 q 194 200 151 200 q 262 175 237 200 q 288 113 288 151 q 242 15 288 53 q 153 -22 196 -22 q 85 3 111 -22 q 60 66 60 28 m 165 559 q 210 656 165 618 q 299 694 256 694 q 367 669 342 694 q 392 606 392 644 q 347 509 392 546 q 258 471 301 471 q 190 496 216 471 q 165 559 165 522 z "},";":{"ha":298,"x_min":61,"x_max":393,"o":"m 165 560 q 211 657 165 619 q 299 694 256 694 q 368 670 342 694 q 393 607 393 645 q 347 510 393 547 q 258 472 301 472 q 190 497 216 472 q 165 560 165 522 m 197 202 q 219 202 197 202 q 264 176 241 202 q 288 111 288 151 q 260 23 288 72 q 205 -56 232 -26 q 115 -139 151 -116 l 71 -110 q 98 -69 81 -97 q 119 -20 119 -35 q 78 7 94 -14 q 61 54 61 28 q 64 93 61 79 q 113 168 73 134 q 197 202 153 202 z "},"<":{"ha":586,"x_min":122,"x_max":718,"o":"m 317 16 l 122 431 l 492 839 l 718 839 l 347 429 l 541 16 l 317 16 z "},"=":{"ha":615,"x_min":82,"x_max":712,"o":"m 117 372 l 660 372 l 625 210 l 82 210 l 117 372 m 169 621 l 712 621 l 678 458 l 135 458 l 169 621 z "},">":{"ha":586,"x_min":40,"x_max":639,"o":"m 269 14 l 40 14 l 414 429 l 216 838 l 446 838 l 639 431 l 269 14 z "},"?":{"ha":701,"x_min":192,"x_max":831,"o":"m 249 66 q 295 162 249 125 q 384 200 340 200 q 452 175 427 200 q 477 113 477 151 q 431 15 477 53 q 342 -22 385 -22 q 274 3 300 -22 q 249 66 249 28 m 510 359 l 491 271 l 309 271 l 337 403 q 447 548 354 485 q 524 600 486 574 q 634 742 617 663 q 637 766 637 753 q 604 829 637 809 q 519 850 570 850 q 426 814 469 850 q 368 725 384 779 l 192 753 q 327 941 229 867 q 555 1015 425 1015 q 792 919 717 1015 q 831 801 831 869 q 801 668 831 728 q 743 580 770 608 q 687 528 717 551 q 628 485 657 504 q 575 448 600 466 q 510 359 519 406 z "},"@":{"ha":1178,"x_min":147,"x_max":1246,"o":"m 966 550 l 958 477 q 969 424 958 446 q 1005 401 981 401 q 1057 435 1029 401 q 1103 594 1103 490 q 1015 811 1103 725 q 784 897 926 897 q 570 843 675 897 q 392 696 466 789 q 286 418 286 564 q 377 181 286 272 q 612 90 469 90 q 750 116 679 90 q 867 176 821 142 l 922 77 q 763 2 841 26 q 589 -22 686 -22 q 409 8 492 -22 q 270 93 327 39 q 180 223 212 147 q 147 372 147 300 q 286 758 147 587 q 523 946 384 878 q 809 1014 661 1014 q 1125 902 1004 1014 q 1246 617 1246 791 q 1133 330 1246 440 q 972 253 1053 253 q 902 275 935 253 q 854 339 869 297 q 644 235 774 235 q 483 294 545 235 q 420 444 420 353 q 543 669 420 576 q 744 742 639 742 q 907 687 848 742 q 966 550 966 631 m 629 582 q 571 469 571 539 q 600 399 571 427 q 677 372 629 372 q 764 411 725 372 q 816 505 804 449 q 819 528 819 520 q 791 590 819 566 q 718 614 764 614 q 629 582 673 614 z "},"A":{"ha":964,"x_min":14,"x_max":934,"o":"m 637 762 l 446 421 l 682 421 l 637 762 m 789 987 l 934 0 l 723 0 l 686 259 q 372 259 686 259 l 224 0 l 14 0 l 578 987 l 789 987 z "},"B":{"ha":829,"x_min":78,"x_max":890,"o":"m 352 433 l 294 163 l 448 163 q 667 298 639 163 q 671 331 671 315 q 506 433 671 433 l 352 433 m 435 825 l 387 595 l 500 595 q 641 628 594 595 q 701 732 701 670 q 665 798 701 772 q 549 825 630 825 l 435 825 m 288 987 l 583 987 q 854 896 785 987 q 890 783 890 848 q 883 726 890 755 q 819 606 867 652 q 702 541 770 560 q 816 463 779 521 q 853 338 853 404 q 810 193 853 275 q 551 11 732 48 q 434 0 496 0 l 78 0 l 288 987 z "},"C":{"ha":956,"x_min":157,"x_max":1021,"o":"m 819 657 q 751 814 819 759 q 665 844 715 844 q 571 824 614 844 q 495 769 527 803 q 436 688 463 735 q 369 511 389 604 q 349 339 349 418 q 388 202 349 261 q 509 143 428 143 q 654 199 590 143 q 749 328 718 256 l 949 328 q 784 95 907 202 q 645 12 725 44 q 488 -20 566 -20 q 354 0 410 -20 q 262 55 298 20 q 201 136 226 89 q 157 345 157 223 q 292 773 157 576 q 532 975 390 918 q 687 1007 611 1007 q 818 988 764 1007 q 909 937 872 969 q 971 863 945 905 q 1021 685 1021 783 q 1019 657 1021 675 l 819 657 z "},"D":{"ha":863,"x_min":78,"x_max":933,"o":"m 728 510 q 738 600 738 557 q 683 764 738 703 q 530 825 629 825 l 435 825 l 294 163 l 389 163 q 602 257 510 163 q 728 510 694 352 m 933 634 q 915 489 933 576 q 846 308 897 402 q 727 146 795 214 q 572 39 659 78 q 395 0 486 0 l 78 0 l 288 987 l 604 987 q 846 889 758 987 q 933 634 933 791 z "},"E":{"ha":821,"x_min":78,"x_max":954,"o":"m 288 987 l 954 987 l 919 825 l 435 825 l 385 587 l 826 587 l 791 425 l 350 425 l 294 163 l 779 163 l 744 0 l 78 0 l 288 987 z "},"F":{"ha":808,"x_min":78,"x_max":954,"o":"m 288 987 l 954 987 l 920 825 l 435 825 l 385 587 l 826 587 l 791 425 l 350 425 l 260 0 l 78 0 l 288 987 z "},"G":{"ha":964,"x_min":153,"x_max":990,"o":"m 638 9 q 487 -18 564 -18 q 353 2 409 -18 q 260 56 296 22 q 199 139 223 91 q 153 354 153 229 q 290 791 153 596 q 532 985 387 930 q 708 1015 611 1015 q 880 961 805 1015 q 976 814 955 907 l 789 755 q 743 822 787 791 q 654 852 699 852 q 556 822 609 852 q 467 742 504 791 q 349 387 349 587 q 419 178 349 241 q 510 143 457 143 q 603 159 562 143 q 670 200 643 176 q 718 259 696 225 q 767 385 753 317 l 562 385 l 596 547 l 990 547 l 968 448 q 861 191 939 305 q 638 9 771 60 z "},"H":{"ha":850,"x_min":78,"x_max":981,"o":"m 288 987 l 469 987 l 385 586 l 713 586 l 798 987 l 981 987 l 772 0 l 589 0 l 679 423 l 350 423 l 260 0 l 78 0 l 288 987 z "},"I":{"ha":376,"x_min":97,"x_max":488,"o":"m 97 0 l 307 987 l 488 987 l 279 0 l 97 0 z "},"J":{"ha":843,"x_min":138,"x_max":975,"o":"m 154 397 l 336 397 q 322 286 322 335 q 448 139 322 139 q 616 254 553 139 q 668 397 652 317 l 793 987 l 975 987 l 850 397 q 695 91 809 206 q 413 -24 581 -24 q 205 52 273 -24 q 138 259 138 128 q 154 397 138 319 z "},"K":{"ha":904,"x_min":78,"x_max":1065,"o":"m 288 987 l 469 987 l 380 565 l 838 987 l 1065 987 l 595 548 l 875 0 l 647 0 l 429 426 l 331 336 l 260 0 l 78 0 l 288 987 z "},"L":{"ha":793,"x_min":78,"x_max":780,"o":"m 288 987 l 469 987 l 294 163 l 780 163 l 745 0 l 78 0 l 288 987 z "},"M":{"ha":1122,"x_min":78,"x_max":1254,"o":"m 78 0 l 288 987 l 532 987 l 621 288 l 1010 987 l 1254 987 l 1044 0 l 863 0 l 1001 652 l 651 0 l 468 0 l 398 652 l 260 0 l 78 0 z "},"N":{"ha":903,"x_min":78,"x_max":1034,"o":"m 78 0 l 288 987 l 464 987 l 718 350 l 852 987 l 1034 987 l 825 0 l 646 0 l 400 660 l 260 0 l 78 0 z "},"O":{"ha":956,"x_min":157,"x_max":1022,"o":"m 787 393 q 831 622 831 516 q 665 844 831 844 q 436 688 524 844 q 369 511 389 604 q 349 339 349 418 q 388 202 349 261 q 515 143 428 143 q 743 298 656 143 q 787 393 770 345 m 157 345 q 292 773 157 576 q 532 975 390 918 q 690 1007 611 1007 q 825 987 769 1007 q 917 933 881 967 q 978 852 954 899 q 1022 643 1022 765 q 962 351 1022 499 q 784 95 901 199 q 648 12 726 43 q 490 -20 569 -20 q 354 0 410 -20 q 262 55 298 20 q 201 136 226 89 q 157 345 157 223 z "},"P":{"ha":810,"x_min":78,"x_max":903,"o":"m 378 559 l 427 559 q 646 594 593 559 q 709 692 695 626 q 713 730 713 712 q 707 765 713 749 q 685 791 700 781 q 652 808 671 802 q 606 819 634 815 q 483 825 555 825 l 435 825 l 378 559 m 288 987 l 469 987 q 643 981 601 987 q 721 967 686 975 q 780 948 756 959 q 828 920 803 937 q 869 882 854 903 q 903 765 903 831 q 854 584 903 667 q 793 506 826 536 q 711 453 760 475 q 622 420 662 431 q 525 404 583 410 q 344 396 446 396 l 260 0 l 78 0 l 288 987 z "},"Q":{"ha":975,"x_min":159,"x_max":1023,"o":"m 781 388 q 833 631 833 526 q 792 793 833 735 q 669 851 752 851 q 441 703 528 851 q 373 526 392 618 q 353 376 353 433 q 361 280 353 319 q 387 210 370 242 q 513 140 425 140 q 609 165 577 140 l 517 245 l 646 379 l 734 290 q 781 388 755 319 m 726 54 q 476 -24 622 -24 q 331 7 394 -24 q 232 93 269 39 q 159 359 159 201 q 289 775 159 584 q 532 981 389 922 q 692 1014 612 1014 q 826 995 771 1014 q 917 943 880 976 q 978 864 954 910 q 1023 658 1023 777 q 1003 495 1023 589 q 941 315 983 401 q 851 176 898 229 l 929 109 l 800 -20 l 726 54 z "},"R":{"ha":830,"x_min":78,"x_max":903,"o":"m 378 559 l 427 559 q 646 593 592 559 q 709 691 695 625 q 713 731 713 710 q 703 770 713 752 q 674 799 692 788 q 625 815 656 809 q 483 825 573 825 l 435 825 l 378 559 m 405 393 l 343 394 l 260 -1 l 78 -1 l 288 987 l 469 987 q 640 980 593 987 q 721 966 686 974 q 780 947 755 958 q 829 919 804 936 q 869 880 854 902 q 903 764 903 830 q 895 691 903 731 q 631 425 849 479 l 785 -1 l 578 -1 l 446 395 q 405 393 428 393 z "},"S":{"ha":815,"x_min":114,"x_max":909,"o":"m 717 770 q 601 848 700 848 q 435 739 458 848 q 433 716 433 731 q 449 680 433 701 q 494 642 465 659 q 552 613 524 626 q 616 586 580 601 q 783 480 735 537 q 830 345 830 422 q 822 274 830 313 q 679 60 793 140 q 422 -20 564 -20 q 197 55 281 -20 q 114 252 114 130 q 115 274 114 267 l 302 303 q 338 194 305 239 q 450 144 373 144 q 575 180 526 144 q 640 304 640 228 q 582 397 640 361 q 476 449 543 420 q 379 493 409 477 q 328 524 349 509 q 286 561 307 538 q 242 680 242 606 q 249 739 242 708 q 330 891 268 827 q 635 1012 446 1012 q 824 953 749 1012 q 909 804 899 894 l 717 770 z "},"T":{"ha":918,"x_min":228,"x_max":1078,"o":"m 262 987 l 1078 987 l 1043 825 l 733 825 l 558 0 l 376 0 l 551 825 l 228 825 l 262 987 z "},"U":{"ha":865,"x_min":148,"x_max":996,"o":"m 427 -24 q 219 54 290 -24 q 148 267 148 132 q 163 397 148 329 l 288 987 l 469 987 l 345 397 q 333 285 333 342 q 363 183 333 228 q 462 139 394 139 q 636 254 569 139 q 690 397 673 317 l 814 987 l 996 987 l 871 397 q 714 92 831 208 q 427 -24 597 -24 z "},"V":{"ha":883,"x_min":257,"x_max":1044,"o":"m 856 987 l 1044 987 l 552 0 l 337 0 l 257 987 l 453 987 l 503 279 l 856 987 z "},"W":{"ha":1158,"x_min":212,"x_max":1258,"o":"m 260 987 l 444 987 l 392 338 l 649 969 l 862 969 l 850 334 l 1074 987 l 1258 987 l 887 0 l 670 0 l 690 661 l 429 0 l 212 0 l 260 987 z "},"X":{"ha":899,"x_min":43,"x_max":1063,"o":"m 255 987 l 486 987 l 591 665 l 833 987 l 1063 987 l 663 495 l 856 0 l 625 0 l 519 326 l 274 0 l 43 0 l 446 495 l 255 987 z "},"Y":{"ha":899,"x_min":255,"x_max":1063,"o":"m 255 987 l 486 987 l 591 665 l 833 987 l 1063 987 l 641 468 l 541 0 l 359 0 l 459 468 l 255 987 z "},"Z":{"ha":935,"x_min":49,"x_max":1095,"o":"m 304 987 l 1095 987 l 393 163 l 916 163 l 882 0 l 49 0 l 753 825 l 269 825 l 304 987 z "},"[":{"ha":504,"x_min":68,"x_max":644,"o":"m 408 -66 l 68 -66 l 303 1039 l 644 1039 l 609 876 l 441 876 l 275 94 l 443 94 l 408 -66 z "},"\\":{"ha":581,"x_min":196,"x_max":607,"o":"m 397 0 l 196 1046 l 394 1046 l 607 0 l 397 0 z "},"]":{"ha":504,"x_min":66,"x_max":641,"o":"m 66 -66 l 101 96 l 268 96 l 434 876 l 267 876 l 302 1039 l 641 1039 l 406 -66 l 66 -66 z "},"^":{"ha":733,"x_min":249,"x_max":793,"o":"m 793 779 l 610 779 l 543 888 l 437 781 l 249 781 l 490 1012 l 650 1012 l 793 779 z "},"_":{"ha":842,"x_min":12,"x_max":785,"o":"m 12 -191 l 47 -28 l 785 -28 l 751 -191 l 12 -191 z "},"`":{"ha":363,"x_min":310,"x_max":595,"o":"m 496 1040 l 319 1184 q 310 1203 310 1193 q 312 1225 310 1214 q 372 1303 321 1271 q 414 1319 399 1319 q 435 1312 429 1319 l 592 1145 q 595 1137 595 1142 q 586 1100 595 1116 q 548 1058 572 1075 q 509 1036 518 1036 q 496 1040 500 1036 z "},"a":{"ha":732,"x_min":106,"x_max":762,"o":"m 547 264 q 518 329 547 303 q 434 355 490 355 q 332 321 378 355 q 275 222 275 278 q 306 156 275 182 q 394 130 338 130 q 492 163 450 130 q 547 264 547 204 m 450 608 q 295 572 384 608 l 249 684 q 354 728 284 708 q 475 747 425 747 q 567 740 526 747 q 644 714 608 732 q 707 669 681 696 q 762 509 762 610 q 751 413 762 467 l 663 0 l 489 0 l 509 92 q 428 15 485 49 q 293 -20 371 -20 q 161 37 216 -20 q 106 182 106 93 q 113 243 106 213 q 223 428 136 354 q 412 503 311 503 q 523 468 479 503 q 570 391 566 434 l 583 446 q 588 494 588 470 q 450 608 588 608 z "},"b":{"ha":761,"x_min":81,"x_max":814,"o":"m 256 0 l 81 0 l 290 986 l 465 986 l 388 622 q 499 712 435 677 q 623 746 564 746 q 767 681 720 746 q 814 504 814 615 q 751 214 814 357 q 581 11 686 67 q 463 -19 524 -19 q 352 16 401 -19 q 278 106 302 51 l 256 0 m 587 266 q 632 436 632 353 q 601 553 632 519 q 535 587 570 587 q 472 576 499 587 q 416 541 444 565 q 328 364 353 488 q 318 281 318 319 q 351 174 318 208 q 431 140 384 140 q 538 195 481 140 q 587 266 565 221 z "},"c":{"ha":710,"x_min":123,"x_max":789,"o":"m 629 513 q 528 590 601 590 q 395 525 456 590 q 313 361 334 460 q 305 296 305 325 q 342 181 305 224 q 440 138 379 138 q 497 149 481 138 q 518 162 513 159 q 531 174 522 165 q 542 186 540 184 q 552 200 544 189 q 562 214 561 212 l 691 138 q 562 26 637 72 q 407 -20 488 -20 q 198 53 272 -20 q 123 254 123 126 q 135 361 123 308 q 290 639 172 532 q 556 746 408 746 q 700 703 635 746 q 789 589 764 660 l 629 513 z "},"d":{"ha":761,"x_min":111,"x_max":900,"o":"m 515 0 l 538 106 q 426 16 490 51 q 303 -19 361 -19 q 158 46 205 -19 q 111 221 111 111 q 131 377 111 286 q 194 553 150 468 q 309 692 238 637 q 466 746 380 746 q 574 712 525 746 q 648 622 624 677 l 725 986 l 900 986 l 690 0 l 515 0 m 304 364 q 295 288 295 324 q 326 179 295 218 q 392 140 357 140 q 454 151 427 140 q 510 186 481 162 q 598 364 572 241 q 608 447 608 408 q 574 554 608 520 q 489 587 541 587 q 383 533 437 587 q 304 364 328 478 z "},"e":{"ha":741,"x_min":127,"x_max":785,"o":"m 340 441 l 620 441 q 622 467 622 455 q 593 554 622 520 q 508 589 565 589 q 404 545 450 589 q 340 441 357 501 m 421 136 q 535 181 488 136 l 675 115 q 540 16 620 51 q 388 -20 460 -20 q 200 60 273 -20 q 127 269 127 140 q 222 559 127 425 q 370 696 285 647 q 555 745 454 745 q 720 669 655 745 q 785 471 785 594 q 773 364 785 420 l 764 318 l 313 318 q 307 254 307 286 q 318 197 307 223 q 349 159 330 171 q 421 136 382 136 z "},"f":{"ha":530,"x_min":144,"x_max":738,"o":"m 441 572 l 319 0 l 144 0 l 266 572 l 172 572 l 205 728 l 299 728 l 311 782 q 410 930 326 854 q 498 987 448 964 q 594 1010 548 1010 q 738 949 689 1010 l 611 828 q 586 848 603 841 q 557 854 570 854 q 488 795 501 854 l 474 728 l 586 728 l 553 572 l 441 572 z "},"g":{"ha":771,"x_min":55,"x_max":845,"o":"m 505 -47 l 538 106 q 426 16 490 51 q 303 -19 361 -19 q 158 46 205 -19 q 111 221 111 111 q 131 377 111 286 q 194 553 150 468 q 309 692 238 637 q 466 746 380 746 q 574 712 525 746 q 648 622 624 677 l 670 728 l 845 728 l 683 -34 q 563 -227 659 -146 q 308 -313 463 -313 q 88 -211 152 -313 q 55 -91 55 -157 q 56 -67 55 -82 q 222 -60 157 -62 l 222 -70 q 251 -136 222 -111 q 342 -161 280 -161 q 449 -131 404 -161 q 505 -47 494 -100 m 304 364 q 295 288 295 324 q 326 179 295 218 q 392 140 357 140 q 454 151 427 140 q 510 186 481 162 q 598 364 572 241 q 608 447 608 408 q 574 554 608 520 q 489 587 541 587 q 383 533 437 587 q 304 364 328 478 z "},"h":{"ha":760,"x_min":81,"x_max":794,"o":"m 256 0 l 81 0 l 290 986 l 465 986 l 387 618 q 496 711 429 674 q 631 747 564 747 q 746 692 699 747 q 794 541 794 637 q 784 453 794 500 l 688 0 l 513 0 l 590 364 q 606 490 606 436 q 583 566 606 543 q 526 588 559 588 q 472 583 492 588 q 431 562 452 577 q 393 523 410 547 q 333 363 355 470 l 256 0 z "},"i":{"ha":362,"x_min":94,"x_max":476,"o":"m 249 728 l 424 728 l 269 0 l 94 0 l 249 728 m 272 881 q 314 976 272 939 q 394 1013 357 1013 q 454 989 432 1013 q 476 939 476 965 q 434 833 476 870 q 354 796 392 796 q 294 820 317 796 q 272 881 272 844 z "},"j":{"ha":362,"x_min":-208,"x_max":476,"o":"m 272 881 q 314 976 272 939 q 394 1013 357 1013 q 454 989 432 1013 q 476 939 476 965 q 434 833 476 870 q 354 796 392 796 q 294 820 317 796 q 272 881 272 844 m -208 -226 l -68 -109 q -47 -129 -63 -121 q -5 -138 -31 -138 q 47 -116 20 -138 q 81 -62 73 -95 l 249 728 l 424 728 l 264 -24 q 199 -154 250 -92 q 79 -255 148 -217 q -50 -293 10 -293 q -146 -279 -111 -293 q -208 -226 -181 -266 z "},"k":{"ha":677,"x_min":81,"x_max":814,"o":"m 478 405 l 675 0 l 476 0 l 332 317 l 319 301 l 256 0 l 81 0 l 290 986 l 465 986 l 359 486 l 601 728 l 814 728 l 478 405 z "},"l":{"ha":380,"x_min":125,"x_max":479,"o":"m 310 191 q 308 173 308 182 q 360 132 308 132 l 328 -20 q 175 11 224 -20 q 125 115 125 41 q 134 187 125 143 l 304 986 l 479 986 l 310 191 z "},"m":{"ha":1068,"x_min":81,"x_max":1107,"o":"m 627 0 l 452 0 l 530 366 q 547 494 547 444 q 478 589 547 589 q 390 533 422 589 q 334 366 357 477 l 256 0 l 81 0 l 235 728 l 410 728 l 387 621 q 481 708 425 668 q 597 747 538 747 q 713 671 682 747 q 729 585 729 632 q 871 719 787 668 q 960 747 920 747 q 1068 701 1029 747 q 1107 566 1107 654 q 1093 453 1107 517 l 997 0 l 822 0 l 900 366 q 917 494 917 444 q 849 589 917 589 q 761 533 794 589 q 705 366 728 477 l 627 0 z "},"n":{"ha":760,"x_min":81,"x_max":794,"o":"m 256 0 l 81 0 l 235 728 l 410 728 l 387 618 q 496 711 429 674 q 631 747 564 747 q 746 692 699 747 q 794 541 794 637 q 784 453 794 500 l 688 0 l 513 0 l 590 364 q 606 490 606 436 q 583 566 606 543 q 526 588 559 588 q 472 583 492 588 q 431 562 452 577 q 393 523 410 547 q 333 363 355 470 l 256 0 z "},"o":{"ha":749,"x_min":125,"x_max":794,"o":"m 311 364 q 299 270 299 308 q 414 140 299 140 q 612 364 564 140 q 623 457 623 420 q 509 587 623 587 q 311 364 357 587 m 140 364 q 283 643 178 541 q 542 746 389 746 q 730 678 665 746 q 794 487 794 610 q 780 364 794 430 q 637 84 742 187 q 379 -20 532 -20 q 191 48 256 -20 q 125 240 125 117 q 140 364 125 297 z "},"p":{"ha":768,"x_min":19,"x_max":814,"o":"m 194 -289 l 19 -289 l 235 728 l 410 728 l 388 622 q 499 712 435 677 q 623 746 564 746 q 767 681 720 746 q 814 504 814 615 q 751 214 814 357 q 581 11 686 67 q 463 -19 524 -19 q 352 16 401 -19 q 278 106 302 51 l 194 -289 m 587 266 q 632 436 632 353 q 601 553 632 519 q 535 587 570 587 q 472 576 499 587 q 416 541 444 565 q 328 364 353 488 q 318 281 318 319 q 351 174 318 208 q 431 140 384 140 q 538 195 481 140 q 587 266 565 221 z "},"q":{"ha":768,"x_min":111,"x_max":845,"o":"m 495 -96 l 538 106 q 426 16 490 51 q 303 -19 361 -19 q 158 46 205 -19 q 111 221 111 111 q 131 377 111 286 q 194 553 150 468 q 309 692 238 637 q 466 746 380 746 q 574 712 525 746 q 648 622 624 677 l 670 728 l 845 728 l 671 -93 q 668 -119 668 -108 q 732 -143 668 -143 l 699 -304 q 541 -269 594 -304 q 488 -157 488 -233 q 495 -96 488 -127 m 304 364 q 295 288 295 324 q 326 179 295 218 q 392 140 357 140 q 454 151 427 140 q 510 186 481 162 q 598 364 572 241 q 608 447 608 408 q 574 554 608 520 q 489 587 541 587 q 383 533 437 587 q 304 364 328 478 z "},"r":{"ha":582,"x_min":83,"x_max":710,"o":"m 616 547 q 516 589 552 589 q 449 569 481 589 q 395 517 417 549 q 338 375 355 455 l 258 0 l 83 0 l 237 728 l 412 728 l 389 618 q 487 710 430 673 q 582 747 545 747 q 710 684 656 747 l 616 547 z "},"s":{"ha":650,"x_min":95,"x_max":709,"o":"m 709 553 l 708 543 l 539 514 l 539 522 q 520 576 539 562 q 461 590 500 590 q 397 578 422 590 q 365 531 372 566 q 363 512 363 523 q 379 487 363 500 q 414 464 394 473 q 472 440 435 456 q 552 402 510 425 q 647 249 647 351 q 529 38 647 112 q 326 -20 437 -20 q 155 39 215 -20 q 95 197 96 97 l 258 223 l 258 220 q 286 158 258 180 q 348 136 315 136 q 397 138 380 136 q 431 146 414 140 q 475 200 467 159 q 476 220 476 208 q 459 248 476 231 q 419 276 441 265 q 361 303 397 286 q 284 343 325 319 q 218 399 244 368 q 193 471 193 430 q 300 693 193 621 q 494 746 379 746 q 656 685 600 746 q 709 553 709 629 z "},"t":{"ha":479,"x_min":170,"x_max":578,"o":"m 266 572 l 170 572 l 203 728 l 299 728 l 335 897 l 510 897 l 474 728 l 578 728 l 545 572 l 441 572 l 362 201 q 360 183 360 191 q 424 137 360 137 l 450 137 l 419 -10 l 393 -10 q 227 23 277 -10 q 178 127 178 56 q 186 199 178 156 l 266 572 z "},"u":{"ha":754,"x_min":130,"x_max":835,"o":"m 680 0 l 505 0 l 528 109 q 420 17 486 54 q 282 -20 353 -20 q 171 35 212 -20 q 130 177 130 89 q 151 363 130 266 l 228 728 l 403 728 l 326 363 q 313 258 313 302 q 400 140 313 140 q 496 182 448 140 q 582 364 553 231 l 659 728 l 835 728 l 680 0 z "},"v":{"ha":719,"x_min":203,"x_max":808,"o":"m 279 0 l 203 728 l 387 728 l 410 262 l 640 728 l 808 728 l 423 0 l 279 0 z "},"w":{"ha":983,"x_min":193,"x_max":1094,"o":"m 581 450 l 389 0 l 252 0 l 193 728 l 366 728 l 384 274 l 569 730 l 726 730 l 718 276 l 929 728 l 1094 728 l 726 0 l 577 0 l 581 450 z "},"x":{"ha":715,"x_min":18,"x_max":850,"o":"m 692 0 l 484 0 l 404 227 l 227 0 l 18 0 l 327 363 l 185 728 l 382 728 l 463 504 l 637 728 l 850 728 l 540 370 l 692 0 z "},"y":{"ha":750,"x_min":62,"x_max":835,"o":"m 676 -20 q 601 -161 661 -92 q 461 -273 541 -230 q 294 -315 380 -315 q 144 -268 208 -315 q 62 -152 80 -221 l 217 -76 q 253 -136 222 -113 q 340 -158 285 -158 q 440 -126 395 -158 q 496 -40 485 -94 l 528 109 q 420 17 486 54 q 282 -20 353 -20 q 171 35 212 -20 q 130 177 130 89 q 151 363 130 266 l 228 728 l 403 728 l 326 363 q 313 258 313 302 q 400 140 313 140 q 496 182 448 140 q 582 364 553 231 l 659 728 l 835 728 l 676 -20 z "},"z":{"ha":682,"x_min":45,"x_max":779,"o":"m 362 163 l 637 163 l 603 0 l 45 0 l 460 566 l 198 566 l 233 728 l 779 728 l 362 163 z "},"{":{"ha":507,"x_min":159,"x_max":663,"o":"m 159 494 q 248 558 210 510 q 310 667 287 606 q 349 790 332 729 q 380 905 365 850 q 413 983 396 959 q 456 1023 431 1006 q 514 1046 481 1039 q 613 1059 570 1059 q 663 1059 637 1059 l 632 914 q 545 892 574 914 q 503 811 515 871 q 345 494 443 534 q 393 368 393 472 q 378 222 393 292 q 363 127 363 153 q 454 75 363 75 l 422 -69 q 287 -59 321 -67 q 205 9 222 -44 q 201 42 201 21 q 219 171 201 64 q 236 336 236 278 q 159 494 236 468 z "},"|":{"ha":317,"x_min":78,"x_max":452,"o":"m 78 0 l 288 986 l 452 986 l 243 0 l 78 0 z "},"}":{"ha":507,"x_min":67,"x_max":570,"o":"m 570 494 q 481 432 520 479 q 420 322 443 384 q 381 200 397 260 q 349 84 365 139 q 316 6 334 30 q 274 -34 299 -18 q 214 -57 248 -50 q 67 -69 159 -69 l 98 75 q 185 97 157 75 q 227 178 214 118 q 385 494 287 456 q 337 621 337 517 q 352 766 337 696 q 367 861 367 836 q 277 914 367 914 l 307 1059 q 441 1048 408 1056 q 528 953 528 1027 q 511 818 528 925 q 494 654 494 711 q 570 494 494 522 z "},"~":{"ha":515,"x_min":118,"x_max":593,"o":"m 153 548 q 175 564 158 551 q 202 584 192 577 q 229 600 213 591 q 286 618 261 618 q 327 607 310 618 q 358 582 345 597 q 387 551 372 566 q 449 515 420 515 q 507 529 478 515 q 550 554 536 544 q 593 587 563 564 l 555 411 q 531 394 551 408 q 498 372 511 379 q 426 347 458 347 q 370 363 395 347 q 329 399 345 380 q 292 434 313 418 q 254 450 272 450 q 216 444 235 450 q 185 430 197 437 q 152 407 174 422 q 118 385 130 392 l 153 548 z "},"¡":{"ha":210,"x_min":-14,"x_max":377,"o":"m 152 688 q 182 715 155 703 q 227 728 209 728 q 266 716 245 728 q 287 691 287 705 l 287 688 l 178 44 q 136 0 172 19 q 71 -20 99 -20 q 15 -2 43 -20 q -14 37 -14 15 q -13 43 -14 41 l 152 688 m 377 920 q 331 824 377 861 q 242 786 286 786 q 174 811 199 786 q 149 873 149 836 q 195 971 149 933 q 283 1008 241 1008 q 352 983 326 1008 q 377 920 377 958 z "},"¢":{"ha":600,"x_min":132,"x_max":617,"o":"m 254 199 q 165 252 199 208 q 132 364 132 296 q 190 543 132 462 q 349 662 258 638 l 382 819 l 538 819 l 505 663 q 566 629 533 656 q 617 568 600 602 l 491 481 l 490 481 q 482 490 490 481 q 417 515 459 515 q 343 488 376 515 q 300 410 300 453 q 372 325 300 325 q 421 333 407 325 q 451 354 436 341 q 468 369 466 368 l 557 277 q 410 193 478 199 l 380 53 l 224 53 l 254 199 z "},"£":{"ha":859,"x_min":92,"x_max":870,"o":"m 279 372 l 130 372 l 162 528 l 323 528 q 457 882 373 764 q 682 1000 542 1000 q 812 945 767 1000 q 870 772 858 890 l 711 757 q 682 838 709 823 q 648 846 669 846 q 607 826 627 846 q 571 775 587 806 q 526 646 539 712 l 500 528 l 743 528 l 710 372 l 469 372 q 453 330 465 362 q 435 282 441 298 q 418 240 429 266 q 371 157 399 195 l 685 157 q 725 173 705 157 q 759 209 746 190 l 836 106 q 650 0 766 0 l 92 0 q 146 97 104 26 q 279 372 252 275 z "},"¤":{"ha":669,"x_min":80,"x_max":805,"o":"m 510 519 q 510 534 510 519 q 495 564 510 549 q 455 578 480 578 q 401 555 429 578 q 374 503 374 533 q 390 458 374 472 q 430 444 406 444 q 479 464 455 444 q 510 519 510 490 m 683 554 q 648 433 683 502 l 726 433 l 677 207 l 451 207 l 468 288 q 393 275 438 275 q 323 286 348 275 l 307 207 l 80 207 l 128 433 l 203 433 q 201 465 201 445 q 232 582 201 529 l 159 582 l 208 808 l 434 808 l 418 735 q 477 748 450 748 q 563 735 542 748 l 578 808 l 805 808 l 757 582 l 682 582 q 683 554 683 560 z "},"¥":{"ha":770,"x_min":138,"x_max":926,"o":"m 376 431 l 189 431 l 222 586 l 337 586 l 232 947 l 424 947 l 507 602 l 749 947 l 926 947 l 656 586 l 761 586 l 728 431 l 551 431 l 534 349 l 710 349 l 677 193 l 501 193 l 460 0 l 285 0 l 326 193 l 138 193 l 171 349 l 359 349 l 376 431 z "},"¦":{"ha":275,"x_min":54,"x_max":427,"o":"m 316 452 l 220 0 l 54 0 l 151 452 l 316 452 m 165 521 l 261 972 l 427 972 l 330 521 l 165 521 z "},"§":{"ha":471,"x_min":77,"x_max":582,"o":"m 229 241 l 229 238 q 243 207 229 219 q 267 195 257 195 l 269 195 q 311 217 291 195 q 342 274 330 239 q 310 261 327 261 q 184 318 235 261 q 134 478 134 374 q 206 740 134 611 q 307 862 248 815 q 428 909 366 909 q 523 873 491 909 q 582 745 555 837 l 429 711 l 429 715 q 422 738 429 728 q 396 754 408 754 q 334 682 361 754 q 356 688 345 688 q 487 622 433 688 q 540 454 540 557 q 467 210 540 334 q 360 86 421 133 q 238 39 298 39 q 137 79 177 39 q 77 212 97 120 l 229 241 m 346 391 l 351 391 q 366 401 363 391 q 371 463 371 426 q 357 528 371 499 q 319 557 344 557 q 299 549 307 557 q 294 491 294 526 q 309 424 294 456 q 346 391 324 391 z "},"¨":{"ha":633,"x_min":296,"x_max":843,"o":"m 296 1168 q 342 1265 296 1228 q 434 1303 388 1303 q 502 1275 480 1303 q 524 1225 524 1247 q 478 1117 524 1154 q 387 1080 433 1080 q 318 1109 340 1080 q 296 1168 296 1137 m 616 1168 q 661 1265 616 1228 q 753 1303 707 1303 q 821 1275 799 1303 q 843 1225 843 1247 q 797 1117 843 1154 q 706 1080 751 1080 q 638 1109 660 1080 q 616 1168 616 1137 z "},"©":{"ha":739,"x_min":46,"x_max":797,"o":"m 54 505 q 218 770 87 661 q 491 880 349 880 q 714 797 632 880 q 797 585 797 713 q 699 317 797 442 q 536 181 631 231 q 342 131 441 131 q 129 214 211 131 q 46 425 46 298 q 54 505 46 469 m 527 393 q 393 336 458 336 q 290 375 328 336 q 251 473 251 414 q 331 631 251 565 q 466 682 392 682 q 578 632 539 682 l 484 553 q 439 572 465 572 q 391 553 414 572 q 361 502 361 529 q 375 459 361 474 q 416 444 390 444 q 468 463 443 444 l 527 393 m 287 687 q 170 455 170 590 q 227 313 170 369 q 379 256 283 256 q 565 330 476 256 q 677 509 654 404 q 683 562 683 536 q 626 704 683 648 q 472 761 569 761 q 287 687 376 761 z "},"ª":{"ha":396,"x_min":201,"x_max":564,"o":"m 414 894 q 381 906 404 906 q 340 894 358 906 q 329 839 303 867 q 363 827 340 827 q 402 839 387 827 q 420 866 416 850 q 414 894 422 882 m 442 991 q 426 1023 439 1016 q 390 1032 408 1032 q 338 1025 357 1032 l 302 1010 l 268 1091 l 282 1101 q 339 1124 300 1113 q 411 1135 378 1135 q 502 1117 473 1135 q 545 1077 530 1098 q 564 1014 564 1048 q 557 952 564 979 l 510 728 l 389 728 l 393 743 q 389 741 392 742 q 385 739 386 739 q 304 719 353 719 q 228 755 255 719 q 201 821 201 792 q 267 971 201 916 q 366 1013 317 1013 q 439 994 414 1013 l 442 991 z "},"«":{"ha":615,"x_min":154,"x_max":709,"o":"m 563 758 l 709 758 l 536 561 l 625 363 l 479 363 l 390 561 l 563 758 m 324 758 l 473 758 l 300 561 l 386 363 l 240 363 l 154 561 l 324 758 z "},"¬":{"ha":760,"x_min":197,"x_max":817,"o":"m 731 237 l 575 237 l 625 473 l 197 473 l 233 639 l 817 639 l 731 237 z "},"­":{"ha":644,"x_min":159,"x_max":717,"o":"m 193 628 l 717 628 l 682 465 l 159 465 l 193 628 z "},"®":{"ha":830,"x_min":186,"x_max":920,"o":"m 444 837 q 424 823 444 837 q 374 760 405 808 q 334 666 344 712 q 324 586 324 619 q 340 517 324 552 q 382 463 356 483 q 505 420 435 420 q 665 480 584 420 q 734 555 704 509 q 781 711 781 626 q 722 852 781 803 q 617 897 667 897 q 525 881 566 897 q 444 837 483 866 m 186 566 q 248 792 186 682 q 428 972 312 906 q 645 1031 530 1031 q 840 950 760 1031 q 920 741 920 869 q 818 462 920 586 q 656 331 747 376 q 493 286 566 286 q 369 304 420 286 q 277 356 318 322 q 211 445 235 390 q 186 566 186 499 m 523 666 l 551 665 q 593 671 583 665 q 610 709 610 682 q 598 740 610 735 q 554 744 586 744 l 539 744 l 523 666 m 463 834 l 558 834 q 667 812 630 834 q 705 741 705 790 q 694 676 705 694 q 680 652 683 657 q 670 640 677 646 q 661 631 663 634 q 649 623 659 628 q 638 617 640 618 q 626 611 637 616 q 614 606 616 606 l 652 482 l 550 482 l 526 595 l 509 599 l 484 483 l 389 483 l 463 834 z "},"¯":{"ha":651,"x_min":309,"x_max":851,"o":"m 328 1230 l 851 1230 l 833 1143 l 309 1143 l 328 1230 z "},"°":{"ha":517,"x_min":153,"x_max":593,"o":"m 474 821 q 452 878 474 856 q 392 901 431 901 q 314 866 354 901 q 273 786 273 831 q 295 720 273 742 q 356 697 317 697 q 428 727 394 697 q 474 821 474 767 m 158 799 q 253 949 177 887 q 413 1010 330 1010 q 545 963 496 1010 q 593 843 593 916 q 494 649 593 730 q 335 587 418 587 q 202 635 252 587 q 153 755 153 683 q 158 799 153 778 z "},"±":{"ha":667,"x_min":117,"x_max":777,"o":"m 151 293 l 675 293 l 640 130 l 117 130 l 151 293 m 239 710 l 419 710 l 463 915 l 625 915 l 582 710 l 777 710 l 742 547 l 547 547 l 505 353 l 343 353 l 385 547 l 204 547 l 239 710 z "},"²":{"ha":494,"x_min":176,"x_max":602,"o":"m 483 986 q 441 1025 483 1025 q 403 1014 418 1025 q 373 975 388 1002 l 366 962 l 267 994 l 273 1005 q 352 1097 296 1061 q 465 1133 409 1133 q 583 1082 545 1133 q 602 1024 602 1055 q 575 905 602 947 q 472 802 537 844 l 417 766 q 362 727 376 740 q 342 709 349 715 l 555 709 l 532 600 l 176 600 q 247 760 197 704 q 316 822 281 798 q 374 860 351 846 q 469 937 448 905 q 483 986 483 958 z "},"³":{"ha":452,"x_min":191,"x_max":591,"o":"m 528 902 q 573 806 573 864 q 547 713 573 751 q 349 600 472 600 q 222 655 265 600 q 191 742 199 683 l 310 772 q 335 721 320 732 q 376 709 351 709 q 424 726 402 709 q 452 773 452 749 q 438 813 452 797 q 398 830 425 830 l 328 830 l 349 929 l 412 929 q 449 945 431 929 q 472 984 467 962 q 466 1021 477 1007 q 426 1035 454 1035 q 375 994 398 1035 l 270 1023 l 278 1038 q 454 1142 340 1142 q 587 1062 565 1142 q 591 1031 591 1048 q 528 902 591 950 z "},"´":{"ha":391,"x_min":296,"x_max":617,"o":"m 344 1036 q 300 1072 321 1036 q 296 1136 281 1101 q 303 1145 298 1141 l 530 1312 q 547 1319 538 1319 q 608 1280 585 1319 q 617 1249 617 1267 q 593 1184 617 1201 l 353 1040 q 344 1036 348 1036 z "},"µ":{"ha":765,"x_min":40,"x_max":810,"o":"m 274 53 l 205 -269 l 40 -269 l 225 603 l 393 603 l 332 317 q 326 260 326 290 q 358 168 326 197 q 431 139 390 139 q 522 198 473 139 q 584 317 571 256 l 645 603 l 810 603 l 682 0 l 517 0 l 529 57 q 465 1 505 22 q 393 -20 425 -20 q 321 3 360 -20 q 274 53 281 25 z "},"¶":{"ha":872,"x_min":214,"x_max":981,"o":"m 776 833 l 675 828 l 613 539 l 711 530 l 776 833 m 498 776 q 485 770 498 775 q 468 764 473 766 q 452 755 464 762 q 434 745 439 749 q 418 734 428 741 q 403 720 408 726 q 382 670 382 694 q 387 634 382 646 q 396 615 391 623 q 411 600 401 608 q 426 590 420 593 q 442 581 431 587 q 456 574 454 576 l 498 776 m 680 383 l 581 387 l 532 155 l 632 155 l 680 383 m 334 0 l 422 419 q 231 542 267 465 q 214 614 214 576 q 223 696 214 652 q 275 790 233 741 q 377 873 317 839 q 509 930 437 907 q 796 977 649 977 l 981 977 l 773 0 l 334 0 z "},"·":{"ha":336,"x_min":171,"x_max":399,"o":"m 171 496 q 217 593 171 555 q 306 631 262 631 q 374 606 349 631 q 399 543 399 581 q 353 446 399 484 q 264 408 307 408 q 196 433 222 408 q 171 496 171 458 z "},"¸":{"ha":358,"x_min":4,"x_max":265,"o":"m 4 -161 q 16 -155 7 -160 q 30 -148 25 -151 q 45 -141 35 -146 q 60 -132 54 -136 q 74 -124 66 -129 q 87 -114 81 -119 q 98 -105 92 -110 q 113 -61 113 -90 q 96 -11 113 -33 l 219 50 q 265 -61 265 0 q 262 -90 265 -77 q 73 -242 247 -161 q 62 -248 66 -246 l 4 -161 z "},"¹":{"ha":340,"x_min":248,"x_max":503,"o":"m 361 1009 l 248 1009 l 394 1121 l 503 1121 l 392 600 l 274 600 l 361 1009 z "},"º":{"ha":517,"x_min":153,"x_max":594,"o":"m 273 775 q 292 722 273 747 q 352 697 311 697 q 434 731 393 697 q 474 830 474 766 q 455 876 474 851 q 396 901 437 901 q 314 866 355 901 q 273 775 273 831 m 153 753 q 253 949 153 867 q 419 1010 329 1010 q 558 949 509 1010 q 594 846 594 903 q 494 649 594 730 q 329 587 418 587 q 189 649 239 587 q 153 753 153 693 z "},"»":{"ha":667,"x_min":163,"x_max":718,"o":"m 393 759 l 482 561 l 309 364 l 163 364 l 336 561 l 248 758 l 393 759 m 632 759 l 718 561 l 548 364 l 402 364 l 572 561 l 484 758 l 632 759 z "},"¼":{"ha":848,"x_min":13,"x_max":1044,"o":"m 349 1009 l 235 1009 l 382 1121 l 490 1121 l 380 600 l 262 600 l 349 1009 m 155 -98 l 13 -98 l 907 1082 l 1044 1082 l 155 -98 m 785 71 l 832 71 l 810 -37 l 763 -37 l 738 -155 l 620 -155 l 645 -37 l 446 -37 l 465 50 l 729 366 l 848 366 l 785 71 m 695 188 l 595 72 l 671 72 l 695 188 z "},"½":{"ha":848,"x_min":13,"x_max":1044,"o":"m 349 1009 l 235 1009 l 382 1121 l 490 1121 l 380 600 l 262 600 l 349 1009 m 155 -98 l 13 -98 l 907 1082 l 1044 1082 l 155 -98 m 621 207 l 522 239 q 606 342 549 306 q 719 378 663 378 q 837 327 799 378 q 855 268 855 302 q 848 201 855 233 q 762 74 834 134 q 726 47 744 58 l 671 12 q 596 -46 621 -21 l 810 -46 l 787 -155 l 431 -155 q 500 5 453 -47 q 630 106 543 52 q 722 182 701 149 q 737 226 737 206 q 696 270 737 270 q 657 259 672 270 q 627 220 643 248 l 621 207 z "},"¾":{"ha":891,"x_min":62,"x_max":1093,"o":"m 204 -98 l 62 -98 l 956 1082 l 1093 1082 l 204 -98 m 515 902 q 560 808 560 864 q 479 650 560 715 q 336 600 416 600 q 209 655 252 600 q 178 742 186 683 l 297 772 q 322 721 307 732 q 363 709 338 709 q 411 726 389 709 q 439 772 439 748 q 425 813 439 796 q 385 830 411 830 l 316 830 l 337 929 l 398 929 q 436 945 418 929 q 459 984 454 962 q 453 1021 465 1007 q 413 1035 441 1035 q 362 994 385 1035 l 257 1023 l 265 1038 q 441 1142 327 1142 q 574 1062 552 1142 q 578 1031 578 1048 q 515 902 578 950 m 834 71 l 881 71 l 859 -37 l 812 -37 l 787 -155 l 669 -155 l 694 -37 l 495 -37 l 513 50 l 778 366 l 897 366 l 834 71 m 744 188 l 644 72 l 720 72 l 744 188 z "},"¿":{"ha":647,"x_min":17,"x_max":656,"o":"m 338 632 l 357 721 l 539 721 l 511 589 q 401 444 494 507 q 324 392 362 418 q 214 250 231 329 q 212 225 212 238 q 244 162 212 182 q 328 142 277 142 q 422 177 379 142 q 481 267 465 213 l 656 239 q 521 50 619 124 q 294 -24 423 -24 q 56 73 132 -24 q 17 191 17 122 q 47 324 17 265 q 104 412 78 383 q 161 464 131 440 q 220 507 191 488 q 273 544 249 526 q 338 632 328 585 m 600 926 q 554 829 600 867 q 465 791 508 791 q 397 816 422 791 q 372 879 372 841 q 417 976 372 939 q 506 1014 463 1014 q 574 989 549 1014 q 600 926 600 964 z "},"À":{"ha":964,"x_min":14,"x_max":934,"o":"m 730 1040 l 553 1184 q 544 1202 544 1192 q 553 1247 544 1227 q 639 1317 581 1301 q 654 1319 646 1319 q 669 1312 663 1319 l 826 1145 q 829 1137 829 1142 q 819 1100 829 1116 q 782 1058 806 1075 q 743 1036 752 1036 q 730 1040 734 1036 m 637 762 l 446 421 l 682 421 l 637 762 m 789 987 l 934 0 l 723 0 l 686 259 l 372 259 l 224 0 l 14 0 l 578 987 l 789 987 z "},"Á":{"ha":964,"x_min":14,"x_max":977,"o":"m 713 1040 q 705 1036 707 1036 q 659 1072 682 1036 q 651 1099 653 1081 q 663 1145 648 1136 l 889 1312 q 907 1319 898 1319 q 968 1280 944 1319 q 977 1249 977 1267 q 952 1184 977 1201 l 713 1040 m 637 762 l 446 421 l 682 421 l 637 762 m 789 987 l 934 0 l 723 0 l 686 259 l 372 259 l 224 0 l 14 0 l 578 987 l 789 987 z "},"Â":{"ha":876,"x_min":14,"x_max":974,"o":"m 637 762 l 446 421 l 682 421 l 637 762 m 789 987 l 934 0 l 723 0 l 686 259 q 372 259 686 259 l 224 0 l 14 0 l 578 987 l 789 987 m 974 1058 l 790 1058 l 724 1167 l 616 1060 l 429 1060 l 671 1291 l 831 1291 l 974 1058 z "},"Ã":{"ha":876,"x_min":14,"x_max":960,"o":"m 637 762 l 446 421 l 682 421 l 637 762 m 789 987 l 934 0 l 723 0 l 686 259 q 372 259 686 259 l 224 0 l 14 0 l 578 987 l 789 987 m 520 1230 q 548 1250 522 1231 q 585 1276 574 1270 q 618 1291 595 1282 q 659 1300 640 1300 q 694 1290 677 1300 q 726 1264 711 1279 q 754 1233 740 1249 q 817 1197 788 1197 q 875 1212 846 1197 q 917 1236 904 1226 q 960 1270 930 1246 l 923 1093 q 899 1076 919 1090 q 865 1054 878 1061 q 794 1029 825 1029 q 738 1046 762 1029 q 696 1081 713 1062 q 660 1116 680 1100 q 621 1133 640 1133 q 584 1126 603 1133 q 553 1112 565 1119 q 518 1089 541 1105 q 485 1067 496 1074 l 520 1230 z "},"Ä":{"ha":876,"x_min":14,"x_max":989,"o":"m 637 762 l 446 421 l 682 421 l 637 762 m 789 987 l 934 0 l 723 0 l 686 259 q 372 259 686 259 l 224 0 l 14 0 l 578 987 l 789 987 m 443 1104 q 489 1202 443 1164 q 580 1239 534 1239 q 648 1211 626 1239 q 670 1161 670 1183 q 625 1054 670 1090 q 533 1017 579 1017 q 465 1045 487 1017 q 443 1104 443 1073 m 762 1104 q 808 1202 762 1164 q 899 1239 853 1239 q 967 1211 945 1239 q 989 1161 989 1183 q 944 1054 989 1090 q 852 1017 898 1017 q 784 1045 806 1017 q 762 1104 762 1073 z "},"Å":{"ha":876,"x_min":14,"x_max":956,"o":"m 637 762 l 446 421 l 682 421 l 637 762 m 789 987 l 934 0 l 723 0 l 686 259 q 372 259 686 259 l 224 0 l 14 0 l 578 987 l 789 987 m 837 1232 q 815 1289 837 1267 q 755 1312 793 1312 q 676 1277 717 1312 q 636 1197 636 1242 q 658 1131 636 1153 q 718 1108 680 1108 q 791 1138 756 1108 q 837 1232 837 1178 m 521 1210 q 616 1360 540 1298 q 776 1421 692 1421 q 908 1374 859 1421 q 956 1254 956 1326 q 857 1060 956 1141 q 698 998 781 998 q 565 1046 614 998 q 516 1166 516 1094 q 521 1210 516 1189 z "},"Æ":{"ha":1078,"x_min":7,"x_max":1208,"o":"m 642 404 l 453 404 l 209 0 l 7 0 l 607 987 l 1208 987 l 1173 816 l 909 816 l 857 570 l 1120 570 l 1084 400 l 820 400 l 771 170 l 1035 170 l 999 0 l 555 0 l 642 404 m 741 872 l 542 569 l 676 569 l 741 872 z "},"Ç":{"ha":827,"x_min":163,"x_max":1027,"o":"m 826 657 q 758 814 826 759 q 672 844 722 844 q 577 824 621 844 q 502 769 534 803 q 443 688 469 735 q 375 511 395 604 q 355 339 355 418 q 395 202 355 261 q 516 143 435 143 q 661 199 597 143 q 756 328 725 256 l 956 328 q 791 95 913 202 q 652 12 732 44 q 495 -20 572 -20 q 361 0 417 -20 q 269 55 305 20 q 208 136 233 89 q 163 345 163 223 q 298 773 163 576 q 539 975 397 918 q 694 1007 618 1007 q 825 988 770 1007 q 916 937 879 969 q 978 863 952 905 q 1027 685 1027 783 q 1026 657 1027 675 l 826 657 m 291 -235 q 303 -229 294 -234 q 317 -222 312 -224 q 332 -215 322 -220 q 347 -206 341 -210 q 360 -198 353 -203 q 374 -188 368 -193 q 384 -179 379 -184 q 400 -136 400 -164 q 382 -85 400 -108 l 506 -24 q 552 -135 552 -74 q 549 -164 552 -151 q 360 -316 534 -235 q 349 -321 353 -320 l 291 -235 z "},"È":{"ha":821,"x_min":78,"x_max":954,"o":"m 700 1040 l 522 1184 q 514 1204 514 1191 q 524 1248 514 1229 q 608 1317 550 1301 q 624 1319 615 1319 q 639 1312 632 1319 l 795 1145 q 798 1137 798 1142 q 789 1100 798 1116 q 751 1058 775 1075 q 712 1036 722 1036 q 700 1040 703 1036 m 288 987 l 954 987 l 919 825 l 435 825 l 385 587 l 826 587 l 791 425 l 350 425 l 294 163 l 779 163 l 744 0 l 78 0 l 288 987 z "},"É":{"ha":821,"x_min":78,"x_max":954,"o":"m 652 1040 q 644 1036 646 1036 q 597 1072 621 1036 q 590 1099 592 1081 q 602 1145 587 1136 l 828 1312 q 846 1319 837 1319 q 907 1280 883 1319 q 916 1249 916 1266 q 891 1184 916 1201 l 652 1040 m 288 987 l 954 987 l 919 825 l 435 825 l 385 587 l 826 587 l 791 425 l 350 425 l 294 163 l 779 163 l 744 0 l 78 0 l 288 987 z "},"Ê":{"ha":780,"x_min":78,"x_max":954,"o":"m 288 987 l 954 987 l 919 825 l 435 825 l 385 587 l 826 587 l 791 425 l 350 425 l 294 163 l 779 163 l 744 0 l 78 0 l 288 987 m 933 1042 l 749 1042 l 683 1152 l 576 1044 l 388 1044 l 630 1276 l 790 1276 l 933 1042 z "},"Ë":{"ha":780,"x_min":78,"x_max":958,"o":"m 288 987 l 954 987 l 919 825 l 435 825 l 385 587 l 826 587 l 791 425 l 350 425 l 294 163 l 779 163 l 744 0 l 78 0 l 288 987 m 410 1118 q 456 1216 410 1179 q 548 1253 502 1253 q 616 1224 594 1253 q 638 1174 638 1196 q 592 1067 638 1105 q 500 1030 547 1030 q 432 1058 454 1030 q 410 1118 410 1086 m 730 1118 q 775 1216 730 1179 q 867 1253 821 1253 q 935 1224 913 1253 q 958 1174 958 1196 q 911 1067 958 1105 q 820 1030 865 1030 q 752 1059 774 1030 q 730 1118 730 1087 z "},"Ì":{"ha":452,"x_min":97,"x_max":515,"o":"m 417 1040 l 239 1184 q 231 1202 231 1192 q 240 1247 231 1227 q 326 1317 267 1301 q 341 1319 332 1319 q 356 1312 349 1319 l 513 1145 q 515 1137 515 1142 q 506 1100 515 1116 q 469 1058 492 1075 q 430 1036 439 1036 q 417 1040 420 1036 m 97 0 l 307 987 l 488 987 l 279 0 l 97 0 z "},"Í":{"ha":452,"x_min":97,"x_max":662,"o":"m 398 1040 q 390 1036 393 1036 q 344 1072 365 1036 q 336 1099 338 1081 q 348 1145 333 1136 l 574 1312 q 592 1319 583 1319 q 653 1280 629 1319 q 662 1249 662 1267 q 637 1184 662 1201 l 398 1040 m 97 0 l 307 987 l 488 987 l 279 0 l 97 0 z "},"Î":{"ha":452,"x_min":97,"x_max":679,"o":"m 97 0 l 307 987 l 488 987 l 279 0 l 97 0 m 679 1042 l 495 1042 l 429 1152 l 321 1044 l 134 1044 l 376 1276 l 536 1276 l 679 1042 z "},"Ï":{"ha":452,"x_min":97,"x_max":706,"o":"m 97 0 l 307 987 l 488 987 l 279 0 l 97 0 m 159 1128 q 205 1225 159 1188 q 297 1263 251 1263 q 365 1235 342 1263 q 387 1185 387 1207 q 340 1078 387 1115 q 249 1040 294 1040 q 181 1068 203 1040 q 159 1128 159 1097 m 478 1128 q 524 1225 478 1188 q 616 1263 570 1263 q 684 1235 662 1263 q 706 1185 706 1207 q 660 1078 706 1115 q 568 1040 614 1040 q 500 1068 522 1040 q 478 1128 478 1097 z "},"Ð":{"ha":1004,"x_min":176,"x_max":1039,"o":"m 264 415 l 180 415 l 214 577 l 299 577 l 386 987 l 682 987 q 944 885 849 987 q 1039 619 1039 783 q 951 300 1039 452 q 663 38 845 114 q 472 0 570 0 l 176 0 l 264 415 m 446 415 l 393 165 l 507 165 q 719 256 624 165 q 844 493 814 348 q 854 587 854 543 q 798 758 854 694 q 646 821 742 821 l 532 821 l 480 577 l 648 577 l 613 415 l 446 415 z "},"Ñ":{"ha":876,"x_min":78,"x_max":1034,"o":"m 78 0 l 288 987 l 464 987 l 718 350 l 852 987 l 1034 987 l 825 0 l 646 0 l 400 660 l 260 0 l 78 0 m 476 1216 q 498 1232 481 1219 q 526 1252 515 1245 q 553 1268 536 1259 q 611 1286 585 1286 q 659 1270 637 1286 q 696 1234 681 1253 q 781 1183 738 1183 q 819 1190 804 1183 q 839 1200 833 1198 q 853 1209 844 1202 q 867 1218 863 1215 q 881 1227 871 1220 q 892 1237 890 1235 q 916 1255 909 1249 l 879 1079 q 854 1062 875 1076 q 821 1039 834 1047 q 752 1015 781 1015 q 703 1026 723 1015 q 668 1052 683 1036 q 639 1082 652 1067 q 583 1118 606 1118 q 541 1112 559 1118 q 510 1098 522 1105 q 475 1075 498 1090 q 441 1053 452 1059 l 476 1216 z "},"Ò":{"ha":913,"x_min":157,"x_max":1022,"o":"m 787 393 q 831 622 831 516 q 665 844 831 844 q 436 688 524 844 q 369 511 389 604 q 349 339 349 418 q 388 202 349 261 q 515 143 428 143 q 743 298 656 143 q 787 393 770 345 m 157 345 q 292 773 157 576 q 532 975 390 918 q 690 1007 611 1007 q 825 987 769 1007 q 917 933 881 967 q 978 852 954 899 q 1022 643 1022 765 q 962 351 1022 499 q 784 95 901 199 q 648 12 726 43 q 490 -20 569 -20 q 354 0 410 -20 q 262 55 298 20 q 201 136 226 89 q 157 345 157 223 m 773 1308 l 595 1452 q 587 1471 587 1461 q 589 1492 587 1482 q 649 1571 597 1539 q 690 1587 675 1587 q 712 1580 705 1587 l 869 1413 q 871 1405 871 1410 q 863 1368 871 1384 q 825 1326 848 1343 q 786 1304 795 1304 q 773 1308 777 1304 z "},"Ó":{"ha":913,"x_min":157,"x_max":1022,"o":"m 703 1040 l 525 1184 q 517 1204 517 1191 q 526 1248 517 1229 q 611 1317 553 1301 q 626 1319 618 1319 q 642 1312 635 1319 l 798 1145 q 801 1137 801 1142 q 792 1100 801 1116 q 754 1058 778 1075 q 715 1036 724 1036 q 703 1040 706 1036 m 787 393 q 831 622 831 516 q 665 844 831 844 q 436 688 524 844 q 369 511 389 604 q 349 339 349 418 q 388 202 349 261 q 515 143 428 143 q 743 298 656 143 q 787 393 770 345 m 157 345 q 292 773 157 576 q 532 975 390 918 q 690 1007 611 1007 q 825 987 769 1007 q 917 933 881 967 q 978 852 954 899 q 1022 643 1022 765 q 962 351 1022 499 q 784 95 901 199 q 648 12 726 43 q 490 -20 569 -20 q 354 0 410 -20 q 262 55 298 20 q 201 136 226 89 q 157 345 157 223 z "},"Ô":{"ha":913,"x_min":157,"x_max":1022,"o":"m 709 1040 q 701 1036 703 1036 q 654 1072 677 1036 q 647 1099 649 1081 q 659 1145 644 1136 l 885 1312 q 903 1319 894 1319 q 964 1280 940 1319 q 972 1249 972 1266 q 948 1184 972 1201 l 709 1040 m 787 393 q 831 622 831 516 q 665 844 831 844 q 436 688 524 844 q 369 511 389 604 q 349 339 349 418 q 388 202 349 261 q 515 143 428 143 q 743 298 656 143 q 787 393 770 345 m 157 345 q 292 773 157 576 q 532 975 390 918 q 690 1007 611 1007 q 825 987 769 1007 q 917 933 881 967 q 978 852 954 899 q 1022 643 1022 765 q 962 351 1022 499 q 784 95 901 199 q 648 12 726 43 q 490 -20 569 -20 q 354 0 410 -20 q 262 55 298 20 q 201 136 226 89 q 157 345 157 223 z "},"Õ":{"ha":913,"x_min":157,"x_max":1022,"o":"m 787 393 q 831 622 831 516 q 665 844 831 844 q 436 688 524 844 q 369 511 389 604 q 349 339 349 418 q 388 202 349 261 q 515 143 428 143 q 743 298 656 143 q 787 393 770 345 m 157 345 q 292 773 157 576 q 532 975 390 918 q 690 1007 611 1007 q 825 987 769 1007 q 917 933 881 967 q 978 852 954 899 q 1022 643 1022 765 q 962 351 1022 499 q 784 95 901 199 q 648 12 726 43 q 490 -20 569 -20 q 354 0 410 -20 q 262 55 298 20 q 201 136 226 89 q 157 345 157 223 m 541 1251 q 563 1267 546 1254 q 590 1286 580 1280 q 617 1302 601 1293 q 673 1320 649 1320 q 715 1310 698 1320 q 747 1284 732 1299 q 775 1253 761 1269 q 845 1217 809 1217 q 883 1225 868 1217 q 903 1235 898 1232 q 918 1243 908 1237 q 931 1252 927 1250 q 945 1262 935 1255 q 958 1271 955 1270 q 981 1290 974 1283 l 943 1114 q 919 1096 939 1111 q 886 1074 899 1082 q 814 1050 846 1050 q 758 1066 783 1050 q 717 1101 733 1082 q 680 1137 701 1120 q 642 1153 660 1153 q 604 1146 623 1153 q 573 1132 585 1139 q 539 1110 562 1125 q 506 1087 517 1095 l 541 1251 z "},"Ö":{"ha":913,"x_min":157,"x_max":1022,"o":"m 787 393 q 831 622 831 516 q 665 844 831 844 q 436 688 524 844 q 369 511 389 604 q 349 339 349 418 q 388 202 349 261 q 515 143 428 143 q 743 298 656 143 q 787 393 770 345 m 157 345 q 292 773 157 576 q 532 975 390 918 q 690 1007 611 1007 q 825 987 769 1007 q 917 933 881 967 q 978 852 954 899 q 1022 643 1022 765 q 962 351 1022 499 q 784 95 901 199 q 648 12 726 43 q 490 -20 569 -20 q 354 0 410 -20 q 262 55 298 20 q 201 136 226 89 q 157 345 157 223 m 458 1155 q 505 1253 458 1215 q 597 1290 551 1290 q 665 1262 643 1290 q 686 1212 686 1234 q 641 1104 686 1141 q 549 1067 595 1067 q 481 1096 503 1067 q 458 1155 458 1125 m 778 1155 q 824 1253 778 1215 q 916 1290 869 1290 q 984 1262 962 1290 q 1006 1212 1006 1234 q 960 1104 1006 1141 q 868 1067 914 1067 q 800 1096 823 1067 q 778 1155 778 1125 z "},"×":{"ha":565,"x_min":108,"x_max":659,"o":"m 108 311 l 262 439 l 146 583 l 286 699 l 401 555 l 566 694 l 659 579 l 492 440 l 602 304 l 463 188 l 354 325 l 199 196 l 108 311 z "},"Ø":{"ha":966,"x_min":160,"x_max":1025,"o":"m 233 92 q 160 364 160 184 q 218 643 160 500 q 399 901 283 801 q 703 1010 528 1010 q 809 994 771 1010 l 818 1013 l 1002 1013 l 941 914 q 1025 655 1025 820 q 898 236 1025 433 q 794 109 852 165 q 655 17 737 54 q 498 -20 573 -20 q 369 -4 422 -20 l 357 -20 l 164 -20 l 233 92 m 464 151 q 477 149 469 151 q 530 144 494 144 q 612 169 566 144 q 690 230 658 193 q 749 315 723 267 q 814 486 795 399 q 832 624 832 572 q 822 724 832 677 l 464 151 m 711 842 l 669 847 q 433 686 520 847 q 353 370 353 538 q 360 289 353 318 l 711 842 z "},"Ù":{"ha":880,"x_min":148,"x_max":996,"o":"m 673 1040 l 495 1184 q 487 1204 487 1191 q 496 1248 487 1229 q 581 1317 523 1301 q 597 1319 589 1319 q 612 1312 605 1319 l 768 1145 q 771 1137 771 1142 q 762 1100 771 1116 q 724 1058 748 1075 q 685 1036 694 1036 q 673 1040 676 1036 m 427 -24 q 219 54 290 -24 q 148 267 148 132 q 163 397 148 329 l 288 987 l 469 987 l 345 397 q 333 285 333 342 q 363 183 333 228 q 462 139 394 139 q 636 254 569 139 q 690 397 673 317 l 814 987 l 996 987 l 871 397 q 714 92 831 208 q 427 -24 597 -24 z "},"Ú":{"ha":880,"x_min":148,"x_max":996,"o":"m 665 1040 q 657 1036 660 1036 q 611 1072 634 1036 q 604 1099 606 1081 q 615 1145 600 1136 l 842 1312 q 859 1319 850 1319 q 920 1280 897 1319 q 929 1249 929 1266 q 905 1184 929 1201 l 665 1040 m 427 -24 q 219 54 290 -24 q 148 267 148 132 q 163 397 148 329 l 288 987 l 469 987 l 345 397 q 333 285 333 342 q 363 183 333 228 q 462 139 394 139 q 636 254 569 139 q 690 397 673 317 l 814 987 l 996 987 l 871 397 q 714 92 831 208 q 427 -24 597 -24 z "},"Û":{"ha":880,"x_min":148,"x_max":996,"o":"m 427 -24 q 219 54 290 -24 q 148 267 148 132 q 163 397 148 329 l 288 987 l 469 987 l 345 397 q 333 285 333 342 q 363 183 333 228 q 462 139 394 139 q 636 254 569 139 q 690 397 673 317 l 814 987 l 996 987 l 871 397 q 714 92 831 208 q 427 -24 597 -24 m 944 1062 l 760 1062 l 694 1171 l 587 1064 l 399 1064 l 641 1295 l 801 1295 l 944 1062 z "},"Ü":{"ha":880,"x_min":148,"x_max":996,"o":"m 427 -24 q 219 54 290 -24 q 148 267 148 132 q 163 397 148 329 l 288 987 l 469 987 l 345 397 q 333 285 333 342 q 363 183 333 228 q 462 139 394 139 q 636 254 569 139 q 690 397 673 317 l 814 987 l 996 987 l 871 397 q 714 92 831 208 q 427 -24 597 -24 m 417 1130 q 463 1228 417 1191 q 555 1265 509 1265 q 623 1236 601 1265 q 645 1186 645 1208 q 599 1080 645 1117 q 507 1042 553 1042 q 439 1071 461 1042 q 417 1130 417 1099 m 736 1130 q 782 1228 736 1191 q 873 1265 827 1265 q 942 1236 920 1265 q 964 1186 964 1208 q 918 1080 964 1117 q 826 1042 872 1042 q 759 1071 781 1042 q 736 1130 736 1099 z "},"Ý":{"ha":800,"x_min":255,"x_max":1063,"o":"m 255 987 l 486 987 l 591 665 l 833 987 l 1063 987 l 641 468 l 541 0 l 359 0 l 459 468 l 255 987 m 694 1285 q 650 1320 669 1285 q 646 1385 632 1350 q 653 1394 648 1390 l 880 1561 q 897 1568 888 1568 q 958 1529 935 1568 q 967 1499 967 1516 q 943 1433 967 1451 l 703 1289 q 694 1285 698 1285 z "},"Þ":{"ha":939,"x_min":92,"x_max":843,"o":"m 349 357 q 654 509 621 357 q 657 536 657 524 q 412 652 657 652 l 349 357 m 301 987 l 483 987 l 446 813 q 843 578 843 813 q 793 395 843 484 q 641 254 745 308 q 315 195 526 195 l 273 0 l 92 0 l 301 987 z "},"ß":{"ha":855,"x_min":42,"x_max":911,"o":"m 380 153 q 430 132 399 132 q 591 165 525 132 q 673 271 657 199 q 675 298 675 283 q 618 400 675 359 q 460 440 562 440 l 440 441 q 441 443 441 441 q 443 448 442 446 q 445 454 444 451 q 453 471 447 459 l 484 572 q 612 595 559 572 q 693 651 666 618 q 736 781 736 701 q 624 878 736 878 q 421 773 493 878 q 353 566 395 736 q 268 220 311 395 q 200 0 225 45 l 42 0 q 156 420 81 62 q 221 683 184 554 q 290 854 258 812 q 658 1036 422 1036 q 844 973 777 1036 q 911 804 911 909 q 902 728 911 770 q 837 588 883 640 q 743 520 791 536 q 813 458 778 513 q 849 328 849 403 q 843 271 849 300 q 762 109 823 175 q 415 -20 644 -20 q 285 16 311 -20 l 380 153 z "},"à":{"ha":703,"x_min":106,"x_max":762,"o":"m 552 804 l 374 948 q 366 968 366 955 q 376 1012 366 993 q 460 1081 402 1065 q 476 1083 468 1083 q 491 1076 484 1083 l 648 909 q 650 901 650 906 q 642 864 650 880 q 604 822 627 839 q 565 800 574 800 q 552 804 555 800 m 547 264 q 518 329 547 303 q 434 355 490 355 q 332 321 378 355 q 275 222 275 278 q 306 156 275 182 q 394 130 338 130 q 492 163 450 130 q 547 264 547 204 m 450 608 q 295 572 384 608 l 249 684 q 354 728 284 708 q 475 747 425 747 q 567 740 526 747 q 644 714 608 732 q 707 669 681 696 q 762 509 762 610 q 751 413 762 467 l 663 0 l 489 0 l 509 92 q 428 15 485 49 q 293 -20 371 -20 q 161 37 216 -20 q 106 182 106 93 q 113 243 106 213 q 223 428 136 354 q 412 503 311 503 q 523 468 479 503 q 570 391 566 434 l 583 446 q 588 494 588 470 q 450 608 588 608 z "},"á":{"ha":703,"x_min":106,"x_max":762,"o":"m 491 802 q 483 799 486 799 q 437 835 457 799 q 430 863 431 845 q 441 907 426 898 l 668 1075 q 685 1082 677 1082 q 747 1043 723 1082 q 755 1012 755 1029 q 731 947 755 964 l 491 802 m 547 264 q 518 329 547 303 q 434 355 490 355 q 332 321 378 355 q 275 222 275 278 q 306 156 275 182 q 394 130 338 130 q 492 163 450 130 q 547 264 547 204 m 450 608 q 295 572 384 608 l 249 684 q 354 728 284 708 q 475 747 425 747 q 567 740 526 747 q 644 714 608 732 q 707 669 681 696 q 762 509 762 610 q 751 413 762 467 l 663 0 l 489 0 l 509 92 q 428 15 485 49 q 293 -20 371 -20 q 161 37 216 -20 q 106 182 106 93 q 113 243 106 213 q 223 428 136 354 q 412 503 311 503 q 523 468 479 503 q 570 391 566 434 l 583 446 q 588 494 588 470 q 450 608 588 608 z "},"â":{"ha":703,"x_min":106,"x_max":795,"o":"m 547 264 q 518 329 547 303 q 434 355 490 355 q 332 321 378 355 q 275 222 275 278 q 306 156 275 182 q 394 130 338 130 q 492 163 450 130 q 547 264 547 204 m 450 608 q 295 572 384 608 l 249 684 q 354 728 284 708 q 475 747 425 747 q 567 740 526 747 q 644 714 608 732 q 707 669 681 696 q 762 509 762 610 q 751 413 762 467 l 663 0 l 489 0 l 509 92 q 428 15 485 49 q 293 -20 371 -20 q 161 37 216 -20 q 106 182 106 93 q 113 243 106 213 q 223 428 136 354 q 412 503 311 503 q 523 468 479 503 q 570 391 566 434 l 583 446 q 588 494 588 470 q 450 608 588 608 m 795 772 l 611 772 l 545 881 l 438 774 l 250 774 l 492 1005 l 652 1005 l 795 772 z "},"ã":{"ha":703,"x_min":106,"x_max":819,"o":"m 547 264 q 518 329 547 303 q 434 355 490 355 q 332 321 378 355 q 275 222 275 278 q 306 156 275 182 q 394 130 338 130 q 492 163 450 130 q 547 264 547 204 m 450 608 q 295 572 384 608 l 249 684 q 354 728 284 708 q 475 747 425 747 q 567 740 526 747 q 644 714 608 732 q 707 669 681 696 q 762 509 762 610 q 751 413 762 467 l 663 0 l 489 0 l 509 92 q 428 15 485 49 q 293 -20 371 -20 q 161 37 216 -20 q 106 182 106 93 q 113 243 106 213 q 223 428 136 354 q 412 503 311 503 q 523 468 479 503 q 570 391 566 434 l 583 446 q 588 494 588 470 q 450 608 588 608 m 378 976 q 401 992 384 979 q 428 1012 418 1005 q 455 1028 439 1019 q 513 1046 487 1046 q 562 1029 540 1046 q 598 994 583 1013 q 682 943 640 943 q 733 957 704 943 q 775 982 762 972 q 819 1015 789 992 l 781 839 q 757 822 777 836 q 724 799 736 807 q 654 775 684 775 q 605 786 625 775 q 570 811 585 796 q 541 842 555 827 q 484 878 507 878 q 442 871 461 878 q 411 858 423 865 q 377 835 399 850 q 344 812 355 820 l 378 976 z "},"ä":{"ha":703,"x_min":106,"x_max":844,"o":"m 547 264 q 518 329 547 303 q 434 355 490 355 q 332 321 378 355 q 275 222 275 278 q 306 156 275 182 q 394 130 338 130 q 492 163 450 130 q 547 264 547 204 m 450 608 q 295 572 384 608 l 249 684 q 354 728 284 708 q 475 747 425 747 q 567 740 526 747 q 644 714 608 732 q 707 669 681 696 q 762 509 762 610 q 751 413 762 467 l 663 0 l 489 0 l 509 92 q 428 15 485 49 q 293 -20 371 -20 q 161 37 216 -20 q 106 182 106 93 q 113 243 106 213 q 223 428 136 354 q 412 503 311 503 q 523 468 479 503 q 570 391 566 434 l 583 446 q 588 494 588 470 q 450 608 588 608 m 296 879 q 342 977 296 939 q 434 1014 388 1014 q 502 986 480 1014 q 524 936 524 958 q 478 829 524 866 q 387 791 433 791 q 318 820 340 791 q 296 879 296 848 m 616 879 q 662 977 616 939 q 754 1014 708 1014 q 822 986 800 1014 q 844 936 844 958 q 798 829 844 866 q 706 791 751 791 q 638 820 660 791 q 616 879 616 848 z "},"å":{"ha":703,"x_min":106,"x_max":789,"o":"m 547 264 q 518 329 547 303 q 434 355 490 355 q 332 321 378 355 q 275 222 275 278 q 306 156 275 182 q 394 130 338 130 q 492 163 450 130 q 547 264 547 204 m 450 608 q 295 572 384 608 l 249 684 q 354 728 284 708 q 475 747 425 747 q 567 740 526 747 q 644 714 608 732 q 707 669 681 696 q 762 509 762 610 q 751 413 762 467 l 663 0 l 489 0 l 509 92 q 428 15 485 49 q 293 -20 371 -20 q 161 37 216 -20 q 106 182 106 93 q 113 243 106 213 q 223 428 136 354 q 412 503 311 503 q 523 468 479 503 q 570 391 566 434 l 583 446 q 588 494 588 470 q 450 608 588 608 m 669 989 q 648 1046 669 1024 q 588 1069 626 1069 q 509 1034 549 1069 q 468 954 468 998 q 490 888 468 910 q 550 865 512 865 q 623 895 589 865 q 669 989 669 935 m 353 967 q 448 1117 372 1055 q 608 1179 524 1179 q 740 1131 691 1179 q 789 1011 789 1084 q 689 817 789 899 q 530 755 614 755 q 398 803 447 755 q 349 924 349 851 q 353 967 349 946 z "},"æ":{"ha":1196,"x_min":106,"x_max":1213,"o":"m 547 264 q 518 329 547 303 q 434 355 490 355 q 332 321 378 355 q 275 222 275 278 q 306 156 275 182 q 394 130 338 130 q 492 163 450 130 q 547 264 547 204 m 450 608 q 295 572 384 608 l 249 684 q 354 728 284 708 q 479 747 425 747 q 726 644 658 747 q 961 745 840 745 q 1147 669 1082 745 q 1213 471 1213 594 q 1200 364 1213 420 l 1191 318 l 741 318 q 734 254 734 286 q 746 197 734 223 q 776 159 757 171 q 848 136 810 136 q 962 181 916 136 l 1103 115 q 967 16 1047 51 q 809 -20 887 -20 q 668 24 732 -20 l 663 0 l 489 0 l 509 92 q 428 15 485 49 q 293 -20 371 -20 q 161 37 216 -20 q 106 182 106 93 q 113 243 106 213 q 223 428 136 354 q 412 503 311 503 q 523 468 479 503 q 571 391 566 434 q 574 408 571 392 q 588 494 588 469 q 450 608 588 608 m 767 441 l 1047 441 q 1049 467 1049 455 q 1021 554 1049 520 q 935 589 992 589 q 831 545 878 589 q 767 441 784 501 z "},"ç":{"ha":574,"x_min":123,"x_max":789,"o":"m 629 513 q 528 590 601 590 q 395 525 456 590 q 313 361 334 460 q 305 296 305 325 q 342 181 305 224 q 440 138 379 138 q 497 149 481 138 q 518 162 513 159 q 531 174 522 165 q 542 186 540 184 q 552 200 544 189 q 562 214 561 212 l 691 138 q 562 26 637 72 q 407 -20 488 -20 q 198 53 272 -20 q 123 254 123 126 q 135 361 123 308 q 290 639 172 532 q 556 746 408 746 q 700 703 635 746 q 789 589 764 660 l 629 513 m 164 -232 q 176 -226 167 -231 q 190 -219 185 -221 q 205 -211 195 -216 q 220 -203 214 -206 q 234 -194 226 -199 q 247 -185 241 -189 q 258 -176 252 -180 q 273 -133 273 -161 q 256 -81 273 -104 l 379 -20 q 425 -132 425 -71 q 422 -161 425 -147 q 233 -313 407 -232 q 222 -318 226 -317 l 164 -232 z "},"è":{"ha":741,"x_min":127,"x_max":785,"o":"m 556 804 l 378 948 q 370 968 370 955 q 380 1012 370 993 q 465 1081 406 1065 q 480 1083 472 1083 q 495 1076 488 1083 l 652 909 q 654 901 654 906 q 646 864 654 880 q 608 822 631 839 q 569 800 578 800 q 556 804 559 800 m 340 441 l 620 441 q 622 467 622 455 q 593 554 622 520 q 508 589 565 589 q 404 545 450 589 q 340 441 357 501 m 421 136 q 535 181 488 136 l 675 115 q 540 16 620 51 q 388 -20 460 -20 q 200 60 273 -20 q 127 269 127 140 q 222 559 127 425 q 370 696 285 647 q 555 745 454 745 q 720 669 655 745 q 785 471 785 594 q 773 364 785 420 l 764 318 l 313 318 q 307 254 307 286 q 318 197 307 223 q 349 159 330 171 q 421 136 382 136 z "},"é":{"ha":741,"x_min":127,"x_max":785,"o":"m 514 802 q 506 799 509 799 q 460 835 482 799 q 453 863 454 845 q 464 907 449 898 l 691 1075 q 709 1082 700 1082 q 770 1043 746 1082 q 779 1012 779 1029 q 754 947 779 964 l 514 802 m 340 441 l 620 441 q 622 467 622 455 q 593 554 622 520 q 508 589 565 589 q 404 545 450 589 q 340 441 357 501 m 421 136 q 535 181 488 136 l 675 115 q 540 16 620 51 q 388 -20 460 -20 q 200 60 273 -20 q 127 269 127 140 q 222 559 127 425 q 370 696 285 647 q 555 745 454 745 q 720 669 655 745 q 785 471 785 594 q 773 364 785 420 l 764 318 l 313 318 q 307 254 307 286 q 318 197 307 223 q 349 159 330 171 q 421 136 382 136 z "},"ê":{"ha":654,"x_min":127,"x_max":834,"o":"m 340 441 l 620 441 q 622 467 622 455 q 593 554 622 520 q 508 589 565 589 q 404 545 450 589 q 340 441 357 501 m 421 136 q 535 181 488 136 l 675 115 q 540 16 620 51 q 388 -20 460 -20 q 200 60 273 -20 q 127 269 127 140 q 222 559 127 425 q 370 696 285 647 q 555 745 454 745 q 720 669 655 745 q 785 471 785 594 q 773 364 785 420 l 764 318 l 313 318 q 307 254 307 286 q 318 197 307 223 q 349 159 330 171 q 421 136 382 136 m 834 781 l 650 781 l 584 890 l 477 783 l 290 783 l 531 1015 l 691 1015 l 834 781 z "},"ë":{"ha":654,"x_min":127,"x_max":849,"o":"m 340 441 l 620 441 q 622 467 622 455 q 593 554 622 520 q 508 589 565 589 q 404 545 450 589 q 340 441 357 501 m 421 136 q 535 181 488 136 l 675 115 q 540 16 620 51 q 388 -20 460 -20 q 200 60 273 -20 q 127 269 127 140 q 222 559 127 425 q 370 696 285 647 q 555 745 454 745 q 720 669 655 745 q 785 471 785 594 q 773 364 785 420 l 764 318 l 313 318 q 307 254 307 286 q 318 197 307 223 q 349 159 330 171 q 421 136 382 136 m 302 863 q 348 961 302 924 q 439 998 393 998 q 508 970 486 998 q 530 920 530 943 q 484 813 530 850 q 392 776 438 776 q 324 805 347 776 q 302 863 302 833 m 621 863 q 667 961 621 924 q 760 998 713 998 q 827 970 806 998 q 849 920 849 943 q 803 813 849 850 q 711 776 757 776 q 644 805 666 776 q 621 863 621 833 z "},"ì":{"ha":373,"x_min":94,"x_max":463,"o":"m 249 728 l 424 728 l 269 0 l 94 0 l 249 728 m 364 804 l 186 948 q 178 967 178 957 q 180 989 178 978 q 240 1067 189 1035 q 281 1083 267 1083 q 303 1076 296 1083 l 460 909 q 463 901 463 906 q 453 864 463 880 q 416 822 439 839 q 377 800 386 800 q 364 804 368 800 z "},"í":{"ha":369,"x_min":94,"x_max":608,"o":"m 249 728 l 424 728 l 269 0 l 94 0 l 249 728 m 334 800 q 290 836 313 800 q 286 900 272 864 q 294 909 288 905 l 520 1076 q 538 1083 529 1083 q 599 1044 575 1083 q 608 1013 608 1031 q 583 948 608 966 l 344 804 q 334 800 338 800 z "},"î":{"ha":370,"x_min":79,"x_max":624,"o":"m 624 777 l 440 777 l 374 886 l 267 779 l 79 779 l 321 1010 l 481 1010 l 624 777 m 249 728 l 431 728 l 277 0 l 94 0 l 249 728 z "},"ï":{"ha":372,"x_min":94,"x_max":656,"o":"m 429 874 q 475 971 429 934 q 563 1008 520 1008 q 631 984 606 1008 q 656 921 656 959 q 611 824 656 861 q 522 786 565 786 q 454 811 479 786 q 429 874 429 836 m 110 874 q 155 971 110 934 q 244 1008 201 1008 q 312 984 287 1008 q 337 921 337 959 q 291 824 337 861 q 203 786 245 786 q 135 811 160 786 q 110 874 110 836 m 249 728 l 431 728 l 277 0 l 94 0 l 249 728 z "},"ð":{"ha":720,"x_min":104,"x_max":780,"o":"m 346 436 q 284 253 284 355 q 310 157 284 193 q 366 122 335 122 q 469 182 418 122 q 536 317 520 241 q 541 359 541 338 q 507 454 541 418 q 430 490 473 490 q 346 436 387 490 m 682 833 q 732 717 710 790 q 753 593 753 644 q 750 506 753 543 q 718 343 743 444 q 573 74 683 180 q 341 -33 464 -33 q 161 33 218 -33 q 104 208 104 98 q 117 319 104 258 q 246 553 146 460 q 465 646 346 646 q 548 614 512 646 q 604 542 585 583 q 606 582 606 553 q 590 669 606 612 q 552 753 574 727 l 480 697 l 399 802 l 467 851 q 379 876 437 876 l 378 876 q 304 869 336 876 l 319 1000 q 421 1011 344 1010 l 425 1011 q 528 992 482 1011 q 600 950 574 973 l 696 1025 l 780 900 l 682 833 z "},"ñ":{"ha":739,"x_min":81,"x_max":821,"o":"m 256 0 l 81 0 l 235 728 l 410 728 l 387 618 q 496 711 429 674 q 631 747 564 747 q 746 692 699 747 q 794 541 794 637 q 784 453 794 500 l 688 0 l 513 0 l 590 364 q 606 490 606 436 q 583 566 606 543 q 526 588 559 588 q 472 583 492 588 q 431 562 452 577 q 393 523 410 547 q 333 363 355 470 l 256 0 m 380 985 q 403 1002 386 989 q 430 1021 420 1015 q 457 1038 441 1028 q 515 1055 489 1055 q 564 1039 542 1055 q 601 1004 585 1023 q 684 952 642 952 q 735 967 706 952 q 778 991 764 981 q 821 1025 791 1002 l 783 848 q 759 831 779 846 q 726 808 739 817 q 656 785 686 785 q 607 795 627 785 q 572 821 587 806 q 543 852 557 836 q 486 888 509 888 q 444 881 463 888 q 413 867 425 874 q 379 845 401 860 q 346 822 357 829 l 380 985 z "},"ò":{"ha":780,"x_min":125,"x_max":794,"o":"m 543 802 l 366 947 q 357 964 357 954 q 367 1010 357 990 q 391 1042 377 1029 q 465 1082 431 1082 q 483 1075 476 1082 l 639 907 q 642 899 642 904 q 632 863 642 882 q 595 821 618 837 q 556 799 566 799 q 543 802 547 799 m 311 364 q 299 270 299 308 q 414 140 299 140 q 612 364 564 140 q 623 457 623 420 q 509 587 623 587 q 311 364 357 587 m 140 364 q 283 643 178 541 q 542 746 389 746 q 730 678 665 746 q 794 487 794 610 q 780 364 794 430 q 637 84 742 187 q 379 -20 532 -20 q 191 48 256 -20 q 125 240 125 117 q 140 364 125 297 z "},"ó":{"ha":782,"x_min":125,"x_max":808,"o":"m 544 802 q 536 799 538 799 q 490 835 510 799 q 483 863 484 845 q 494 907 479 898 l 721 1075 q 739 1082 730 1082 q 800 1043 776 1082 q 808 1012 808 1029 q 784 947 808 964 l 544 802 m 311 364 q 299 270 299 308 q 414 140 299 140 q 612 364 564 140 q 623 457 623 420 q 509 587 623 587 q 311 364 357 587 m 140 364 q 283 643 178 541 q 542 746 389 746 q 730 678 665 746 q 794 487 794 610 q 780 364 794 430 q 637 84 742 187 q 379 -20 532 -20 q 191 48 256 -20 q 125 240 125 117 q 140 364 125 297 z "},"ô":{"ha":780,"x_min":125,"x_max":819,"o":"m 311 364 q 299 270 299 308 q 414 140 299 140 q 612 364 564 140 q 623 457 623 420 q 509 587 623 587 q 311 364 357 587 m 140 364 q 283 643 178 541 q 542 746 389 746 q 730 678 665 746 q 794 487 794 610 q 780 364 794 430 q 637 84 742 187 q 379 -20 532 -20 q 191 48 256 -20 q 125 240 125 117 q 140 364 125 297 m 819 774 l 635 774 l 568 884 l 461 777 l 273 777 l 515 1008 l 675 1008 l 819 774 z "},"õ":{"ha":780,"x_min":125,"x_max":817,"o":"m 311 364 q 299 270 299 308 q 414 140 299 140 q 612 364 564 140 q 623 457 623 420 q 509 587 623 587 q 311 364 357 587 m 140 364 q 283 643 178 541 q 542 746 389 746 q 730 678 665 746 q 794 487 794 610 q 780 364 794 430 q 637 84 742 187 q 379 -20 532 -20 q 191 48 256 -20 q 125 240 125 117 q 140 364 125 297 m 376 980 q 399 996 382 983 q 426 1016 416 1009 q 453 1032 437 1023 q 511 1050 485 1050 q 559 1034 538 1050 q 597 998 581 1017 q 681 947 638 947 q 719 954 704 947 q 739 964 734 962 q 753 973 744 966 q 767 982 763 979 q 781 991 771 984 q 793 1001 791 999 q 817 1019 810 1013 l 779 843 q 755 826 775 840 q 722 803 734 811 q 652 779 682 779 q 603 790 623 779 q 568 815 583 800 q 538 846 553 831 q 483 882 506 882 q 441 876 460 882 q 410 862 422 869 q 375 839 398 854 q 342 817 353 823 l 376 980 z "},"ö":{"ha":780,"x_min":125,"x_max":842,"o":"m 311 364 q 299 270 299 308 q 414 140 299 140 q 612 364 564 140 q 623 457 623 420 q 509 587 623 587 q 311 364 357 587 m 140 364 q 283 643 178 541 q 542 746 389 746 q 730 678 665 746 q 794 487 794 610 q 780 364 794 430 q 637 84 742 187 q 379 -20 532 -20 q 191 48 256 -20 q 125 240 125 117 q 140 364 125 297 m 295 871 q 341 968 295 931 q 433 1006 387 1006 q 501 978 479 1006 q 523 928 523 949 q 477 820 523 857 q 386 783 431 783 q 317 812 340 783 q 295 871 295 841 m 614 871 q 661 968 614 931 q 753 1006 707 1006 q 821 978 799 1006 q 842 928 842 949 q 797 820 842 857 q 705 783 751 783 q 637 812 659 783 q 614 871 614 841 z "},"÷":{"ha":680,"x_min":155,"x_max":713,"o":"m 190 518 l 713 518 l 679 355 l 155 355 l 190 518 m 378 661 q 424 758 378 721 q 512 795 469 795 q 581 771 555 795 q 606 708 606 746 q 560 611 606 648 q 472 573 515 573 q 404 598 429 573 q 378 661 378 623 m 273 168 q 319 264 273 227 q 408 302 365 302 q 476 277 451 302 q 500 225 500 252 q 455 117 500 154 q 367 79 410 79 q 299 104 324 79 q 273 168 273 130 z "},"ø":{"ha":708,"x_min":32,"x_max":878,"o":"m 610 431 l 371 150 q 412 136 385 136 q 528 206 472 136 q 603 361 585 275 q 610 412 610 398 q 610 431 610 426 m 552 576 q 517 590 534 590 q 391 519 448 590 q 315 361 334 449 q 310 322 310 338 q 311 300 310 307 l 552 576 m 32 -20 l 155 121 q 128 242 128 174 q 139 361 128 311 q 287 638 176 531 q 551 746 399 746 q 616 736 579 746 q 671 713 652 726 l 700 747 l 878 747 l 763 610 q 791 481 791 551 q 631 88 791 241 q 382 -20 518 -20 q 311 -11 348 -20 q 254 12 274 -3 l 227 -20 l 32 -20 z "},"ù":{"ha":672,"x_min":130,"x_max":835,"o":"m 562 804 l 385 948 q 376 968 376 955 q 386 1012 376 993 q 471 1081 412 1065 q 486 1083 477 1083 q 501 1076 494 1083 l 658 909 q 661 901 661 906 q 651 864 661 880 q 614 822 637 839 q 575 800 584 800 q 562 804 566 800 m 680 0 l 505 0 l 528 109 q 420 17 486 54 q 282 -20 353 -20 q 171 35 212 -20 q 130 177 130 89 q 151 363 130 266 l 228 728 l 403 728 l 326 363 q 313 258 313 302 q 400 140 313 140 q 496 182 448 140 q 582 364 553 231 l 659 728 l 835 728 l 680 0 z "},"ú":{"ha":694,"x_min":130,"x_max":835,"o":"m 530 802 q 522 799 525 799 q 477 835 498 799 q 469 863 471 845 q 480 907 465 898 l 707 1075 q 725 1082 716 1082 q 786 1043 762 1082 q 795 1012 795 1029 q 770 947 795 964 l 530 802 m 680 0 l 505 0 l 528 109 q 420 17 486 54 q 282 -20 353 -20 q 171 35 212 -20 q 130 177 130 89 q 151 363 130 266 l 228 728 l 403 728 l 326 363 q 313 258 313 302 q 400 140 313 140 q 496 182 448 140 q 582 364 553 231 l 659 728 l 835 728 l 680 0 z "},"û":{"ha":694,"x_min":130,"x_max":835,"o":"m 680 0 l 505 0 l 528 109 q 420 17 486 54 q 282 -20 353 -20 q 171 35 212 -20 q 130 177 130 89 q 151 363 130 266 l 228 728 l 403 728 l 326 363 q 313 258 313 302 q 400 140 313 140 q 496 182 448 140 q 582 364 553 231 l 659 728 l 835 728 l 680 0 m 821 797 l 637 797 l 571 906 l 464 799 l 276 799 l 518 1030 l 678 1030 l 821 797 z "},"ü":{"ha":694,"x_min":130,"x_max":842,"o":"m 680 0 l 505 0 l 528 109 q 420 17 486 54 q 282 -20 353 -20 q 171 35 212 -20 q 130 177 130 89 q 151 363 130 266 l 228 728 l 403 728 l 326 363 q 313 258 313 302 q 400 140 313 140 q 496 182 448 140 q 582 364 553 231 l 659 728 l 835 728 l 680 0 m 294 873 q 340 971 294 934 q 433 1008 387 1008 q 500 980 479 1008 q 522 930 522 952 q 471 819 522 860 q 385 786 431 786 q 317 815 339 786 q 294 873 294 844 m 614 873 q 660 971 614 934 q 751 1008 705 1008 q 820 980 798 1008 q 842 930 842 952 q 796 823 842 860 q 704 786 750 786 q 636 815 659 786 q 614 873 614 844 z "},"ý":{"ha":667,"x_min":62,"x_max":835,"o":"m 557 802 q 549 799 552 799 q 504 835 526 799 q 496 863 498 845 q 507 907 492 898 l 734 1075 q 752 1082 743 1082 q 813 1043 789 1082 q 822 1012 822 1029 q 798 947 822 964 l 557 802 m 676 -20 q 601 -161 661 -92 q 461 -273 541 -230 q 294 -315 380 -315 q 144 -268 208 -315 q 62 -152 80 -221 l 217 -76 q 253 -136 222 -113 q 340 -158 285 -158 q 440 -126 395 -158 q 496 -40 485 -94 l 528 109 q 420 17 486 54 q 282 -20 353 -20 q 171 35 212 -20 q 130 177 130 89 q 151 363 130 266 l 228 728 l 403 728 l 326 363 q 313 258 313 302 q 400 140 313 140 q 496 182 448 140 q 582 364 553 231 l 659 728 l 835 728 l 676 -20 z "},"þ":{"ha":741,"x_min":81,"x_max":808,"o":"m 256 0 l 81 0 l 290 986 l 465 986 l 422 786 q 500 865 450 827 q 609 903 551 903 q 715 865 666 903 q 808 626 808 793 q 758 376 808 511 q 526 103 682 169 q 424 79 469 79 q 358 91 379 79 q 324 119 337 102 q 293 175 298 154 q 256 0 270 68 m 621 509 q 629 600 629 547 q 603 700 629 652 q 543 747 577 747 q 435 675 491 747 q 361 523 378 603 q 345 380 345 442 q 368 276 345 318 q 428 235 391 235 q 537 310 479 235 q 621 509 594 385 z "},"ÿ":{"ha":667,"x_min":62,"x_max":835,"o":"m 676 -20 q 601 -161 661 -92 q 461 -273 541 -230 q 294 -315 380 -315 q 144 -268 208 -315 q 62 -152 80 -221 l 217 -76 q 253 -136 222 -113 q 340 -158 285 -158 q 440 -126 395 -158 q 496 -40 485 -94 l 528 109 q 420 17 486 54 q 282 -20 353 -20 q 171 35 212 -20 q 130 177 130 89 q 151 363 130 266 l 228 728 l 403 728 l 326 363 q 313 258 313 302 q 400 140 313 140 q 496 182 448 140 q 582 364 553 231 l 659 728 l 835 728 l 676 -20 m 283 873 q 330 971 283 934 q 422 1008 376 1008 q 490 980 468 1008 q 511 930 511 952 q 460 819 511 860 q 374 786 420 786 q 306 815 328 786 q 283 873 283 844 m 603 873 q 649 971 603 934 q 741 1008 694 1008 q 809 980 787 1008 q 831 930 831 952 q 785 823 831 860 q 693 786 739 786 q 625 815 648 786 q 603 873 603 844 z "},"Ā":{"ha":964,"x_min":14,"x_max":1011,"o":"m 637 762 l 446 421 l 682 421 l 637 762 m 789 987 l 934 0 l 723 0 l 686 259 q 372 259 686 259 l 224 0 l 14 0 l 578 987 l 789 987 m 488 1230 l 1011 1230 l 993 1143 l 469 1143 l 488 1230 z "},"ā":{"ha":732,"x_min":106,"x_max":829,"o":"m 547 264 q 518 329 547 303 q 434 355 490 355 q 332 321 378 355 q 275 222 275 278 q 306 156 275 182 q 394 130 338 130 q 492 163 450 130 q 547 264 547 204 m 450 608 q 295 572 384 608 l 249 684 q 354 728 284 708 q 475 747 425 747 q 567 740 526 747 q 644 714 608 732 q 707 669 681 696 q 762 509 762 610 q 751 413 762 467 l 663 0 l 489 0 l 509 92 q 428 15 485 49 q 293 -20 371 -20 q 161 37 216 -20 q 106 182 106 93 q 113 243 106 213 q 223 428 136 354 q 412 503 311 503 q 523 468 479 503 q 570 391 566 434 l 583 446 q 588 494 588 470 q 450 608 588 608 m 306 960 l 829 960 l 811 874 l 288 874 l 306 960 z "},"Ă":{"ha":964,"x_min":14,"x_max":1010,"o":"m 637 762 l 446 421 l 682 421 l 637 762 m 789 987 l 934 0 l 723 0 l 686 259 q 372 259 686 259 l 224 0 l 14 0 l 578 987 l 789 987 m 925 1137 q 827 1059 887 1090 q 712 1028 766 1028 q 609 1060 658 1028 q 543 1140 561 1091 q 524 1233 524 1190 q 536 1317 524 1276 l 645 1317 q 703 1200 665 1229 q 747 1190 716 1190 q 793 1199 777 1190 q 904 1317 829 1221 l 1010 1317 q 1006 1296 1010 1316 q 925 1137 989 1215 z "},"ă":{"ha":732,"x_min":106,"x_max":833,"o":"m 547 264 q 518 329 547 303 q 434 355 490 355 q 332 321 378 355 q 275 222 275 278 q 306 156 275 182 q 394 130 338 130 q 492 163 450 130 q 547 264 547 204 m 450 608 q 295 572 384 608 l 249 684 q 354 728 284 708 q 475 747 425 747 q 567 740 526 747 q 644 714 608 732 q 707 669 681 696 q 762 509 762 610 q 751 413 762 467 l 663 0 l 489 0 l 509 92 q 428 15 485 49 q 293 -20 371 -20 q 161 37 216 -20 q 106 182 106 93 q 113 243 106 213 q 223 428 136 354 q 412 503 311 503 q 523 468 479 503 q 570 391 566 434 l 583 446 q 588 494 588 470 q 450 608 588 608 m 650 822 q 620 806 650 822 q 535 791 589 791 q 433 822 481 791 q 366 903 385 853 q 348 994 348 952 q 359 1080 348 1036 l 468 1080 q 526 962 488 992 q 570 952 540 952 q 616 962 600 952 q 727 1080 652 984 l 833 1080 q 749 899 827 995 q 650 822 711 852 z "},"Ą":{"ha":964,"x_min":-3,"x_max":918,"o":"m 621 762 l 430 421 l 665 421 l 621 762 m 772 987 l 918 0 l 707 0 l 669 259 q 355 259 669 259 l 208 0 l -3 0 l 562 987 l 772 987 m 917 -147 l 822 -233 q 788 -213 810 -227 q 755 -192 766 -199 q 728 -169 744 -185 q 692 -120 696 -138 q 688 -92 688 -102 q 689 -76 688 -81 q 792 64 705 0 l 889 3 q 853 -40 860 -22 q 844 -70 846 -58 q 851 -95 842 -81 q 886 -127 863 -112 q 917 -147 909 -143 z "},"ą":{"ha":732,"x_min":106,"x_max":762,"o":"m 547 264 q 518 329 547 303 q 434 355 490 355 q 332 321 378 355 q 275 222 275 278 q 306 156 275 182 q 394 130 338 130 q 492 163 450 130 q 547 264 547 204 m 450 608 q 295 572 384 608 l 249 684 q 354 728 284 708 q 475 747 425 747 q 567 740 526 747 q 644 714 608 732 q 707 669 681 696 q 762 509 762 610 q 751 413 762 467 l 663 0 l 489 0 l 509 92 q 428 15 485 49 q 293 -20 371 -20 q 161 37 216 -20 q 106 182 106 93 q 113 243 106 213 q 223 428 136 354 q 412 503 311 503 q 523 468 479 503 q 570 391 566 434 l 583 446 q 588 494 588 470 q 450 608 588 608 m 688 -147 l 593 -233 q 558 -213 581 -227 q 526 -192 536 -199 q 498 -169 515 -185 q 463 -120 467 -138 q 458 -92 458 -102 q 460 -76 458 -81 q 563 64 476 0 l 660 3 q 624 -40 631 -22 q 615 -70 617 -58 q 622 -95 612 -81 q 657 -127 634 -112 q 688 -147 680 -143 z "},"Ć":{"ha":888,"x_min":157,"x_max":1021,"o":"m 819 657 q 751 814 819 759 q 665 844 715 844 q 571 824 614 844 q 495 769 527 803 q 436 688 463 735 q 369 511 389 604 q 349 339 349 418 q 388 202 349 261 q 509 143 428 143 q 654 199 590 143 q 749 328 718 256 l 949 328 q 784 95 907 202 q 645 12 725 44 q 488 -20 566 -20 q 354 0 410 -20 q 262 55 298 20 q 201 136 226 89 q 157 345 157 223 q 292 773 157 576 q 532 975 390 918 q 687 1007 611 1007 q 818 988 764 1007 q 909 937 872 969 q 971 863 945 905 q 1021 685 1021 783 q 1019 657 1021 675 l 819 657 m 683 1036 q 639 1072 661 1036 q 635 1136 621 1100 q 642 1145 637 1141 l 869 1312 q 886 1319 878 1319 q 947 1280 924 1319 q 956 1249 956 1267 q 932 1184 956 1201 l 692 1040 q 683 1036 687 1036 z "},"ć":{"ha":710,"x_min":123,"x_max":827,"o":"m 629 513 q 528 590 601 590 q 395 525 456 590 q 313 361 334 460 q 305 296 305 325 q 342 181 305 224 q 440 138 379 138 q 497 149 481 138 q 518 162 513 159 q 531 174 522 165 q 542 186 540 184 q 552 200 544 189 q 562 214 561 212 l 691 138 q 562 26 637 72 q 407 -20 488 -20 q 198 53 272 -20 q 123 254 123 126 q 135 361 123 308 q 290 639 172 532 q 556 746 408 746 q 700 703 635 746 q 789 589 764 660 l 629 513 m 563 802 q 555 799 557 799 q 509 835 531 799 q 501 865 503 845 l 501 875 q 502 888 501 884 q 513 907 508 905 l 740 1075 q 758 1082 749 1082 q 819 1043 795 1082 q 827 1012 827 1029 q 803 947 827 964 l 563 802 z "},"Ĉ":{"ha":888,"x_min":157,"x_max":1021,"o":"m 819 657 q 751 814 819 759 q 665 844 715 844 q 571 824 614 844 q 495 769 527 803 q 436 688 463 735 q 369 511 389 604 q 349 339 349 418 q 388 202 349 261 q 509 143 428 143 q 654 199 590 143 q 749 328 718 256 l 949 328 q 784 95 907 202 q 645 12 725 44 q 488 -20 566 -20 q 354 0 410 -20 q 262 55 298 20 q 201 136 226 89 q 157 345 157 223 q 292 773 157 576 q 532 975 390 918 q 687 1007 611 1007 q 818 988 764 1007 q 909 937 872 969 q 971 863 945 905 q 1021 685 1021 783 q 1019 657 1021 675 l 819 657 m 985 1059 l 802 1059 l 735 1168 l 629 1061 l 441 1061 l 682 1293 l 842 1293 l 985 1059 z "},"ĉ":{"ha":710,"x_min":123,"x_max":829,"o":"m 629 513 q 528 590 601 590 q 395 525 456 590 q 313 361 334 460 q 305 296 305 325 q 342 181 305 224 q 440 138 379 138 q 497 149 481 138 q 518 162 513 159 q 531 174 522 165 q 542 186 540 184 q 552 200 544 189 q 562 214 561 212 l 691 138 q 562 26 637 72 q 407 -20 488 -20 q 198 53 272 -20 q 123 254 123 126 q 135 361 123 308 q 290 639 172 532 q 556 746 408 746 q 700 703 635 746 q 789 589 764 660 l 629 513 m 829 776 l 645 776 l 578 885 l 472 778 l 284 778 l 526 1009 l 686 1009 l 829 776 z "},"Ċ":{"ha":888,"x_min":157,"x_max":1021,"o":"m 819 657 q 751 814 819 759 q 665 844 715 844 q 571 824 614 844 q 495 769 527 803 q 436 688 463 735 q 369 511 389 604 q 349 339 349 418 q 388 202 349 261 q 509 143 428 143 q 654 199 590 143 q 749 328 718 256 l 949 328 q 784 95 907 202 q 645 12 725 44 q 488 -20 566 -20 q 354 0 410 -20 q 262 55 298 20 q 201 136 226 89 q 157 345 157 223 q 292 773 157 576 q 532 975 390 918 q 687 1007 611 1007 q 818 988 764 1007 q 909 937 872 969 q 971 863 945 905 q 1021 685 1021 783 q 1019 657 1021 675 l 819 657 m 623 1133 q 668 1231 623 1194 q 760 1268 713 1268 q 828 1240 806 1268 q 850 1190 850 1211 q 804 1083 850 1120 q 712 1046 758 1046 q 645 1074 667 1046 q 623 1133 623 1103 z "},"ċ":{"ha":710,"x_min":123,"x_max":789,"o":"m 629 513 q 528 590 601 590 q 395 525 456 590 q 313 361 334 460 q 305 296 305 325 q 342 181 305 224 q 440 138 379 138 q 497 149 481 138 q 518 162 513 159 q 531 174 522 165 q 542 186 540 184 q 552 200 544 189 q 562 214 561 212 l 691 138 q 562 26 637 72 q 407 -20 488 -20 q 198 53 272 -20 q 123 254 123 126 q 135 361 123 308 q 290 639 172 532 q 556 746 408 746 q 700 703 635 746 q 789 589 764 660 l 629 513 m 463 891 q 509 989 463 952 q 601 1026 555 1026 q 669 998 647 1026 q 691 947 691 969 q 645 841 691 878 q 553 804 600 804 q 485 832 507 804 q 463 891 463 860 z "},"Č":{"ha":888,"x_min":157,"x_max":1035,"o":"m 819 657 q 751 814 819 759 q 665 844 715 844 q 571 824 614 844 q 495 769 527 803 q 436 688 463 735 q 369 511 389 604 q 349 339 349 418 q 388 202 349 261 q 509 143 428 143 q 654 199 590 143 q 749 328 718 256 l 949 328 q 784 95 907 202 q 645 12 725 44 q 488 -20 566 -20 q 354 0 410 -20 q 262 55 298 20 q 201 136 226 89 q 157 345 157 223 q 292 773 157 576 q 532 975 390 918 q 687 1007 611 1007 q 818 988 764 1007 q 909 937 872 969 q 971 863 945 905 q 1021 685 1021 783 q 1019 657 1021 675 l 819 657 m 1035 1293 l 793 1059 l 633 1059 l 489 1291 l 677 1291 l 739 1183 l 851 1293 l 1035 1293 z "},"č":{"ha":710,"x_min":123,"x_max":890,"o":"m 629 513 q 528 590 601 590 q 395 525 456 590 q 313 361 334 460 q 305 296 305 325 q 342 181 305 224 q 440 138 379 138 q 497 149 481 138 q 518 162 513 159 q 531 174 522 165 q 542 186 540 184 q 552 200 544 189 q 562 214 561 212 l 691 138 q 562 26 637 72 q 407 -20 488 -20 q 198 53 272 -20 q 123 254 123 126 q 135 361 123 308 q 290 639 172 532 q 556 746 408 746 q 700 703 635 746 q 789 589 764 660 l 629 513 m 890 1009 l 648 776 l 488 776 l 345 1007 l 533 1007 l 594 900 l 707 1009 l 890 1009 z "},"Ď":{"ha":863,"x_min":78,"x_max":958,"o":"m 728 510 q 738 600 738 557 q 683 764 738 703 q 530 825 629 825 l 435 825 l 294 163 l 389 163 q 602 257 510 163 q 728 510 694 352 m 933 634 q 915 489 933 576 q 846 308 897 402 q 727 146 795 214 q 572 39 659 78 q 395 0 486 0 l 78 0 l 288 987 l 604 987 q 846 889 758 987 q 933 634 933 791 m 958 1293 l 715 1059 l 555 1059 l 412 1291 l 600 1291 l 661 1183 l 774 1293 l 958 1293 z "},"ď":{"ha":914,"x_min":111,"x_max":1085,"o":"m 515 0 l 538 106 q 426 16 490 51 q 303 -19 361 -19 q 158 46 205 -19 q 111 221 111 111 q 131 377 111 286 q 194 553 150 468 q 309 692 238 637 q 466 746 380 746 q 574 712 525 746 q 648 622 624 677 l 725 986 l 900 986 l 690 0 l 515 0 m 304 364 q 295 288 295 324 q 326 179 295 218 q 392 140 357 140 q 454 151 427 140 q 510 186 481 162 q 598 364 572 241 q 608 447 608 408 q 574 554 608 520 q 489 587 541 587 q 383 533 437 587 q 304 364 328 478 m 1022 1027 q 1085 951 1085 1027 q 1063 884 1085 924 q 1000 793 1031 824 q 958 754 969 762 l 928 777 q 960 834 956 819 q 964 849 964 848 q 925 911 925 860 q 958 995 925 962 q 1022 1027 991 1027 z "},"Đ":{"ha":1004,"x_min":176,"x_max":1039,"o":"m 264 415 l 180 415 l 214 577 l 299 577 l 386 987 l 682 987 q 859 948 781 987 q 1034 686 1006 873 q 1039 605 1039 655 q 1022 474 1039 555 q 951 301 1005 394 q 663 38 844 114 q 472 0 572 0 l 176 0 l 264 415 m 446 415 l 393 165 l 507 165 q 719 257 623 165 q 844 493 814 349 q 854 606 854 539 q 819 730 854 672 q 646 821 762 821 l 532 821 l 480 577 l 648 577 l 613 415 l 446 415 z "},"đ":{"ha":761,"x_min":111,"x_max":935,"o":"m 304 364 q 295 288 295 324 q 326 179 295 218 q 392 140 357 140 q 454 151 427 140 q 510 186 481 162 q 598 364 572 241 q 608 447 608 408 q 574 554 608 520 q 489 587 541 587 q 383 533 437 587 q 304 364 328 478 m 515 0 l 538 106 q 426 16 490 51 q 303 -19 361 -19 q 158 46 205 -19 q 111 221 111 111 q 131 377 111 286 q 194 553 150 468 q 309 692 238 637 q 466 746 380 746 q 574 712 525 746 q 648 622 624 677 l 680 773 l 555 773 l 589 936 l 714 936 l 725 986 l 900 986 l 889 936 l 935 936 l 901 773 l 854 773 l 690 0 l 515 0 z "},"Ē":{"ha":821,"x_min":78,"x_max":954,"o":"m 288 987 l 954 987 l 919 825 l 435 825 l 385 587 l 826 587 l 791 425 l 350 425 l 294 163 l 779 163 l 744 0 l 78 0 l 288 987 m 431 1230 l 954 1230 l 936 1143 l 412 1143 l 431 1230 z "},"ē":{"ha":741,"x_min":127,"x_max":854,"o":"m 340 441 l 620 441 q 622 467 622 455 q 593 554 622 520 q 508 589 565 589 q 404 545 450 589 q 340 441 357 501 m 421 136 q 535 181 488 136 l 675 115 q 540 16 620 51 q 388 -20 460 -20 q 200 60 273 -20 q 127 269 127 140 q 222 559 127 425 q 370 696 285 647 q 555 745 454 745 q 720 669 655 745 q 785 471 785 594 q 773 364 785 420 l 764 318 l 313 318 q 307 254 307 286 q 318 197 307 223 q 349 159 330 171 q 421 136 382 136 m 331 961 l 854 961 l 836 875 l 313 875 l 331 961 z "},"Ĕ":{"ha":821,"x_min":78,"x_max":954,"o":"m 288 987 l 954 987 l 919 825 l 435 825 l 385 587 l 826 587 l 791 425 l 350 425 l 294 163 l 779 163 l 744 0 l 78 0 l 288 987 m 830 1137 q 732 1059 792 1090 q 617 1028 671 1028 q 514 1060 563 1028 q 448 1140 466 1091 q 429 1233 429 1190 q 441 1317 429 1276 l 550 1317 q 608 1200 570 1229 q 652 1190 621 1190 q 698 1199 682 1190 q 809 1317 734 1221 l 916 1317 q 911 1296 916 1316 q 830 1137 894 1215 z "},"ĕ":{"ha":741,"x_min":127,"x_max":848,"o":"m 340 441 l 620 441 q 622 467 622 455 q 593 554 622 520 q 508 589 565 589 q 404 545 450 589 q 340 441 357 501 m 421 136 q 535 181 488 136 l 675 115 q 540 16 620 51 q 388 -20 460 -20 q 200 60 273 -20 q 127 269 127 140 q 222 559 127 425 q 370 696 285 647 q 555 745 454 745 q 720 669 655 745 q 785 471 785 594 q 773 364 785 420 l 764 318 l 313 318 q 307 254 307 286 q 318 197 307 223 q 349 159 330 171 q 421 136 382 136 m 665 822 q 634 806 665 822 q 549 791 604 791 q 447 822 495 791 q 380 903 399 853 q 362 994 362 952 q 373 1080 362 1036 l 482 1080 q 541 962 503 992 q 584 952 554 952 q 630 962 614 952 q 741 1080 667 984 l 848 1080 q 763 899 841 995 q 665 822 726 852 z "},"Ė":{"ha":821,"x_min":78,"x_max":954,"o":"m 288 987 l 954 987 l 919 825 l 435 825 l 385 587 l 826 587 l 791 425 l 350 425 l 294 163 l 779 163 l 744 0 l 78 0 l 288 987 m 590 1168 q 635 1265 590 1228 q 727 1303 681 1303 q 795 1275 773 1303 q 817 1225 817 1247 q 771 1117 817 1154 q 680 1080 726 1080 q 612 1109 634 1080 q 590 1168 590 1137 z "},"ė":{"ha":741,"x_min":127,"x_max":785,"o":"m 340 441 l 620 441 q 622 467 622 455 q 593 554 622 520 q 508 589 565 589 q 404 545 450 589 q 340 441 357 501 m 421 136 q 535 181 488 136 l 675 115 q 540 16 620 51 q 388 -20 460 -20 q 200 60 273 -20 q 127 269 127 140 q 222 559 127 425 q 370 696 285 647 q 555 745 454 745 q 720 669 655 745 q 785 471 785 594 q 773 364 785 420 l 764 318 l 313 318 q 307 254 307 286 q 318 197 307 223 q 349 159 330 171 q 421 136 382 136 m 463 893 q 509 991 463 954 q 601 1028 555 1028 q 669 1000 647 1028 q 691 949 691 972 q 645 843 691 880 q 554 806 600 806 q 486 834 508 806 q 463 893 463 863 z "},"Ę":{"ha":821,"x_min":78,"x_max":954,"o":"m 288 987 l 954 987 l 919 825 l 435 825 l 385 587 l 826 587 l 791 425 l 350 425 l 294 163 l 779 163 l 744 0 l 78 0 l 288 987 m 715 -147 l 621 -233 q 586 -213 608 -227 q 553 -192 564 -199 q 526 -169 543 -185 q 491 -120 495 -138 q 486 -92 486 -102 q 488 -76 486 -81 q 591 64 504 0 l 688 3 q 652 -40 659 -22 q 643 -70 645 -58 q 650 -95 640 -81 q 685 -127 662 -112 q 715 -147 707 -143 z "},"ę":{"ha":741,"x_min":127,"x_max":785,"o":"m 340 441 l 620 441 q 622 467 622 455 q 593 554 622 520 q 508 589 565 589 q 404 545 450 589 q 340 441 357 501 m 421 136 q 535 181 488 136 l 675 115 q 540 16 620 51 q 388 -20 460 -20 q 200 60 273 -20 q 127 269 127 140 q 222 559 127 425 q 370 696 285 647 q 555 745 454 745 q 720 669 655 745 q 785 471 785 594 q 773 364 785 420 l 764 318 l 313 318 q 307 254 307 286 q 318 197 307 223 q 349 159 330 171 q 421 136 382 136 m 487 -147 l 392 -233 q 358 -213 380 -227 q 325 -192 336 -199 q 298 -169 314 -185 q 262 -120 267 -138 q 258 -92 258 -102 q 259 -76 258 -81 q 362 64 275 0 l 459 3 q 423 -40 430 -22 q 414 -70 416 -58 q 421 -95 412 -81 q 456 -127 433 -112 q 487 -147 479 -143 z "},"Ě":{"ha":821,"x_min":78,"x_max":978,"o":"m 288 987 l 954 987 l 919 825 l 435 825 l 385 587 l 826 587 l 791 425 l 350 425 l 294 163 l 779 163 l 744 0 l 78 0 l 288 987 m 978 1293 l 736 1059 l 576 1059 l 432 1291 l 620 1291 l 682 1183 l 794 1293 l 978 1293 z "},"ě":{"ha":741,"x_min":127,"x_max":870,"o":"m 340 441 l 620 441 q 622 467 622 455 q 593 554 622 520 q 508 589 565 589 q 404 545 450 589 q 340 441 357 501 m 421 136 q 535 181 488 136 l 675 115 q 540 16 620 51 q 388 -20 460 -20 q 200 60 273 -20 q 127 269 127 140 q 222 559 127 425 q 370 696 285 647 q 555 745 454 745 q 720 669 655 745 q 785 471 785 594 q 773 364 785 420 l 764 318 l 313 318 q 307 254 307 286 q 318 197 307 223 q 349 159 330 171 q 421 136 382 136 m 870 1010 l 628 777 l 468 777 l 325 1008 l 513 1008 l 574 901 l 686 1010 l 870 1010 z "},"Ĝ":{"ha":964,"x_min":153,"x_max":990,"o":"m 638 9 q 487 -18 564 -18 q 353 2 409 -18 q 260 56 296 22 q 199 139 223 91 q 153 354 153 229 q 290 791 153 596 q 532 985 387 930 q 708 1015 611 1015 q 880 961 805 1015 q 976 814 955 907 l 789 755 q 743 822 787 791 q 654 852 699 852 q 556 822 609 852 q 467 742 504 791 q 349 387 349 587 q 419 178 349 241 q 510 143 457 143 q 603 159 562 143 q 670 200 643 176 q 718 259 696 225 q 767 385 753 317 l 562 385 l 596 547 l 990 547 l 968 448 q 861 191 939 305 q 638 9 771 60 m 985 1059 l 802 1059 l 735 1168 l 629 1061 l 441 1061 l 682 1293 l 842 1293 l 985 1059 z "},"ĝ":{"ha":771,"x_min":55,"x_max":845,"o":"m 505 -47 l 538 106 q 426 16 490 51 q 303 -19 361 -19 q 158 46 205 -19 q 111 221 111 111 q 131 377 111 286 q 194 553 150 468 q 309 692 238 637 q 466 746 380 746 q 574 712 525 746 q 648 622 624 677 l 670 728 l 845 728 l 683 -34 q 563 -227 659 -146 q 308 -313 463 -313 q 88 -211 152 -313 q 55 -91 55 -157 q 56 -67 55 -82 q 222 -60 157 -62 l 222 -70 q 251 -136 222 -111 q 342 -161 280 -161 q 449 -131 404 -161 q 505 -47 494 -100 m 304 364 q 295 288 295 324 q 326 179 295 218 q 392 140 357 140 q 454 151 427 140 q 510 186 481 162 q 598 364 572 241 q 608 447 608 408 q 574 554 608 520 q 489 587 541 587 q 383 533 437 587 q 304 364 328 478 m 829 775 l 646 775 l 579 884 l 473 777 l 285 777 l 526 1008 l 686 1008 l 829 775 z "},"Ğ":{"ha":964,"x_min":153,"x_max":1002,"o":"m 638 9 q 487 -18 564 -18 q 353 2 409 -18 q 260 56 296 22 q 199 139 223 91 q 153 354 153 229 q 290 791 153 596 q 532 985 387 930 q 708 1015 611 1015 q 880 961 805 1015 q 976 814 955 907 l 789 755 q 743 822 787 791 q 654 852 699 852 q 556 822 609 852 q 467 742 504 791 q 349 387 349 587 q 419 178 349 241 q 510 143 457 143 q 603 159 562 143 q 670 200 643 176 q 718 259 696 225 q 767 385 753 317 l 562 385 l 596 547 l 990 547 l 968 448 q 861 191 939 305 q 638 9 771 60 m 916 1137 q 818 1059 878 1090 q 703 1028 758 1028 q 601 1060 649 1028 q 534 1140 552 1091 q 515 1233 515 1190 q 527 1317 515 1276 l 636 1317 q 694 1200 656 1229 q 738 1190 707 1190 q 784 1199 768 1190 q 895 1317 821 1221 l 1002 1317 q 998 1296 1002 1316 q 916 1137 980 1215 z "},"ğ":{"ha":771,"x_min":55,"x_max":845,"o":"m 505 -47 l 538 106 q 426 16 490 51 q 303 -19 361 -19 q 158 46 205 -19 q 111 221 111 111 q 131 377 111 286 q 194 553 150 468 q 309 692 238 637 q 466 746 380 746 q 574 712 525 746 q 648 622 624 677 l 670 728 l 845 728 l 683 -34 q 563 -227 659 -146 q 308 -313 463 -313 q 88 -211 152 -313 q 55 -91 55 -157 q 56 -67 55 -82 q 222 -60 157 -62 l 222 -70 q 251 -136 222 -111 q 342 -161 280 -161 q 449 -131 404 -161 q 505 -47 494 -100 m 304 364 q 295 288 295 324 q 326 179 295 218 q 392 140 357 140 q 454 151 427 140 q 510 186 481 162 q 598 364 572 241 q 608 447 608 408 q 574 554 608 520 q 489 587 541 587 q 383 533 437 587 q 304 364 328 478 m 393 823 q 307 998 307 879 q 317 1082 307 1042 l 427 1082 q 484 964 447 994 q 528 954 498 954 q 574 964 559 954 q 686 1082 611 986 l 792 1082 q 788 1061 792 1080 q 707 901 770 980 q 608 824 669 854 q 494 793 548 793 q 393 823 439 793 z "},"Ġ":{"ha":964,"x_min":153,"x_max":990,"o":"m 638 9 q 487 -18 564 -18 q 353 2 409 -18 q 260 56 296 22 q 199 139 223 91 q 153 354 153 229 q 290 791 153 596 q 532 985 387 930 q 708 1015 611 1015 q 880 961 805 1015 q 976 814 955 907 l 789 755 q 743 822 787 791 q 654 852 699 852 q 556 822 609 852 q 467 742 504 791 q 349 387 349 587 q 419 178 349 241 q 510 143 457 143 q 603 159 562 143 q 670 200 643 176 q 718 259 696 225 q 767 385 753 317 l 562 385 l 596 547 l 990 547 l 968 448 q 861 191 939 305 q 638 9 771 60 m 623 1168 q 668 1265 623 1228 q 760 1303 713 1303 q 828 1275 806 1303 q 850 1225 850 1247 q 804 1117 850 1154 q 712 1080 758 1080 q 645 1109 667 1080 q 623 1168 623 1137 z "},"ġ":{"ha":771,"x_min":55,"x_max":845,"o":"m 505 -47 l 538 106 q 426 16 490 51 q 303 -19 361 -19 q 158 46 205 -19 q 111 221 111 111 q 131 377 111 286 q 194 553 150 468 q 309 692 238 637 q 466 746 380 746 q 574 712 525 746 q 648 622 624 677 l 670 728 l 845 728 l 683 -34 q 563 -227 659 -146 q 308 -313 463 -313 q 88 -211 152 -313 q 55 -91 55 -157 q 56 -67 55 -82 q 222 -60 157 -62 l 222 -70 q 251 -136 222 -111 q 342 -161 280 -161 q 449 -131 404 -161 q 505 -47 494 -100 m 304 364 q 295 288 295 324 q 326 179 295 218 q 392 140 357 140 q 454 151 427 140 q 510 186 481 162 q 598 364 572 241 q 608 447 608 408 q 574 554 608 520 q 489 587 541 587 q 383 533 437 587 q 304 364 328 478 m 456 894 q 501 992 456 955 q 593 1029 547 1029 q 661 1000 639 1029 q 684 950 684 972 q 637 844 684 881 q 546 806 591 806 q 478 835 500 806 q 456 894 456 863 z "},"Ģ":{"ha":964,"x_min":153,"x_max":990,"o":"m 638 9 q 487 -18 564 -18 q 353 2 409 -18 q 260 56 296 22 q 199 139 223 91 q 153 354 153 229 q 290 791 153 596 q 532 985 387 930 q 708 1015 611 1015 q 880 961 805 1015 q 976 814 955 907 l 789 755 q 743 822 787 791 q 654 852 699 852 q 556 822 609 852 q 467 742 504 791 q 349 387 349 587 q 419 178 349 241 q 510 143 457 143 q 603 159 562 143 q 670 200 643 176 q 718 259 696 225 q 767 385 753 317 l 562 385 l 596 547 l 990 547 l 968 448 q 861 191 939 305 q 638 9 771 60 z "},"ģ":{"ha":771,"x_min":55,"x_max":845,"o":"m 505 -47 l 538 106 q 426 16 490 51 q 303 -19 361 -19 q 158 46 205 -19 q 111 221 111 111 q 131 377 111 286 q 194 553 150 468 q 309 692 238 637 q 466 746 380 746 q 574 712 525 746 q 648 622 624 677 l 670 728 l 845 728 l 683 -34 q 563 -227 659 -146 q 308 -313 463 -313 q 88 -211 152 -313 q 55 -91 55 -157 q 56 -67 55 -82 q 222 -60 157 -62 l 222 -70 q 251 -136 222 -111 q 342 -161 280 -161 q 449 -131 404 -161 q 505 -47 494 -100 m 304 364 q 295 288 295 324 q 326 179 295 218 q 392 140 357 140 q 454 151 427 140 q 510 186 481 162 q 598 364 572 241 q 608 447 608 408 q 574 554 608 520 q 489 587 541 587 q 383 533 437 587 q 304 364 328 478 z "},"Ĥ":{"ha":850,"x_min":78,"x_max":981,"o":"m 288 987 l 469 987 l 385 586 l 713 586 l 798 987 l 981 987 l 772 0 l 589 0 l 679 423 l 350 423 l 260 0 l 78 0 l 288 987 m 920 1059 l 736 1059 l 670 1168 l 564 1061 l 376 1061 l 617 1293 l 777 1293 l 920 1059 z "},"ĥ":{"ha":760,"x_min":81,"x_max":911,"o":"m 256 0 l 81 0 l 290 986 l 465 986 l 387 618 q 496 711 429 674 q 631 747 564 747 q 746 692 699 747 q 794 541 794 637 q 784 453 794 500 l 688 0 l 513 0 l 590 364 q 606 490 606 436 q 583 566 606 543 q 526 588 559 588 q 472 583 492 588 q 431 562 452 577 q 393 523 410 547 q 333 363 355 470 l 256 0 m 911 1059 l 728 1059 l 661 1168 l 555 1061 l 367 1061 l 608 1293 l 768 1293 l 911 1059 z "},"Ħ":{"ha":850,"x_min":78,"x_max":1009,"o":"m 288 987 l 469 987 l 449 891 l 778 891 l 798 987 l 981 987 l 961 891 l 1009 891 l 975 728 l 926 728 l 772 0 l 589 0 l 679 423 l 350 423 l 260 0 l 78 0 l 233 728 l 184 728 l 219 891 l 267 891 l 288 987 m 743 728 l 414 728 l 385 586 l 713 586 l 743 728 z "},"ħ":{"ha":760,"x_min":81,"x_max":794,"o":"m 256 0 l 81 0 l 248 787 l 195 787 l 229 949 l 283 949 l 290 986 l 465 986 l 458 949 l 625 949 l 591 787 l 423 787 l 387 618 q 496 711 429 674 q 631 747 564 747 q 746 692 699 747 q 794 541 794 637 q 784 453 794 500 l 688 0 l 513 0 l 590 364 q 606 490 606 436 q 583 566 606 543 q 526 588 559 588 q 472 583 492 588 q 431 562 452 577 q 393 523 410 547 q 333 363 355 470 l 256 0 z "},"Ĩ":{"ha":376,"x_min":97,"x_max":670,"o":"m 97 0 l 307 987 l 488 987 l 279 0 l 97 0 m 230 1227 q 249 1241 235 1230 q 369 1297 321 1297 q 436 1261 404 1297 q 450 1246 443 1254 q 534 1194 495 1194 q 615 1224 576 1194 q 670 1267 654 1255 l 633 1090 q 593 1063 626 1084 q 503 1027 534 1027 q 406 1078 451 1027 q 337 1130 362 1130 q 274 1116 297 1130 q 236 1092 252 1102 q 195 1064 204 1069 l 230 1227 z "},"ĩ":{"ha":362,"x_min":94,"x_max":613,"o":"m 173 1012 q 192 1025 178 1015 q 273 1075 246 1068 q 315 1082 300 1082 q 393 1030 351 1082 q 477 979 436 979 q 558 1009 519 979 q 613 1051 597 1039 l 576 875 q 441 811 491 811 q 349 863 394 811 q 280 914 305 914 q 217 900 240 914 q 179 876 195 886 l 153 859 q 138 848 142 851 l 173 1012 m 249 728 l 424 728 l 269 0 l 94 0 l 249 728 z "},"Ī":{"ha":376,"x_min":97,"x_max":713,"o":"m 97 0 l 307 987 l 488 987 l 279 0 l 97 0 m 189 1230 l 713 1230 l 694 1143 l 171 1143 l 189 1230 z "},"ī":{"ha":362,"x_min":94,"x_max":647,"o":"m 123 959 l 647 959 l 629 873 l 105 873 l 123 959 m 249 728 l 424 728 l 269 0 l 94 0 l 249 728 z "},"Ĭ":{"ha":376,"x_min":97,"x_max":703,"o":"m 97 0 l 307 987 l 488 987 l 279 0 l 97 0 m 618 1137 q 519 1059 580 1090 q 405 1028 459 1028 q 302 1060 351 1028 q 235 1140 254 1091 q 217 1233 217 1190 q 229 1317 217 1276 l 338 1317 q 395 1200 358 1229 q 439 1190 409 1190 q 486 1199 470 1190 q 597 1317 522 1221 l 703 1317 q 699 1296 703 1316 q 618 1137 682 1215 z "},"ĭ":{"ha":362,"x_min":94,"x_max":648,"o":"m 465 796 q 434 780 465 796 q 349 765 404 765 q 247 796 295 765 q 180 877 199 827 q 162 968 162 926 q 173 1054 162 1010 l 282 1054 q 340 937 302 966 q 384 926 354 926 q 430 936 414 926 q 541 1054 467 958 l 648 1054 q 563 873 641 969 q 465 796 526 827 m 249 728 l 424 728 l 269 0 l 94 0 l 249 728 z "},"Į":{"ha":376,"x_min":75,"x_max":488,"o":"m 97 0 l 307 987 l 488 987 l 279 0 l 97 0 m 304 -147 l 210 -233 q 175 -213 197 -227 q 142 -192 153 -199 q 115 -169 132 -185 q 80 -120 84 -138 q 75 -92 75 -102 q 77 -76 75 -81 q 180 64 93 0 l 277 3 q 241 -40 248 -22 q 232 -70 234 -58 q 239 -95 229 -81 q 274 -127 251 -112 q 304 -147 296 -143 z "},"į":{"ha":362,"x_min":64,"x_max":476,"o":"m 249 728 l 424 728 l 269 0 l 94 0 l 249 728 m 272 881 q 314 976 272 939 q 394 1013 357 1013 q 454 989 432 1013 q 476 939 476 965 q 434 833 476 870 q 354 796 392 796 q 294 820 317 796 q 272 881 272 844 m 293 -147 l 198 -233 q 164 -213 186 -227 q 131 -192 142 -199 q 104 -169 120 -185 q 68 -120 73 -138 q 64 -92 64 -102 q 65 -76 64 -81 q 168 64 81 0 l 265 3 q 229 -40 236 -22 q 220 -70 222 -58 q 227 -95 218 -81 q 262 -127 239 -112 q 293 -147 285 -143 z "},"İ":{"ha":376,"x_min":97,"x_max":555,"o":"m 97 0 l 307 987 l 488 987 l 279 0 l 97 0 m 328 1168 q 374 1265 328 1228 q 465 1303 419 1303 q 533 1275 511 1303 q 555 1225 555 1247 q 510 1117 555 1154 q 418 1080 464 1080 q 350 1109 372 1080 q 328 1168 328 1137 z "},"ı":{"ha":362,"x_min":94,"x_max":424,"o":"m 249 728 l 424 728 l 269 0 l 94 0 l 249 728 z "},"Ĳ":{"ha":1158,"x_min":97,"x_max":1284,"o":"m 97 0 l 307 987 l 488 987 l 279 0 l 97 0 m 616 310 q 759 149 616 149 q 907 228 853 149 q 977 397 956 296 l 1102 987 l 1284 987 l 1159 397 q 926 31 1103 136 q 722 -24 835 -24 q 463 146 515 -24 q 447 258 447 196 q 463 397 447 319 l 627 397 q 616 310 616 351 z "},"ĳ":{"ha":630,"x_min":60,"x_max":744,"o":"m 249 728 l 424 728 l 269 0 l 94 0 l 249 728 m 272 881 q 314 976 272 939 q 394 1013 357 1013 q 454 989 432 1013 q 476 939 476 965 q 434 833 476 870 q 354 796 392 796 q 294 820 317 796 q 272 881 272 844 m 540 881 q 582 976 540 938 q 665 1013 625 1013 q 725 985 705 1013 q 744 935 744 958 q 702 834 744 871 q 619 796 659 796 q 559 824 578 796 q 540 881 540 852 m 60 -226 l 199 -109 q 221 -129 205 -121 q 263 -138 237 -138 q 315 -116 289 -138 q 349 -62 341 -95 l 517 728 l 692 728 l 532 -24 q 467 -154 518 -90 q 347 -255 416 -218 q 218 -293 277 -293 q 123 -280 159 -293 q 60 -226 88 -267 z "},"Ĵ":{"ha":848,"x_min":138,"x_max":1168,"o":"m 154 397 l 336 397 q 322 286 322 335 q 448 139 322 139 q 616 254 553 139 q 668 397 652 317 l 793 987 l 975 987 l 850 397 q 695 91 809 206 q 413 -24 581 -24 q 205 52 273 -24 q 138 259 138 128 q 154 397 138 319 m 1168 1057 l 984 1057 l 918 1166 l 811 1059 l 623 1059 l 865 1290 l 1025 1290 l 1168 1057 z "},"ĵ":{"ha":362,"x_min":-208,"x_max":619,"o":"m 619 777 l 435 777 l 369 886 l 262 779 l 74 779 l 316 1010 l 476 1010 l 619 777 m -208 -226 l -68 -109 q -46 -129 -62 -121 q -5 -138 -31 -138 q 47 -116 21 -138 q 81 -62 73 -95 l 249 728 l 424 728 l 264 -24 q 200 -154 250 -92 q 79 -255 150 -216 q -51 -293 9 -293 q -145 -280 -110 -293 q -208 -226 -180 -267 z "},"Ķ":{"ha":904,"x_min":78,"x_max":1065,"o":"m 288 987 l 469 987 l 380 565 l 838 987 l 1065 987 l 595 548 l 875 0 l 647 0 l 429 426 l 331 336 l 260 0 l 78 0 l 288 987 z "},"ķ":{"ha":677,"x_min":81,"x_max":814,"o":"m 478 405 l 675 0 l 476 0 l 332 317 l 319 301 l 256 0 l 81 0 l 290 986 l 465 986 l 359 486 l 601 728 l 814 728 l 478 405 z "},"ĸ":{"ha":698,"x_min":16,"x_max":850,"o":"m 257 281 l 197 -1 l 16 -1 l 170 728 l 352 728 l 294 456 l 623 728 l 850 728 l 431 372 l 692 0 l 465 0 l 257 281 z "},"Ĺ":{"ha":827,"x_min":78,"x_max":823,"o":"m 288 987 l 469 987 l 294 163 l 780 163 l 745 0 l 78 0 l 288 987 m 550 1036 q 506 1072 528 1036 q 502 1136 488 1100 q 509 1145 504 1141 l 736 1312 q 753 1319 745 1319 q 814 1280 791 1319 q 823 1249 823 1267 q 799 1184 823 1201 l 559 1040 q 550 1036 554 1036 z "},"ĺ":{"ha":380,"x_min":125,"x_max":659,"o":"m 310 191 q 308 173 308 182 q 360 132 308 132 l 328 -20 q 175 11 224 -20 q 125 115 125 41 q 134 187 125 143 l 304 986 l 479 986 l 310 191 m 385 1036 q 341 1072 362 1036 q 337 1136 323 1101 q 345 1145 339 1141 l 571 1312 q 589 1319 580 1319 q 650 1280 626 1319 q 659 1249 659 1267 q 634 1184 659 1202 l 395 1040 q 385 1036 389 1036 z "},"Ļ":{"ha":827,"x_min":78,"x_max":780,"o":"m 288 987 l 469 987 l 294 163 l 780 163 l 745 0 l 78 0 l 288 987 m 238 -161 q 250 -155 241 -160 q 264 -148 259 -151 q 279 -141 269 -146 q 294 -132 288 -136 q 308 -124 300 -129 q 321 -114 315 -119 q 331 -105 326 -110 q 347 -61 347 -90 q 330 -11 347 -33 l 453 50 q 499 -61 499 0 q 496 -90 499 -77 q 307 -242 481 -161 q 296 -248 300 -246 l 238 -161 z "},"ļ":{"ha":380,"x_min":28,"x_max":479,"o":"m 310 191 q 308 173 308 182 q 360 132 308 132 l 328 -20 q 175 11 224 -20 q 125 115 125 41 q 134 187 125 143 l 304 986 l 479 986 l 310 191 m 28 -161 q 40 -155 31 -160 q 54 -148 49 -151 q 68 -141 59 -146 q 84 -132 78 -136 q 97 -124 90 -129 q 111 -114 105 -119 q 121 -105 116 -110 q 137 -61 137 -90 q 120 -11 137 -33 l 243 50 q 289 -61 289 0 q 286 -90 289 -77 q 97 -242 271 -161 q 86 -248 90 -246 l 28 -161 z "},"Ľ":{"ha":827,"x_min":78,"x_max":780,"o":"m 288 987 l 469 987 l 294 163 l 780 163 l 745 0 l 78 0 l 288 987 m 629 1027 q 692 951 692 1027 q 671 884 692 924 q 607 793 638 824 q 566 754 576 762 l 536 777 q 568 834 564 819 q 571 849 572 848 q 532 911 532 860 q 565 995 532 962 q 629 1027 598 1027 z "},"ľ":{"ha":524,"x_min":125,"x_max":692,"o":"m 310 191 q 308 173 308 182 q 360 132 308 132 l 328 -20 q 175 11 224 -20 q 125 115 125 41 q 134 187 125 143 l 304 986 l 479 986 l 310 191 m 629 1027 q 692 951 692 1027 q 671 884 692 924 q 607 793 638 824 q 566 754 576 762 l 536 777 q 568 834 564 819 q 571 849 572 848 q 532 911 532 860 q 565 995 532 962 q 629 1027 598 1027 z "},"Ŀ":{"ha":827,"x_min":78,"x_max":780,"o":"m 288 987 l 469 987 l 294 163 l 780 163 l 745 0 l 78 0 l 288 987 m 515 496 q 561 593 515 555 q 649 631 606 631 q 718 606 692 631 q 743 543 743 581 q 697 446 743 484 q 608 408 651 408 q 540 433 566 408 q 515 496 515 458 z "},"ŀ":{"ha":555,"x_min":125,"x_max":663,"o":"m 310 191 q 308 173 308 182 q 360 132 308 132 l 328 -20 q 175 11 224 -20 q 125 115 125 41 q 134 187 125 143 l 304 986 l 479 986 l 310 191 m 435 496 q 481 593 435 555 q 570 631 527 631 q 638 606 613 631 q 663 543 663 581 q 617 446 663 484 q 529 408 572 408 q 461 433 486 408 q 435 496 435 458 z "},"Ł":{"ha":827,"x_min":58,"x_max":814,"o":"m 58 271 l 91 427 l 183 495 l 288 987 l 469 987 l 399 654 l 606 807 l 572 648 l 366 497 l 294 163 l 814 163 l 779 0 l 78 0 l 150 339 l 58 271 z "},"ł":{"ha":380,"x_min":58,"x_max":499,"o":"m 58 271 l 91 427 l 203 509 l 304 986 l 479 986 l 410 663 l 499 728 l 465 570 l 376 505 l 310 191 q 308 173 308 180 q 360 132 308 132 l 328 -20 q 156 26 201 -20 q 125 116 125 56 q 134 187 125 144 l 170 353 l 58 271 z "},"Ń":{"ha":911,"x_min":78,"x_max":1034,"o":"m 78 0 l 288 987 l 464 987 l 718 350 l 852 987 l 1034 987 l 825 0 l 646 0 l 400 660 l 260 0 l 78 0 m 612 1036 q 568 1072 590 1036 q 564 1136 549 1100 q 571 1145 566 1141 l 798 1312 q 815 1319 806 1319 q 876 1280 852 1319 q 885 1249 885 1267 q 861 1184 885 1202 l 621 1040 q 612 1036 616 1036 z "},"ń":{"ha":760,"x_min":81,"x_max":794,"o":"m 256 0 l 81 0 l 235 728 l 410 728 l 387 618 q 496 711 429 674 q 631 747 564 747 q 746 692 699 747 q 794 541 794 637 q 784 453 794 500 l 688 0 l 513 0 l 590 364 q 606 490 606 436 q 583 566 606 543 q 526 588 559 588 q 472 583 492 588 q 431 562 452 577 q 393 523 410 547 q 333 363 355 470 l 256 0 m 516 800 q 472 836 494 800 q 468 900 454 864 q 475 909 470 905 l 702 1076 q 720 1083 711 1083 q 781 1044 757 1083 q 789 1013 789 1031 q 765 948 789 966 l 526 804 q 516 800 520 800 z "},"Ņ":{"ha":911,"x_min":78,"x_max":1034,"o":"m 78 0 l 288 987 l 464 987 l 718 350 l 852 987 l 1034 987 l 825 0 l 646 0 l 400 660 l 260 0 l 78 0 z "},"ņ":{"ha":760,"x_min":81,"x_max":794,"o":"m 256 0 l 81 0 l 235 728 l 410 728 l 387 618 q 496 711 429 674 q 631 747 564 747 q 746 692 699 747 q 794 541 794 637 q 784 453 794 500 l 688 0 l 513 0 l 590 364 q 606 490 606 436 q 583 566 606 543 q 526 588 559 588 q 472 583 492 588 q 431 562 452 577 q 393 523 410 547 q 333 363 355 470 l 256 0 z "},"Ň":{"ha":911,"x_min":78,"x_max":1035,"o":"m 78 0 l 288 987 l 464 987 l 718 350 l 852 987 l 1034 987 l 825 0 l 646 0 l 400 660 l 260 0 l 78 0 m 1035 1293 l 793 1059 l 633 1059 l 489 1291 l 677 1291 l 739 1183 l 851 1293 l 1035 1293 z "},"ň":{"ha":760,"x_min":81,"x_max":869,"o":"m 256 0 l 81 0 l 235 728 l 410 728 l 387 618 q 496 711 429 674 q 631 747 564 747 q 746 692 699 747 q 794 541 794 637 q 784 453 794 500 l 688 0 l 513 0 l 590 364 q 606 490 606 436 q 583 566 606 543 q 526 588 559 588 q 472 583 492 588 q 431 562 452 577 q 393 523 410 547 q 333 363 355 470 l 256 0 m 869 1010 l 627 777 l 467 777 l 323 1008 l 511 1008 l 572 901 l 685 1010 l 869 1010 z "},"ŉ":{"ha":945,"x_min":233,"x_max":979,"o":"m 441 0 l 266 0 l 420 728 l 595 728 l 572 618 q 682 711 614 674 q 816 747 749 747 q 931 692 884 747 q 979 541 979 637 q 969 453 979 500 l 873 0 l 698 0 l 775 364 q 791 490 791 436 q 768 566 791 543 q 711 588 745 588 q 657 583 677 588 q 616 562 637 577 q 578 523 595 547 q 518 363 541 470 l 441 0 m 243 699 q 291 781 283 750 l 291 789 q 249 815 266 795 q 233 862 233 836 q 236 901 233 888 q 285 976 245 942 q 369 1010 325 1010 q 437 985 414 1010 q 460 923 460 959 q 432 832 460 882 q 376 752 404 783 q 287 669 321 692 l 243 699 z "},"Ŋ":{"ha":911,"x_min":81,"x_max":987,"o":"m 553 184 q 606 155 569 155 q 669 177 643 155 q 703 231 695 198 l 716 293 l 714 293 l 784 623 q 799 733 799 698 q 795 787 799 768 q 777 822 791 806 q 709 846 754 846 q 556 815 623 846 q 415 716 490 784 q 388 622 406 708 l 256 0 l 81 0 l 290 987 l 465 987 l 442 877 q 640 970 591 952 q 827 1006 730 1006 q 898 986 864 1006 q 987 798 987 933 q 978 711 987 755 l 886 269 q 820 138 871 202 q 700 37 768 75 q 572 0 631 0 q 477 13 513 0 q 414 67 442 26 l 553 184 z "},"ŋ":{"ha":760,"x_min":81,"x_max":794,"o":"m 212 -226 l 352 -109 q 374 -129 358 -121 q 416 -138 390 -138 q 468 -116 441 -138 q 501 -62 494 -95 l 515 0 l 513 0 l 590 364 q 606 473 606 440 q 588 559 606 541 q 554 583 571 578 q 515 588 538 588 q 393 523 440 588 q 333 363 355 469 l 256 0 l 81 0 l 235 728 l 410 728 l 387 618 q 497 711 429 674 q 618 747 564 747 q 703 729 672 747 q 760 673 734 710 q 794 543 794 623 q 784 453 794 500 l 685 -24 q 621 -154 671 -92 q 500 -255 570 -216 q 370 -293 429 -293 q 276 -280 311 -293 q 212 -226 241 -267 z "},"Ō":{"ha":956,"x_min":157,"x_max":1022,"o":"m 787 393 q 831 622 831 516 q 665 844 831 844 q 436 688 524 844 q 369 511 389 604 q 349 339 349 418 q 388 202 349 261 q 515 143 428 143 q 743 298 656 143 q 787 393 770 345 m 157 345 q 292 773 157 576 q 532 975 390 918 q 690 1007 611 1007 q 825 987 769 1007 q 917 933 881 967 q 978 852 954 899 q 1022 643 1022 765 q 962 351 1022 499 q 784 95 901 199 q 648 12 726 43 q 490 -20 569 -20 q 354 0 410 -20 q 262 55 298 20 q 201 136 226 89 q 157 345 157 223 m 479 1230 l 1003 1230 l 985 1143 l 461 1143 l 479 1230 z "},"ō":{"ha":749,"x_min":125,"x_max":855,"o":"m 311 364 q 299 270 299 308 q 414 140 299 140 q 612 364 564 140 q 623 457 623 420 q 509 587 623 587 q 311 364 357 587 m 140 364 q 283 643 178 541 q 542 746 389 746 q 730 678 665 746 q 794 487 794 610 q 780 364 794 430 q 637 84 742 187 q 379 -20 532 -20 q 191 48 256 -20 q 125 240 125 117 q 140 364 125 297 m 332 960 l 855 960 l 837 874 l 313 874 l 332 960 z "},"Ŏ":{"ha":956,"x_min":157,"x_max":1022,"o":"m 787 393 q 831 622 831 516 q 665 844 831 844 q 436 688 524 844 q 369 511 389 604 q 349 339 349 418 q 388 202 349 261 q 515 143 428 143 q 743 298 656 143 q 787 393 770 345 m 157 345 q 292 773 157 576 q 532 975 390 918 q 690 1007 611 1007 q 825 987 769 1007 q 917 933 881 967 q 978 852 954 899 q 1022 643 1022 765 q 962 351 1022 499 q 784 95 901 199 q 648 12 726 43 q 490 -20 569 -20 q 354 0 410 -20 q 262 55 298 20 q 201 136 226 89 q 157 345 157 223 m 925 1137 q 827 1059 887 1090 q 712 1028 766 1028 q 609 1060 658 1028 q 543 1140 561 1091 q 524 1233 524 1190 q 536 1317 524 1276 l 645 1317 q 703 1200 665 1229 q 747 1190 716 1190 q 793 1199 777 1190 q 904 1317 829 1221 l 1010 1317 q 1006 1296 1010 1316 q 925 1137 989 1215 z "},"ŏ":{"ha":749,"x_min":125,"x_max":840,"o":"m 311 364 q 299 270 299 308 q 414 140 299 140 q 612 364 564 140 q 623 457 623 420 q 509 587 623 587 q 311 364 357 587 m 140 364 q 283 643 178 541 q 542 746 389 746 q 730 678 665 746 q 794 487 794 610 q 780 364 794 430 q 637 84 742 187 q 379 -20 532 -20 q 191 48 256 -20 q 125 240 125 117 q 140 364 125 297 m 755 901 q 656 823 717 854 q 542 792 596 792 q 439 824 488 792 q 372 904 391 855 q 354 997 354 954 q 366 1081 354 1040 l 475 1081 q 532 964 495 993 q 576 954 546 954 q 623 963 607 954 q 734 1081 659 985 l 840 1081 q 836 1060 840 1080 q 755 901 819 979 z "},"Ő":{"ha":913,"x_min":157,"x_max":1084,"o":"m 787 393 q 831 622 831 516 q 665 844 831 844 q 436 688 524 844 q 369 511 389 604 q 349 339 349 418 q 388 202 349 261 q 515 143 428 143 q 743 298 656 143 q 787 393 770 345 m 157 345 q 292 773 157 576 q 532 975 390 918 q 690 1007 611 1007 q 825 987 769 1007 q 917 933 881 967 q 978 852 954 899 q 1022 643 1022 765 q 962 351 1022 499 q 784 95 901 199 q 648 12 726 43 q 490 -20 569 -20 q 354 0 410 -20 q 262 55 298 20 q 201 136 226 89 q 157 345 157 223 m 865 1013 q 848 1006 859 1006 q 801 1028 829 1006 q 785 1054 793 1034 q 785 1095 774 1084 l 972 1307 q 1001 1320 985 1320 q 1061 1298 1039 1320 q 1078 1271 1072 1290 q 1084 1245 1084 1253 q 1081 1226 1084 1238 q 1071 1206 1079 1215 l 865 1013 m 602 1013 q 585 1006 595 1006 q 537 1028 565 1006 q 522 1050 528 1035 q 516 1074 516 1066 q 522 1095 516 1090 l 709 1307 q 737 1320 721 1320 q 797 1298 775 1320 q 814 1272 808 1289 q 821 1245 821 1254 q 807 1206 821 1220 l 602 1013 z "},"ő":{"ha":782,"x_min":125,"x_max":966,"o":"m 311 364 q 299 270 299 308 q 414 140 299 140 q 612 364 564 140 q 623 457 623 420 q 509 587 623 587 q 311 364 357 587 m 140 364 q 283 643 178 541 q 542 746 389 746 q 730 678 665 746 q 794 487 794 610 q 780 364 794 430 q 637 84 742 187 q 379 -20 532 -20 q 191 48 256 -20 q 125 240 125 117 q 140 364 125 297 m 748 785 q 731 779 742 779 q 684 800 713 779 q 668 826 675 806 q 668 867 656 856 l 854 1079 q 883 1092 867 1092 q 943 1070 921 1092 q 960 1043 954 1061 q 966 1018 966 1025 q 964 999 966 1010 q 954 979 962 987 l 748 785 m 484 785 q 467 779 478 779 q 420 800 449 779 q 405 823 411 807 q 399 846 399 838 q 404 867 399 862 l 591 1079 q 619 1092 603 1092 q 679 1070 657 1092 q 703 1016 703 1052 q 690 979 703 991 l 484 785 z "},"Œ":{"ha":1126,"x_min":157,"x_max":1284,"o":"m 558 0 l 559 5 q 427 -20 494 -20 q 312 1 359 -20 q 236 54 264 21 q 189 133 207 87 q 157 316 157 214 q 171 483 157 417 q 197 590 184 549 q 230 680 209 630 q 277 775 251 730 q 340 864 303 820 q 420 939 378 907 q 638 1010 515 1010 q 768 987 714 1010 l 1284 987 l 1251 825 l 916 825 l 865 587 l 1157 587 l 1122 425 l 830 425 l 774 163 l 1109 163 l 1075 0 l 558 0 m 720 758 q 604 847 707 847 q 480 779 532 847 q 410 656 431 715 q 347 325 347 471 q 454 144 347 144 q 610 243 557 144 l 720 758 z "},"œ":{"ha":1103,"x_min":127,"x_max":1133,"o":"m 740 441 l 966 441 q 970 490 970 474 q 884 589 970 589 q 792 548 825 589 q 740 441 759 507 m 1021 115 q 761 -20 905 -20 q 572 75 636 -20 q 359 -20 476 -20 q 184 54 241 -20 q 127 246 127 127 q 144 387 127 304 q 213 555 162 469 q 343 693 264 640 q 515 746 422 746 q 694 653 637 746 q 908 745 795 745 q 1078 676 1022 745 q 1133 490 1133 608 q 1119 364 1133 431 l 1109 318 l 713 318 q 705 244 705 274 q 794 136 705 136 q 838 145 822 136 q 881 181 853 155 l 1021 115 m 311 364 q 298 258 298 304 q 387 140 298 140 q 551 364 501 140 q 565 477 565 432 q 481 587 565 587 q 311 364 358 587 z "},"Ŕ":{"ha":821,"x_min":78,"x_max":903,"o":"m 378 559 l 427 559 q 646 593 592 559 q 709 691 695 625 q 713 731 713 710 q 703 770 713 752 q 674 799 692 788 q 625 815 656 809 q 483 825 573 825 l 435 825 l 378 559 m 405 393 l 343 394 l 260 -1 l 78 -1 l 288 987 l 469 987 q 640 980 593 987 q 721 966 686 974 q 780 947 755 958 q 829 919 804 936 q 869 880 854 902 q 903 764 903 830 q 895 691 903 731 q 631 425 849 479 l 785 -1 l 578 -1 l 446 395 q 405 393 428 393 m 553 1036 q 509 1072 531 1036 q 505 1136 490 1100 q 512 1145 507 1141 l 739 1312 q 756 1319 747 1319 q 817 1280 793 1319 q 826 1249 826 1267 q 802 1184 826 1201 l 562 1040 q 553 1036 557 1036 z "},"ŕ":{"ha":582,"x_min":83,"x_max":710,"o":"m 616 547 q 516 589 552 589 q 449 569 481 589 q 395 517 417 549 q 338 375 355 455 l 258 0 l 83 0 l 237 728 l 412 728 l 389 618 q 487 710 430 673 q 582 747 545 747 q 710 684 656 747 l 616 547 m 441 802 q 433 799 435 799 q 387 835 409 799 q 379 865 381 845 l 379 875 q 380 888 379 884 q 391 907 386 905 l 618 1075 q 635 1082 627 1082 q 696 1043 673 1082 q 705 1012 705 1029 q 681 947 705 964 l 441 802 z "},"Ŗ":{"ha":821,"x_min":78,"x_max":903,"o":"m 378 559 l 427 559 q 646 593 592 559 q 709 691 695 625 q 713 731 713 710 q 703 770 713 752 q 674 799 692 788 q 625 815 656 809 q 483 825 573 825 l 435 825 l 378 559 m 405 393 l 343 394 l 260 -1 l 78 -1 l 288 987 l 469 987 q 640 980 593 987 q 721 966 686 974 q 780 947 755 958 q 829 919 804 936 q 869 880 854 902 q 903 764 903 830 q 895 691 903 731 q 631 425 849 479 l 785 -1 l 578 -1 l 446 395 q 405 393 428 393 m 238 -161 q 250 -155 241 -160 q 264 -148 259 -151 q 279 -141 269 -146 q 294 -132 288 -136 q 308 -124 300 -129 q 321 -114 315 -119 q 331 -105 326 -110 q 347 -61 347 -90 q 330 -11 347 -33 l 453 50 q 499 -61 499 0 q 496 -90 499 -77 q 307 -242 481 -161 q 296 -248 300 -246 l 238 -161 z "},"ŗ":{"ha":582,"x_min":48,"x_max":710,"o":"m 616 547 q 516 589 552 589 q 449 569 481 589 q 395 517 417 549 q 338 375 355 455 l 258 0 l 83 0 l 237 728 l 412 728 l 389 618 q 487 710 430 673 q 582 747 545 747 q 710 684 656 747 l 616 547 m 48 -161 q 60 -155 51 -160 q 74 -148 69 -151 q 89 -141 79 -146 q 104 -132 98 -136 q 118 -124 110 -129 q 131 -114 125 -119 q 141 -105 136 -110 q 157 -61 157 -90 q 140 -11 157 -33 l 263 50 q 309 -61 309 0 q 307 -90 309 -77 q 117 -242 291 -161 q 106 -248 110 -246 l 48 -161 z "},"Ř":{"ha":821,"x_min":78,"x_max":910,"o":"m 378 559 l 427 559 q 646 593 592 559 q 709 691 695 625 q 713 731 713 710 q 703 770 713 752 q 674 799 692 788 q 625 815 656 809 q 483 825 573 825 l 435 825 l 378 559 m 405 393 l 343 394 l 260 -1 l 78 -1 l 288 987 l 469 987 q 640 980 593 987 q 721 966 686 974 q 780 947 755 958 q 829 919 804 936 q 869 880 854 902 q 903 764 903 830 q 895 691 903 731 q 631 425 849 479 l 785 -1 l 578 -1 l 446 395 q 405 393 428 393 m 910 1290 l 668 1057 l 508 1057 l 365 1288 l 553 1288 l 614 1181 l 726 1290 l 910 1290 z "},"ř":{"ha":582,"x_min":83,"x_max":807,"o":"m 616 547 q 516 589 552 589 q 449 569 481 589 q 395 517 417 549 q 338 375 355 455 l 258 0 l 83 0 l 237 728 l 412 728 l 389 618 q 487 710 430 673 q 582 747 545 747 q 710 684 656 747 l 616 547 m 807 987 l 565 754 l 405 754 l 262 985 l 450 985 l 511 878 l 623 987 l 807 987 z "},"Ś":{"ha":815,"x_min":114,"x_max":909,"o":"m 717 770 q 601 848 700 848 q 435 739 458 848 q 433 716 433 731 q 449 680 433 701 q 494 642 465 659 q 552 613 524 626 q 616 586 580 601 q 783 480 735 537 q 830 345 830 422 q 822 274 830 313 q 679 60 793 140 q 422 -20 564 -20 q 197 55 281 -20 q 114 252 114 130 q 115 274 114 267 l 302 303 q 338 194 305 239 q 450 144 373 144 q 575 180 526 144 q 640 304 640 228 q 582 397 640 361 q 476 449 543 420 q 379 493 409 477 q 328 524 349 509 q 286 561 307 538 q 242 680 242 606 q 249 739 242 708 q 330 891 268 827 q 635 1012 446 1012 q 824 953 749 1012 q 909 804 899 894 l 717 770 m 618 1036 q 574 1072 596 1036 q 570 1136 555 1100 q 577 1145 572 1141 l 804 1312 q 821 1319 812 1319 q 882 1280 859 1319 q 891 1249 891 1267 q 867 1184 891 1201 l 627 1040 q 618 1036 622 1036 z "},"ś":{"ha":650,"x_min":95,"x_max":765,"o":"m 709 553 l 708 543 l 539 514 l 539 522 q 520 576 539 562 q 461 590 500 590 q 397 578 422 590 q 365 531 372 566 q 363 512 363 523 q 379 487 363 500 q 414 464 394 473 q 472 440 435 456 q 552 402 510 425 q 647 249 647 351 q 529 38 647 112 q 326 -20 437 -20 q 155 39 215 -20 q 95 197 96 97 l 258 223 l 258 220 q 286 158 258 180 q 348 136 315 136 q 397 138 380 136 q 431 146 414 140 q 475 200 467 159 q 476 220 476 208 q 459 248 476 231 q 419 276 441 265 q 361 303 397 286 q 284 343 325 319 q 218 399 244 368 q 193 471 193 430 q 300 693 193 621 q 494 746 379 746 q 656 685 600 746 q 709 553 709 629 m 492 800 q 448 836 470 800 q 444 900 429 864 q 451 909 446 905 l 677 1076 q 695 1083 686 1083 q 756 1044 732 1083 q 765 1013 765 1031 q 741 948 765 966 l 501 804 q 492 800 496 800 z "},"Ŝ":{"ha":815,"x_min":114,"x_max":909,"o":"m 717 770 q 601 848 700 848 q 435 739 458 848 q 433 716 433 731 q 449 680 433 701 q 494 642 465 659 q 552 613 524 626 q 616 586 580 601 q 783 480 735 537 q 830 345 830 422 q 822 274 830 313 q 679 60 793 140 q 422 -20 564 -20 q 197 55 281 -20 q 114 252 114 130 q 115 274 114 267 l 302 303 q 338 194 305 239 q 450 144 373 144 q 575 180 526 144 q 640 304 640 228 q 582 397 640 361 q 476 449 543 420 q 379 493 409 477 q 328 524 349 509 q 286 561 307 538 q 242 680 242 606 q 249 739 242 708 q 330 891 268 827 q 635 1012 446 1012 q 824 953 749 1012 q 909 804 899 894 l 717 770 m 906 1059 l 722 1059 l 656 1168 l 549 1061 l 361 1061 l 603 1293 l 763 1293 l 906 1059 z "},"ŝ":{"ha":650,"x_min":95,"x_max":777,"o":"m 709 553 l 708 543 l 539 514 l 539 522 q 520 576 539 562 q 461 590 500 590 q 397 578 422 590 q 365 531 372 566 q 363 512 363 523 q 379 487 363 500 q 414 464 394 473 q 472 440 435 456 q 552 402 510 425 q 647 249 647 351 q 529 38 647 112 q 326 -20 437 -20 q 155 39 215 -20 q 95 197 96 97 l 258 223 l 258 220 q 286 158 258 180 q 348 136 315 136 q 397 138 380 136 q 431 146 414 140 q 475 200 467 159 q 476 220 476 208 q 459 248 476 231 q 419 276 441 265 q 361 303 397 286 q 284 343 325 319 q 218 399 244 368 q 193 471 193 430 q 300 693 193 621 q 494 746 379 746 q 656 685 600 746 q 709 553 709 629 m 777 776 l 593 776 l 527 885 l 420 778 l 233 778 l 474 1009 l 634 1009 l 777 776 z "},"Ş":{"ha":815,"x_min":114,"x_max":909,"o":"m 717 770 q 601 848 700 848 q 435 739 458 848 q 433 716 433 731 q 449 680 433 701 q 494 642 465 659 q 552 613 524 626 q 616 586 580 601 q 783 480 735 537 q 830 345 830 422 q 822 274 830 313 q 679 60 793 140 q 422 -20 564 -20 q 197 55 281 -20 q 114 252 114 130 q 115 274 114 267 l 302 303 q 338 194 305 239 q 450 144 373 144 q 575 180 526 144 q 640 304 640 228 q 582 397 640 361 q 476 449 543 420 q 379 493 409 477 q 328 524 349 509 q 286 561 307 538 q 242 680 242 606 q 249 739 242 708 q 330 891 268 827 q 635 1012 446 1012 q 824 953 749 1012 q 909 804 899 894 l 717 770 m 238 -161 q 250 -155 241 -160 q 264 -148 259 -151 q 279 -141 269 -146 q 294 -132 288 -136 q 308 -124 300 -129 q 321 -114 315 -119 q 331 -105 326 -110 q 347 -61 347 -90 q 330 -11 347 -33 l 453 50 q 499 -61 499 0 q 496 -90 499 -77 q 307 -242 481 -161 q 296 -248 300 -246 l 238 -161 z "},"ş":{"ha":650,"x_min":95,"x_max":709,"o":"m 709 553 l 708 543 l 539 514 l 539 522 q 520 576 539 562 q 461 590 500 590 q 397 578 422 590 q 365 531 372 566 q 363 512 363 523 q 379 487 363 500 q 414 464 394 473 q 472 440 435 456 q 552 402 510 425 q 647 249 647 351 q 529 38 647 112 q 326 -20 437 -20 q 155 39 215 -20 q 95 197 96 97 l 258 223 l 258 220 q 286 158 258 180 q 348 136 315 136 q 397 138 380 136 q 431 146 414 140 q 475 200 467 159 q 476 220 476 208 q 459 248 476 231 q 419 276 441 265 q 361 303 397 286 q 284 343 325 319 q 218 399 244 368 q 193 471 193 430 q 300 693 193 621 q 494 746 379 746 q 656 685 600 746 q 709 553 709 629 m 153 -161 q 165 -155 156 -160 q 179 -148 174 -151 q 194 -141 184 -146 q 209 -132 203 -136 q 223 -124 215 -129 q 236 -114 231 -119 q 247 -105 241 -110 q 262 -61 262 -90 q 245 -11 262 -33 l 368 50 q 414 -61 414 0 q 412 -90 414 -77 q 222 -242 396 -161 q 212 -248 215 -246 l 153 -161 z "},"Š":{"ha":815,"x_min":114,"x_max":992,"o":"m 717 770 q 601 848 700 848 q 435 739 458 848 q 433 716 433 731 q 449 680 433 701 q 494 642 465 659 q 552 613 524 626 q 616 586 580 601 q 783 480 735 537 q 830 345 830 422 q 822 274 830 313 q 679 60 793 140 q 422 -20 564 -20 q 197 55 281 -20 q 114 252 114 130 q 115 274 114 267 l 302 303 q 338 194 305 239 q 450 144 373 144 q 575 180 526 144 q 640 304 640 228 q 582 397 640 361 q 476 449 543 420 q 379 493 409 477 q 328 524 349 509 q 286 561 307 538 q 242 680 242 606 q 249 739 242 708 q 330 891 268 827 q 635 1012 446 1012 q 824 953 749 1012 q 909 804 899 894 l 717 770 m 992 1293 l 750 1059 l 590 1059 l 446 1291 l 634 1291 l 696 1183 l 808 1293 l 992 1293 z "},"š":{"ha":650,"x_min":95,"x_max":820,"o":"m 709 553 l 708 543 l 539 514 l 539 522 q 520 576 539 562 q 461 590 500 590 q 397 578 422 590 q 365 531 372 566 q 363 512 363 523 q 379 487 363 500 q 414 464 394 473 q 472 440 435 456 q 552 402 510 425 q 647 249 647 351 q 529 38 647 112 q 326 -20 437 -20 q 155 39 215 -20 q 95 197 96 97 l 258 223 l 258 220 q 286 158 258 180 q 348 136 315 136 q 397 138 380 136 q 431 146 414 140 q 475 200 467 159 q 476 220 476 208 q 459 248 476 231 q 419 276 441 265 q 361 303 397 286 q 284 343 325 319 q 218 399 244 368 q 193 471 193 430 q 300 693 193 621 q 494 746 379 746 q 656 685 600 746 q 709 553 709 629 m 820 988 l 578 755 l 418 755 l 274 986 l 462 986 l 523 879 l 636 988 l 820 988 z "},"Ţ":{"ha":918,"x_min":228,"x_max":1078,"o":"m 262 987 l 1078 987 l 1043 825 l 733 825 l 558 0 l 376 0 l 551 825 l 228 825 l 262 987 m 291 -161 q 303 -155 294 -160 q 317 -148 312 -151 q 332 -141 322 -146 q 347 -132 341 -136 q 360 -124 353 -129 q 374 -114 368 -119 q 384 -105 379 -110 q 400 -61 400 -90 q 383 -11 400 -33 l 506 50 q 552 -61 552 0 q 549 -90 552 -77 q 360 -242 534 -161 q 349 -248 353 -246 l 291 -161 z "},"ţ":{"ha":479,"x_min":81,"x_max":578,"o":"m 266 572 l 170 572 l 203 728 l 299 728 l 335 897 l 510 897 l 474 728 l 578 728 l 545 572 l 441 572 l 362 201 q 360 183 360 191 q 424 137 360 137 l 450 137 l 419 -10 l 393 -10 q 227 23 277 -10 q 178 127 178 56 q 186 199 178 156 l 266 572 m 81 -161 q 93 -155 84 -160 q 107 -148 102 -151 q 122 -141 113 -146 q 137 -132 132 -136 q 151 -124 143 -129 q 164 -114 159 -119 q 175 -105 170 -110 q 191 -61 191 -90 q 174 -11 191 -33 l 296 50 q 342 -61 342 0 q 340 -90 342 -77 q 151 -242 324 -161 q 140 -248 143 -246 l 81 -161 z "},"Ť":{"ha":918,"x_min":228,"x_max":1078,"o":"m 262 987 l 1078 987 l 1043 825 l 733 825 l 558 0 l 376 0 l 551 825 l 228 825 l 262 987 m 1019 1294 l 777 1061 l 616 1061 l 473 1292 l 661 1292 l 722 1185 l 836 1294 l 1019 1294 z "},"ť":{"ha":600,"x_min":170,"x_max":780,"o":"m 266 572 l 170 572 l 203 728 l 299 728 l 335 897 l 510 897 l 474 728 l 578 728 l 545 572 l 441 572 l 362 201 q 360 183 360 191 q 424 137 360 137 l 450 137 l 419 -10 l 393 -10 q 227 23 277 -10 q 178 127 178 56 q 186 199 178 156 l 266 572 m 717 1027 q 780 951 780 1027 q 758 884 780 924 q 695 793 726 824 q 653 754 664 762 l 623 777 q 655 834 651 819 q 659 849 659 848 q 620 911 620 860 q 653 995 620 962 q 717 1027 686 1027 z "},"Ŧ":{"ha":918,"x_min":228,"x_max":1078,"o":"m 262 987 l 1078 987 l 1043 825 l 733 825 l 667 511 l 833 511 l 798 349 l 632 349 l 558 0 l 376 0 l 450 349 l 275 349 l 309 511 l 485 511 l 551 825 l 228 825 l 262 987 z "},"ŧ":{"ha":479,"x_min":101,"x_max":578,"o":"m 266 572 l 170 572 l 203 728 l 299 728 l 335 897 l 510 897 l 474 728 l 578 728 l 545 572 l 441 572 l 428 511 l 553 511 l 518 349 l 393 349 l 362 201 q 360 183 360 191 q 424 137 360 137 l 450 137 l 419 -10 l 393 -10 q 227 23 277 -10 q 178 127 178 56 q 186 199 178 156 l 218 349 l 101 349 l 136 511 l 253 511 l 266 572 z "},"Ũ":{"ha":913,"x_min":148,"x_max":996,"o":"m 427 -24 q 219 54 290 -24 q 148 267 148 132 q 163 397 148 329 l 288 987 l 469 987 l 345 397 q 333 285 333 342 q 363 183 333 228 q 462 139 394 139 q 636 254 569 139 q 690 397 673 317 l 814 987 l 996 987 l 871 397 q 714 92 831 208 q 427 -24 597 -24 m 488 1227 q 507 1241 492 1230 q 627 1297 578 1297 q 708 1246 667 1297 q 791 1194 749 1194 q 873 1224 833 1194 q 928 1267 912 1255 l 890 1090 q 850 1063 884 1084 q 761 1027 792 1027 q 664 1078 709 1027 q 595 1130 620 1130 q 532 1116 555 1130 q 494 1092 509 1102 q 453 1064 462 1069 l 488 1227 z "},"ũ":{"ha":754,"x_min":130,"x_max":835,"o":"m 680 0 l 505 0 l 528 109 q 420 17 486 54 q 282 -20 353 -20 q 171 35 212 -20 q 130 177 130 89 q 151 363 130 266 l 228 728 l 403 728 l 326 363 q 313 258 313 302 q 400 140 313 140 q 496 182 448 140 q 582 364 553 231 l 659 728 l 835 728 l 680 0 m 376 1013 q 392 1023 381 1016 q 476 1075 449 1067 q 519 1082 503 1082 q 597 1031 558 1082 q 681 979 635 979 q 774 1019 722 979 q 784 1026 777 1021 q 800 1038 791 1031 q 817 1052 808 1045 l 779 876 q 645 812 694 812 q 553 863 598 812 q 484 915 509 915 q 422 901 446 915 q 383 877 398 887 q 356 859 368 867 q 342 849 345 851 l 376 1013 z "},"Ū":{"ha":913,"x_min":148,"x_max":996,"o":"m 427 -24 q 219 54 290 -24 q 148 267 148 132 q 163 397 148 329 l 288 987 l 469 987 l 345 397 q 333 285 333 342 q 363 183 333 228 q 462 139 394 139 q 636 254 569 139 q 690 397 673 317 l 814 987 l 996 987 l 871 397 q 714 92 831 208 q 427 -24 597 -24 m 431 1230 l 955 1230 l 937 1143 l 413 1143 l 431 1230 z "},"ū":{"ha":754,"x_min":130,"x_max":852,"o":"m 680 0 l 505 0 l 528 109 q 420 17 486 54 q 282 -20 353 -20 q 171 35 212 -20 q 130 177 130 89 q 151 363 130 266 l 228 728 l 403 728 l 326 363 q 313 258 313 302 q 400 140 313 140 q 496 182 448 140 q 582 364 553 231 l 659 728 l 835 728 l 680 0 m 328 961 l 852 961 l 833 875 l 310 875 l 328 961 z "},"Ŭ":{"ha":913,"x_min":148,"x_max":996,"o":"m 427 -24 q 219 54 290 -24 q 148 267 148 132 q 163 397 148 329 l 288 987 l 469 987 l 345 397 q 333 285 333 342 q 363 183 333 228 q 462 139 394 139 q 636 254 569 139 q 690 397 673 317 l 814 987 l 996 987 l 871 397 q 714 92 831 208 q 427 -24 597 -24 m 873 1137 q 775 1059 836 1090 q 661 1028 715 1028 q 558 1060 606 1028 q 491 1140 509 1091 q 473 1233 473 1190 q 484 1317 473 1276 l 593 1317 q 651 1200 614 1229 q 695 1190 665 1190 q 741 1199 726 1190 q 852 1317 778 1221 l 959 1317 q 955 1296 959 1316 q 873 1137 937 1215 z "},"ŭ":{"ha":754,"x_min":130,"x_max":835,"o":"m 680 0 l 505 0 l 528 109 q 420 17 486 54 q 282 -20 353 -20 q 171 35 212 -20 q 130 177 130 89 q 151 363 130 266 l 228 728 l 403 728 l 326 363 q 313 258 313 302 q 400 140 313 140 q 496 182 448 140 q 582 364 553 231 l 659 728 l 835 728 l 680 0 m 651 824 q 621 809 651 824 q 536 793 590 793 q 433 825 481 793 q 367 905 385 856 q 349 997 349 955 q 359 1082 349 1039 l 469 1082 q 526 965 489 994 q 570 955 540 955 q 616 964 601 955 q 728 1082 653 987 l 834 1082 q 749 902 827 998 q 651 824 712 855 z "},"Ů":{"ha":913,"x_min":148,"x_max":996,"o":"m 427 -24 q 219 54 290 -24 q 148 267 148 132 q 163 397 148 329 l 288 987 l 469 987 l 345 397 q 333 285 333 342 q 363 183 333 228 q 462 139 394 139 q 636 254 569 139 q 690 397 673 317 l 814 987 l 996 987 l 871 397 q 714 92 831 208 q 427 -24 597 -24 m 619 1147 q 633 1110 619 1128 q 677 1092 647 1092 q 732 1114 707 1092 q 760 1154 756 1135 q 764 1187 764 1173 q 750 1219 764 1201 q 706 1238 736 1238 q 648 1213 676 1238 q 619 1147 619 1188 m 533 1131 q 605 1272 533 1215 q 725 1317 660 1317 q 820 1278 789 1317 q 850 1197 850 1239 q 779 1057 850 1116 q 660 1013 726 1013 q 564 1050 595 1013 q 533 1131 533 1088 z "},"ů":{"ha":754,"x_min":130,"x_max":835,"o":"m 680 0 l 505 0 l 528 109 q 420 17 486 54 q 282 -20 353 -20 q 171 35 212 -20 q 130 177 130 89 q 151 363 130 266 l 228 728 l 403 728 l 326 363 q 313 258 313 302 q 400 140 313 140 q 496 182 448 140 q 582 364 553 231 l 659 728 l 835 728 l 680 0 m 588 1004 q 573 1004 588 1004 q 530 979 558 1004 q 501 924 501 954 q 515 876 501 894 q 558 858 528 858 q 617 883 589 858 q 646 952 646 908 q 632 986 646 968 q 588 1004 618 1004 m 414 897 q 486 1038 414 979 q 606 1083 541 1083 q 701 1044 670 1083 q 732 963 732 1004 q 661 823 732 882 q 542 779 608 779 q 446 817 477 779 q 414 897 414 855 z "},"Ű":{"ha":880,"x_min":148,"x_max":1027,"o":"m 427 -24 q 219 54 290 -24 q 148 267 148 132 q 163 397 148 329 l 288 987 l 469 987 l 345 397 q 333 285 333 342 q 363 183 333 228 q 462 139 394 139 q 636 254 569 139 q 690 397 673 317 l 814 987 l 996 987 l 871 397 q 714 92 831 208 q 427 -24 597 -24 m 808 1013 q 791 1006 802 1006 q 744 1028 772 1006 q 728 1054 736 1034 q 728 1095 717 1084 l 916 1307 q 944 1320 928 1320 q 1004 1298 982 1320 q 1021 1271 1015 1290 q 1027 1245 1027 1253 q 1024 1226 1027 1238 q 1014 1206 1022 1215 l 808 1013 m 545 1013 q 528 1006 538 1006 q 480 1028 508 1006 q 465 1050 471 1035 q 459 1074 459 1066 q 465 1095 459 1090 l 652 1307 q 680 1320 664 1320 q 740 1298 718 1320 q 758 1272 751 1289 q 764 1245 764 1254 q 750 1206 764 1220 l 545 1013 z "},"ű":{"ha":694,"x_min":130,"x_max":932,"o":"m 680 0 l 505 0 l 528 109 q 420 17 486 54 q 282 -20 353 -20 q 171 35 212 -20 q 130 177 130 89 q 151 363 130 266 l 228 728 l 403 728 l 326 363 q 313 258 313 302 q 400 140 313 140 q 496 182 448 140 q 582 364 553 231 l 659 728 l 835 728 l 680 0 m 713 785 q 696 779 707 779 q 649 800 678 779 q 633 826 641 806 q 633 867 622 856 l 820 1079 q 848 1092 832 1092 q 908 1070 886 1092 q 926 1043 920 1061 q 932 1018 932 1025 q 929 999 932 1010 q 919 979 927 987 l 713 785 m 450 785 q 433 779 444 779 q 385 800 414 779 q 370 823 376 807 q 364 846 364 838 q 370 867 364 862 l 556 1079 q 585 1092 568 1092 q 644 1070 623 1092 q 668 1016 668 1052 q 655 979 668 991 l 450 785 z "},"Ų":{"ha":913,"x_min":148,"x_max":996,"o":"m 427 -24 q 219 54 290 -24 q 148 267 148 132 q 163 397 148 329 l 288 987 l 469 987 l 345 397 q 333 285 333 342 q 363 183 333 228 q 462 139 394 139 q 636 254 569 139 q 690 397 673 317 l 814 987 l 996 987 l 871 397 q 714 92 831 208 q 427 -24 597 -24 m 553 -147 l 458 -233 q 424 -213 446 -227 q 391 -192 402 -199 q 364 -169 380 -185 q 329 -120 333 -138 q 324 -92 324 -102 q 326 -76 324 -81 q 429 64 342 0 l 526 3 q 490 -40 496 -22 q 480 -70 483 -58 q 488 -95 478 -81 q 523 -127 500 -112 q 553 -147 545 -143 z "},"ų":{"ha":754,"x_min":130,"x_max":835,"o":"m 680 0 l 505 0 l 528 109 q 420 17 486 54 q 282 -20 353 -20 q 171 35 212 -20 q 130 177 130 89 q 151 363 130 266 l 228 728 l 403 728 l 326 363 q 313 258 313 302 q 400 140 313 140 q 496 182 448 140 q 582 364 553 231 l 659 728 l 835 728 l 680 0 m 705 -147 l 610 -233 q 576 -213 598 -227 q 543 -192 554 -199 q 516 -169 532 -185 q 480 -120 485 -138 q 476 -92 476 -102 q 477 -76 476 -81 q 581 64 494 0 l 677 3 q 642 -40 648 -22 q 632 -70 635 -58 q 640 -95 630 -81 q 674 -127 652 -112 q 705 -147 697 -143 z "},"Ŵ":{"ha":1132,"x_min":212,"x_max":1258,"o":"m 260 987 l 444 987 l 392 338 l 649 969 l 862 969 l 850 334 l 1074 987 l 1258 987 l 887 0 l 670 0 l 690 661 l 429 0 l 212 0 l 260 987 m 1067 1059 l 883 1059 l 817 1168 l 710 1061 l 522 1061 l 764 1293 l 924 1293 l 1067 1059 z "},"ŵ":{"ha":983,"x_min":193,"x_max":1094,"o":"m 581 450 l 389 0 l 252 0 l 193 728 l 366 728 l 384 274 l 569 730 l 726 730 l 718 276 l 929 728 l 1094 728 l 726 0 l 577 0 l 581 450 m 924 777 l 740 777 l 674 886 l 567 779 l 379 779 l 621 1010 l 781 1010 l 924 777 z "},"Ŷ":{"ha":891,"x_min":255,"x_max":1063,"o":"m 255 987 l 486 987 l 591 665 l 833 987 l 1063 987 l 641 468 l 541 0 l 359 0 l 459 468 l 255 987 m 943 1059 l 759 1059 l 692 1168 l 586 1061 l 398 1061 l 640 1293 l 800 1293 l 943 1059 z "},"ŷ":{"ha":750,"x_min":62,"x_max":835,"o":"m 676 -20 q 601 -161 661 -92 q 461 -273 541 -230 q 294 -315 380 -315 q 144 -268 208 -315 q 62 -152 80 -221 l 217 -76 q 253 -136 222 -113 q 340 -158 285 -158 q 440 -126 395 -158 q 496 -40 485 -94 l 528 109 q 420 17 486 54 q 282 -20 353 -20 q 171 35 212 -20 q 130 177 130 89 q 151 363 130 266 l 228 728 l 403 728 l 326 363 q 313 258 313 302 q 400 140 313 140 q 496 182 448 140 q 582 364 553 231 l 659 728 l 835 728 l 676 -20 m 812 776 l 629 776 l 562 885 l 456 778 l 268 778 l 509 1009 l 669 1009 l 812 776 z "},"Ÿ":{"ha":891,"x_min":255,"x_max":1063,"o":"m 255 987 l 486 987 l 591 665 l 833 987 l 1063 987 l 641 468 l 541 0 l 359 0 l 459 468 l 255 987 m 431 1168 q 476 1265 431 1228 q 568 1303 522 1303 q 636 1275 614 1303 q 658 1225 658 1247 q 612 1117 658 1154 q 521 1080 567 1080 q 453 1109 475 1080 q 431 1168 431 1137 m 750 1168 q 795 1265 750 1228 q 887 1303 841 1303 q 955 1275 933 1303 q 977 1225 977 1247 q 931 1117 977 1154 q 840 1080 886 1080 q 772 1109 794 1080 q 750 1168 750 1137 z "},"Ź":{"ha":961,"x_min":49,"x_max":1095,"o":"m 304 987 l 1095 987 l 393 163 l 916 163 l 882 0 l 49 0 l 753 825 l 269 825 l 304 987 m 680 1036 q 635 1072 656 1036 q 631 1136 617 1101 q 639 1145 633 1141 l 865 1312 q 883 1319 874 1319 q 944 1280 920 1319 q 953 1249 953 1267 q 928 1184 953 1202 l 689 1040 q 680 1036 684 1036 z "},"ź":{"ha":682,"x_min":45,"x_max":779,"o":"m 362 163 l 637 163 l 603 0 l 45 0 l 460 566 l 198 566 l 233 728 l 779 728 l 362 163 m 473 800 q 429 836 451 800 q 425 900 410 864 q 432 909 427 905 l 659 1076 q 677 1083 667 1083 q 737 1044 713 1083 q 746 1013 746 1031 q 722 948 746 966 l 482 804 q 473 800 477 800 z "},"Ż":{"ha":961,"x_min":49,"x_max":1095,"o":"m 304 987 l 1095 987 l 393 163 l 916 163 l 882 0 l 49 0 l 753 825 l 269 825 l 304 987 m 625 1133 q 671 1230 625 1193 q 764 1267 718 1267 q 831 1240 810 1267 q 853 1190 853 1212 q 808 1082 853 1119 q 716 1045 762 1045 q 648 1074 670 1045 q 625 1133 625 1103 z "},"ż":{"ha":682,"x_min":45,"x_max":779,"o":"m 362 163 l 637 163 l 603 0 l 45 0 l 460 566 l 198 566 l 233 728 l 779 728 l 362 163 m 431 891 q 477 989 431 952 q 568 1026 522 1026 q 637 998 614 1026 q 659 947 659 969 q 613 841 659 878 q 521 804 567 804 q 453 832 475 804 q 431 891 431 860 z "},"Ž":{"ha":961,"x_min":49,"x_max":1095,"o":"m 304 987 l 1095 987 l 393 163 l 916 163 l 882 0 l 49 0 l 753 825 l 269 825 l 304 987 m 1035 1293 l 793 1059 l 633 1059 l 489 1291 l 677 1291 l 739 1183 l 851 1293 l 1035 1293 z "},"ž":{"ha":682,"x_min":45,"x_max":839,"o":"m 362 163 l 637 163 l 603 0 l 45 0 l 460 566 l 198 566 l 233 728 l 779 728 l 362 163 m 839 1010 l 597 777 l 437 777 l 294 1008 l 481 1008 l 543 901 l 655 1010 l 839 1010 z "},"ſ":{"ha":530,"x_min":144,"x_max":738,"o":"m 144 0 l 311 782 q 410 930 326 852 q 498 987 449 965 q 596 1010 548 1010 q 738 949 689 1010 l 611 828 q 587 847 604 840 q 548 854 570 854 q 488 795 500 854 l 319 0 l 144 0 z "},"ƒ":{"ha":869,"x_min":-29,"x_max":1018,"o":"m 629 585 l 158 -228 l -29 -228 l 449 593 l 345 595 l 429 741 l 534 738 l 583 827 q 638 888 599 857 q 819 970 728 963 q 886 974 859 974 q 928 968 913 974 q 1018 898 1008 937 l 981 738 q 937 811 978 781 q 842 836 915 828 l 839 836 q 777 817 818 836 q 742 780 761 810 l 708 728 l 837 728 l 753 583 l 629 585 z "},"Ǣ":{"ha":1065,"x_min":7,"x_max":1210,"o":"m 684 1215 l 1208 1215 l 1173 1053 l 649 1053 l 684 1215 m 642 405 l 453 405 l 209 0 l 7 0 l 608 989 l 1210 989 l 1173 816 l 910 816 l 858 570 l 1121 570 l 1084 400 l 820 400 l 771 170 l 1036 170 l 1000 0 l 556 0 l 642 405 m 742 873 l 543 570 l 677 570 l 742 873 z "},"ǣ":{"ha":1142,"x_min":98,"x_max":1181,"o":"m 509 958 l 1034 958 l 999 795 l 475 795 l 509 958 m 702 286 q 700 256 700 270 q 760 146 700 172 q 810 136 779 136 q 941 207 895 136 l 1092 160 q 892 1 1025 48 q 777 -20 831 -20 q 564 98 635 -20 q 507 50 533 71 q 338 -20 436 -20 q 136 77 202 -20 q 98 198 98 130 q 105 257 98 223 q 251 469 133 389 q 439 531 342 531 q 564 496 537 531 q 567 523 567 509 q 536 588 567 566 q 453 609 506 609 q 353 593 399 609 q 297 576 306 578 l 290 709 q 411 745 381 741 q 498 748 440 748 q 707 656 656 748 q 940 745 816 745 q 1149 618 1087 745 q 1181 489 1181 555 q 1168 364 1181 422 l 1152 286 l 702 286 m 422 377 q 287 304 332 377 q 265 222 265 267 q 307 151 265 178 q 371 136 333 136 q 486 195 437 136 q 520 289 520 235 q 474 367 520 343 q 422 377 453 377 m 735 442 l 1016 442 q 1018 473 1018 458 q 971 572 1018 540 q 907 589 945 589 q 765 505 821 589 q 735 442 745 476 z "},"Ș":{"ha":815,"x_min":114,"x_max":909,"o":"m 336 -229 l 336 -222 q 292 -192 306 -215 q 277 -148 277 -169 q 323 -40 277 -80 q 417 0 368 0 q 486 -30 467 0 q 505 -79 505 -60 q 477 -178 505 -128 q 371 -309 437 -249 q 332 -341 349 -329 l 288 -312 q 336 -229 330 -257 m 717 770 q 601 848 700 848 q 435 739 458 848 q 433 716 433 731 q 449 680 433 701 q 494 642 465 659 q 552 613 524 626 q 616 586 580 601 q 783 480 735 537 q 830 345 830 422 q 822 274 830 313 q 679 60 793 140 q 422 -20 564 -20 q 197 55 281 -20 q 114 252 114 130 q 115 274 114 267 l 302 303 q 338 194 305 239 q 450 144 373 144 q 575 180 526 144 q 640 304 640 228 q 582 397 640 361 q 476 449 543 420 q 379 493 409 477 q 328 524 349 509 q 286 561 307 538 q 242 680 242 606 q 249 739 242 708 q 330 891 268 827 q 635 1012 446 1012 q 824 953 749 1012 q 909 804 899 894 l 717 770 z "},"ș":{"ha":650,"x_min":95,"x_max":709,"o":"m 241 -229 l 241 -222 q 197 -192 212 -215 q 183 -148 183 -169 q 229 -40 183 -80 q 323 0 274 0 q 391 -30 372 0 q 410 -79 410 -60 q 382 -178 410 -128 q 277 -309 342 -249 q 237 -341 255 -329 l 193 -312 q 241 -229 236 -257 m 709 553 l 708 543 l 539 514 l 539 522 q 520 576 539 562 q 461 590 500 590 q 397 578 422 590 q 365 531 372 566 q 363 512 363 523 q 379 487 363 500 q 414 464 394 473 q 472 440 435 456 q 552 402 510 425 q 647 249 647 351 q 529 38 647 112 q 326 -20 437 -20 q 155 39 215 -20 q 95 197 96 97 l 258 223 l 258 220 q 286 158 258 180 q 348 136 315 136 q 397 138 380 136 q 431 146 414 140 q 475 200 467 159 q 476 220 476 208 q 459 248 476 231 q 419 276 441 265 q 361 303 397 286 q 284 343 325 319 q 218 399 244 368 q 193 471 193 430 q 300 693 193 621 q 494 746 379 746 q 656 685 600 746 q 709 553 709 629 z "},"Ț":{"ha":918,"x_min":228,"x_max":1078,"o":"m 262 987 l 1078 987 l 1043 825 l 733 825 l 558 0 l 376 0 l 551 825 l 228 825 l 262 987 m 291 -161 q 303 -155 294 -160 q 317 -148 312 -151 q 332 -141 322 -146 q 347 -132 341 -136 q 360 -124 353 -129 q 374 -114 368 -119 q 384 -105 379 -110 q 400 -61 400 -90 q 383 -11 400 -33 l 506 50 q 552 -61 552 0 q 549 -90 552 -77 q 360 -242 534 -161 q 349 -248 353 -246 l 291 -161 z "},"ț":{"ha":479,"x_min":81,"x_max":578,"o":"m 266 572 l 170 572 l 203 728 l 299 728 l 335 897 l 510 897 l 474 728 l 578 728 l 545 572 l 441 572 l 362 201 q 360 183 360 191 q 424 137 360 137 l 450 137 l 419 -10 l 393 -10 q 227 23 277 -10 q 178 127 178 56 q 186 199 178 156 l 266 572 m 81 -161 q 93 -155 84 -160 q 107 -148 102 -151 q 122 -141 113 -146 q 137 -132 132 -136 q 151 -124 143 -129 q 164 -114 159 -119 q 175 -105 170 -110 q 191 -61 191 -90 q 174 -11 191 -33 l 296 50 q 342 -61 342 0 q 340 -90 342 -77 q 151 -242 324 -161 q 140 -248 143 -246 l 81 -161 z "},"ˆ":{"ha":913,"x_min":441,"x_max":985,"o":"m 985 1059 l 802 1059 l 735 1168 l 629 1061 l 441 1061 l 682 1293 l 842 1293 l 985 1059 z "},"ˇ":{"ha":913,"x_min":489,"x_max":1035,"o":"m 1035 1293 l 793 1059 l 633 1059 l 489 1291 l 677 1291 l 739 1183 l 851 1293 l 1035 1293 z "},"˘":{"ha":823,"x_min":524,"x_max":1010,"o":"m 925 1137 q 827 1059 887 1090 q 712 1028 766 1028 q 609 1060 658 1028 q 543 1140 561 1091 q 524 1233 524 1190 q 536 1317 524 1276 l 645 1317 q 703 1200 665 1229 q 747 1190 716 1190 q 793 1199 777 1190 q 904 1317 829 1221 l 1010 1317 q 1006 1296 1010 1316 q 925 1137 989 1215 z "},"˙":{"ha":594,"x_min":457,"x_max":684,"o":"m 457 1168 q 503 1265 457 1228 q 594 1303 548 1303 q 662 1275 640 1303 q 684 1225 684 1247 q 638 1117 684 1154 q 547 1080 593 1080 q 479 1109 501 1080 q 457 1168 457 1137 z "},"˚":{"ha":487,"x_min":332,"x_max":650,"o":"m 418 1147 q 432 1110 418 1128 q 476 1092 446 1092 q 531 1114 507 1092 q 559 1154 555 1135 q 564 1187 564 1173 q 550 1219 564 1201 q 506 1238 536 1238 q 447 1213 475 1238 q 418 1147 418 1188 m 332 1131 q 404 1272 332 1215 q 524 1317 459 1317 q 619 1278 588 1317 q 650 1197 650 1239 q 578 1057 650 1116 q 459 1013 525 1013 q 363 1050 394 1013 q 332 1131 332 1088 z "},"˛":{"ha":358,"x_min":20,"x_max":250,"o":"m 250 -147 l 155 -233 q 120 -213 142 -227 q 87 -192 98 -199 q 60 -169 77 -185 q 25 -120 29 -138 q 20 -92 20 -102 q 22 -76 20 -81 q 125 64 38 0 l 222 3 q 186 -40 193 -22 q 177 -70 179 -58 q 184 -95 174 -81 q 219 -127 196 -112 q 250 -147 241 -143 z "},"˜":{"ha":739,"x_min":397,"x_max":872,"o":"m 432 1227 q 451 1241 437 1230 q 571 1297 523 1297 q 652 1246 610 1297 q 736 1194 695 1194 q 817 1224 778 1194 q 872 1267 857 1255 l 835 1090 q 795 1063 828 1084 q 705 1027 736 1027 q 608 1078 653 1027 q 539 1130 564 1130 q 476 1116 499 1130 q 438 1092 454 1102 q 397 1064 406 1069 l 432 1227 z "},"˝":{"ha":880,"x_min":459,"x_max":1027,"o":"m 808 1013 q 791 1006 802 1006 q 744 1028 772 1006 q 728 1054 736 1034 q 728 1095 717 1084 l 916 1307 q 944 1320 928 1320 q 1004 1298 982 1320 q 1021 1271 1015 1290 q 1027 1245 1027 1253 q 1024 1226 1027 1238 q 1014 1206 1022 1215 l 808 1013 m 545 1013 q 528 1006 538 1006 q 480 1028 508 1006 q 465 1050 471 1035 q 459 1074 459 1066 q 465 1095 459 1090 l 652 1307 q 680 1320 664 1320 q 740 1298 718 1320 q 758 1272 751 1289 q 764 1245 764 1254 q 750 1206 764 1220 l 545 1013 z "},"̀":{"ha":0,"x_min":-423,"x_max":-159,"o":"m -159 883 l -346 883 l -423 1055 l -241 1055 l -159 883 z "},"́":{"ha":0,"x_min":-466,"x_max":-129,"o":"m -311 1055 l -129 1055 l -279 883 l -466 883 l -311 1055 z "},"̂":{"ha":0,"x_min":-455,"x_max":89,"o":"m 89 798 l -96 795 l -162 907 l -268 800 l -455 800 l -215 1030 l -54 1031 l 89 798 z "},"̃":{"ha":0,"x_min":-368,"x_max":109,"o":"m -333 987 q -268 1031 -270 1031 q -195 1057 -229 1057 q -114 1005 -161 1057 q -28 954 -66 954 l -24 954 q 103 1022 20 954 l 109 1026 l 69 850 l 10 808 q -68 785 -29 785 q -156 837 -106 785 q -231 888 -205 888 l -235 888 q -276 879 -256 888 q -332 846 -296 869 l -368 823 l -333 987 z "},"̄":{"ha":0,"x_min":-416,"x_max":142,"o":"m -382 958 l 142 958 l 108 795 l -416 795 l -382 958 z "},"̅":{"ha":0,"x_min":-380,"x_max":158,"o":"m -239 1006 q -227 966 -234 975 q -189 913 -215 930 q -130 897 -163 897 q -5 962 -62 897 l 26 1005 l 158 1005 q 66 883 108 925 q -35 811 24 842 q -155 780 -95 780 q -341 880 -282 780 q -380 1006 -363 918 l -239 1006 z "},"̆":{"ha":0,"x_min":-281,"x_max":-53,"o":"m -279 901 q -201 998 -264 967 q -144 1012 -176 1012 q -58 955 -77 1012 q -53 928 -53 941 q -56 901 -53 916 q -134 804 -71 835 q -191 789 -160 789 q -276 846 -256 789 q -281 875 -281 861 q -279 901 -281 890 z "},"̇":{"ha":0,"x_min":-479,"x_max":69,"o":"m -156 901 q -78 998 -142 967 q -21 1012 -53 1012 q 64 955 45 1012 q 69 926 69 941 q 66 901 69 911 q -12 804 52 835 q -68 789 -38 789 q -154 846 -134 789 q -159 874 -159 859 q -156 901 -159 889 m -476 901 q -398 998 -462 967 q -341 1012 -373 1012 q -256 955 -275 1012 q -250 928 -250 941 q -254 901 -250 916 q -331 804 -268 835 q -389 789 -357 789 q -474 846 -454 789 q -479 874 -479 859 q -476 901 -479 889 z "},"̊":{"ha":0,"x_min":-378,"x_max":64,"o":"m -233 1017 q -259 940 -259 981 q -222 878 -259 899 q -179 866 -201 866 q -81 919 -120 866 q -57 997 -57 957 q -93 1058 -57 1037 q -136 1069 -113 1069 q -233 1017 -195 1069 m -252 1137 q -112 1180 -187 1180 q 41 1097 -6 1180 q 64 1025 64 1058 q -62 800 64 880 q -202 756 -129 756 q -355 838 -308 756 q -378 911 -378 877 q -252 1137 -378 1055 z "},"̋":{"ha":0,"x_min":-466,"x_max":145,"o":"m -311 1055 l -129 1055 l -279 883 l -466 883 l -311 1055 m -37 1055 l 145 1055 l -5 883 l -192 883 l -37 1055 z "},"̌":{"ha":0,"x_min":-407,"x_max":138,"o":"m -104 795 l -264 797 l -407 1027 l -220 1027 l -159 920 l -45 1031 l 138 1029 l -104 795 z "},"̐":{"ha":0,"x_min":-380,"x_max":158,"o":"m -239 1006 q -227 966 -234 975 q -189 913 -215 930 q -130 897 -163 897 q -5 962 -62 897 l 26 1005 l 158 1005 q 66 883 108 925 q -35 811 24 842 q -155 780 -95 780 q -341 880 -282 780 q -380 1006 -363 918 l -239 1006 m -201 1115 q -123 1213 -187 1181 q -66 1226 -98 1226 q 19 1169 0 1226 q 24 1142 24 1155 q 21 1115 24 1130 q -56 1018 7 1049 q -113 1004 -83 1004 q -199 1061 -179 1004 q -204 1089 -204 1075 q -201 1115 -204 1104 z "},"̣":{"ha":0,"x_min":-515,"x_max":-286,"o":"m -512 -197 q -434 -100 -498 -132 q -377 -86 -408 -86 q -292 -143 -311 -86 q -286 -170 -286 -157 q -290 -197 -286 -182 q -367 -295 -304 -264 q -425 -309 -392 -309 q -509 -252 -490 -309 q -515 -223 -515 -237 q -512 -197 -515 -208 z "},"̤":{"ha":0,"x_min":-711,"x_max":-163,"o":"m -311 -98 q -254 -83 -285 -83 q -169 -140 -189 -83 q -163 -169 -163 -155 q -166 -195 -163 -184 q -244 -292 -180 -260 q -301 -306 -271 -306 q -387 -249 -368 -306 q -391 -221 -391 -237 q -311 -98 -391 -137 m -631 -98 q -574 -83 -605 -83 q -488 -140 -507 -83 q -484 -168 -484 -153 q -564 -292 -484 -252 q -621 -306 -590 -306 q -707 -249 -688 -306 q -711 -221 -711 -237 q -631 -98 -711 -137 z "},"̥":{"ha":0,"x_min":-639,"x_max":-198,"o":"m -494 -213 q -520 -290 -520 -248 q -484 -352 -520 -331 q -440 -363 -464 -363 q -342 -310 -381 -363 q -318 -232 -318 -272 q -355 -171 -318 -193 q -397 -160 -374 -160 q -494 -213 -456 -160 m -513 -92 q -373 -49 -448 -49 q -220 -132 -267 -49 q -198 -205 -198 -170 q -323 -429 -198 -348 q -463 -473 -391 -473 q -616 -391 -569 -473 q -639 -317 -639 -352 q -513 -92 -639 -174 z "},"̦":{"ha":301,"x_min":11,"x_max":238,"o":"m 69 -229 l 69 -222 q 25 -192 39 -215 q 11 -148 11 -169 q 56 -40 11 -80 q 151 0 102 0 q 219 -30 200 0 q 238 -79 238 -60 q 210 -178 238 -128 q 104 -309 170 -249 q 65 -341 83 -329 l 21 -312 q 69 -229 64 -257 z "},"̧":{"ha":0,"x_min":-709,"x_max":-447,"o":"m -709 -161 q -616 -107 -627 -120 q -601 -60 -601 -87 q -616 -11 -601 -33 l -494 50 q -447 -59 -447 -1 q -450 -90 -447 -72 q -618 -232 -465 -161 q -651 -248 -621 -233 l -709 -161 z "},"̨":{"ha":0,"x_min":-695,"x_max":-466,"o":"m -560 -248 q -586 -232 -560 -248 q -695 -106 -695 -169 q -693 -90 -695 -98 q -590 50 -677 -14 l -493 -11 q -538 -86 -529 -42 q -536 -102 -541 -94 q -466 -161 -529 -120 l -560 -248 z "},"̱":{"ha":0,"x_min":-640,"x_max":-81,"o":"m -605 -92 l -81 -92 l -115 -254 l -640 -254 l -605 -92 z "},"ͺ":{"ha":336,"x_min":168,"x_max":395,"o":"m 168 479 q 213 577 168 541 q 305 614 259 614 q 373 586 351 614 q 395 536 395 557 q 350 429 395 467 q 258 392 304 392 q 190 420 212 392 q 168 479 168 448 z "},"΄":{"ha":772,"x_min":494,"x_max":720,"o":"m 610 808 q 577 791 602 791 q 540 793 552 791 q 513 808 528 795 q 495 827 497 820 q 494 838 494 834 q 494 842 494 841 l 574 1053 q 598 1076 580 1068 q 633 1084 617 1084 l 642 1084 q 695 1068 677 1084 q 720 1025 720 1047 q 716 1012 720 1020 l 610 808 z "},"΅":{"ha":772,"x_min":245,"x_max":916,"o":"m 245 890 q 291 988 245 951 q 382 1025 336 1025 q 450 998 429 1025 q 472 946 472 970 q 427 840 472 878 q 335 803 381 803 q 267 831 289 803 q 245 890 245 859 m 688 890 q 734 988 688 951 q 826 1025 780 1025 q 894 998 872 1025 q 916 946 916 970 q 870 840 916 878 q 779 803 825 803 q 710 831 732 803 q 688 890 688 859 m 590 808 q 556 791 582 791 q 519 793 531 791 q 492 808 508 795 q 474 842 469 827 l 553 1053 q 613 1084 564 1082 l 622 1084 q 674 1068 656 1084 q 699 1033 699 1047 q 695 1012 699 1019 l 590 808 z "},"Ά":{"ha":964,"x_min":32,"x_max":932,"o":"m 415 808 q 382 791 407 791 q 345 793 357 791 q 317 808 333 795 q 299 842 293 827 l 378 1053 q 403 1076 385 1068 q 438 1084 422 1084 l 447 1084 q 500 1068 481 1084 q 521 1012 532 1040 l 415 808 m 644 711 l 475 424 l 678 424 l 644 711 m 694 257 l 390 257 l 243 0 l 32 0 l 623 987 l 797 987 l 932 0 l 724 0 l 694 257 z "},"Έ":{"ha":977,"x_min":214,"x_max":1118,"o":"m 331 808 q 298 791 323 791 q 261 793 273 791 q 233 808 249 795 q 216 827 218 820 q 214 838 214 834 q 215 842 214 841 l 294 1053 q 319 1076 300 1068 q 354 1084 338 1084 l 363 1084 q 416 1068 397 1084 q 437 1012 448 1040 l 331 808 m 452 987 l 1118 987 l 1084 825 l 600 825 l 549 587 l 991 587 l 957 425 l 515 425 l 459 163 l 943 163 l 909 0 l 243 0 l 452 987 z "},"Ή":{"ha":991,"x_min":203,"x_max":1133,"o":"m 320 808 q 287 791 312 791 q 250 793 262 791 q 222 808 238 795 q 205 827 207 820 q 203 838 203 834 q 204 842 203 841 l 283 1053 q 308 1076 290 1068 q 343 1084 327 1084 l 352 1084 q 405 1068 387 1084 q 426 1012 437 1040 l 320 808 m 439 987 l 621 987 l 536 586 l 865 586 l 950 987 l 1133 987 l 923 0 l 741 0 l 831 424 l 502 424 l 412 0 l 230 0 l 439 987 z "},"Ί":{"ha":483,"x_min":203,"x_max":625,"o":"m 320 808 q 287 791 312 791 q 250 793 262 791 q 222 808 238 795 q 205 827 207 820 q 203 838 203 834 q 204 842 203 841 l 283 1053 q 308 1076 290 1068 q 343 1084 327 1084 l 352 1084 q 405 1068 387 1084 q 426 1012 437 1040 l 320 808 m 233 0 l 442 987 l 625 987 l 415 0 l 233 0 z "},"Ό":{"ha":1044,"x_min":207,"x_max":1101,"o":"m 323 808 q 290 791 315 791 q 253 793 265 791 q 226 808 241 795 q 209 827 210 820 q 207 838 207 834 q 208 842 207 841 l 287 1053 q 312 1076 293 1068 q 347 1084 330 1084 l 355 1084 q 408 1068 390 1084 q 429 1012 444 1037 l 323 808 m 907 635 q 740 847 907 847 q 512 696 599 847 q 427 370 427 546 q 450 233 427 277 q 591 144 496 144 q 822 310 732 144 q 907 629 903 462 l 907 635 m 235 367 q 294 647 236 503 q 471 897 354 793 q 608 979 530 947 q 775 1010 686 1010 q 929 979 865 1010 q 1084 781 1047 921 q 1101 654 1101 715 l 1101 647 q 1041 368 1099 513 q 860 100 979 211 q 724 14 803 47 q 556 -20 644 -20 q 403 14 468 -20 q 250 224 286 74 q 235 358 235 292 l 235 367 z "},"Ύ":{"ha":891,"x_min":254,"x_max":1056,"o":"m 254 987 l 447 987 l 580 623 l 867 987 l 1056 987 l 642 478 l 541 0 l 358 0 l 460 478 l 254 987 z "},"Ώ":{"ha":1108,"x_min":127,"x_max":1131,"o":"m 315 808 q 281 791 307 791 q 244 793 256 791 q 217 808 233 795 q 199 842 193 827 l 278 1053 q 303 1076 284 1068 q 338 1084 321 1084 l 347 1084 q 399 1068 381 1084 q 420 1012 432 1040 l 315 808 m 938 635 q 770 847 938 847 q 543 696 629 847 q 458 370 458 546 q 463 298 458 334 q 500 220 467 262 q 568 155 533 178 l 535 0 l 127 0 l 160 155 l 304 155 q 265 358 265 251 l 265 367 q 325 647 267 503 q 502 897 385 793 q 638 979 560 947 q 806 1010 717 1010 q 959 979 895 1010 q 1114 781 1078 921 q 1131 654 1131 715 l 1131 647 q 1072 368 1130 513 q 944 155 1024 250 l 1074 155 l 1040 0 l 632 0 l 665 155 q 767 209 708 166 q 854 308 827 251 q 938 629 935 471 l 938 635 z "},"ΐ":{"ha":536,"x_min":62,"x_max":733,"o":"m 62 892 q 107 990 62 953 q 199 1027 153 1027 q 268 999 245 1027 q 290 949 290 971 q 244 842 290 879 q 152 805 198 805 q 84 833 106 805 q 62 892 62 862 m 505 892 q 551 990 505 953 q 643 1027 597 1027 q 711 999 690 1027 q 733 949 733 971 q 682 838 733 879 q 596 805 642 805 q 527 833 549 805 q 505 892 505 862 m 408 810 q 373 793 399 793 q 337 795 348 793 q 309 810 326 797 q 290 834 293 823 l 290 838 q 292 844 290 840 l 370 1055 q 431 1086 382 1084 l 439 1086 q 492 1070 473 1086 q 516 1035 516 1049 q 513 1014 516 1021 l 408 810 z "},"Α":{"ha":964,"x_min":32,"x_max":932,"o":"m 644 711 l 475 424 l 678 424 l 644 711 m 694 257 l 390 257 l 243 0 l 32 0 l 623 987 l 797 987 l 932 0 l 724 0 l 694 257 z "},"Β":{"ha":831,"x_min":81,"x_max":890,"o":"m 355 433 l 297 163 l 451 163 q 608 202 556 163 q 677 334 677 254 q 509 433 677 433 l 355 433 m 438 827 l 389 595 l 503 595 q 644 629 595 595 q 704 734 704 673 q 674 797 704 767 q 552 827 644 827 l 438 827 m 890 784 q 820 606 884 667 q 705 541 771 559 q 805 480 766 526 q 850 399 843 434 q 857 343 857 365 q 783 148 857 243 q 593 22 715 59 q 437 0 522 0 l 81 0 l 290 987 l 586 987 q 871 871 813 987 q 890 784 890 833 z "},"Γ":{"ha":808,"x_min":78,"x_max":954,"o":"m 435 825 l 260 0 l 78 0 l 288 987 l 954 987 l 920 825 l 435 825 z "},"Δ":{"ha":1050,"x_min":73,"x_max":977,"o":"m 73 0 l 644 987 l 827 987 l 977 0 l 73 0 m 378 163 l 746 163 l 674 700 l 378 163 z "},"Ε":{"ha":821,"x_min":77,"x_max":953,"o":"m 287 987 l 953 987 l 919 825 l 435 825 l 384 587 l 826 587 l 791 425 l 349 425 l 294 163 l 778 163 l 743 0 l 77 0 l 287 987 z "},"Ζ":{"ha":961,"x_min":49,"x_max":1095,"o":"m 304 987 l 1095 987 l 379 163 l 916 163 l 882 0 l 49 0 l 767 825 l 270 825 l 304 987 z "},"Η":{"ha":850,"x_min":78,"x_max":981,"o":"m 288 987 l 469 987 l 385 586 l 713 586 l 798 987 l 981 987 l 771 0 l 589 0 l 679 424 l 350 424 l 260 0 l 78 0 l 288 987 z "},"Θ":{"ha":956,"x_min":159,"x_max":1025,"o":"m 832 635 q 665 847 832 847 q 437 696 524 847 q 352 370 352 546 q 375 233 352 277 q 515 144 421 144 q 747 310 656 144 q 832 629 828 462 l 832 635 m 159 367 q 219 647 161 503 q 396 897 279 793 q 533 979 454 947 q 700 1010 611 1010 q 853 979 789 1010 q 1008 781 972 921 q 1025 654 1025 715 l 1025 647 q 966 368 1024 513 q 785 100 903 211 q 648 14 728 47 q 481 -20 569 -20 q 327 14 393 -20 q 175 224 210 74 q 159 358 159 292 l 159 367 m 454 588 l 762 588 l 727 425 l 420 425 l 454 588 z "},"Ι":{"ha":376,"x_min":97,"x_max":489,"o":"m 97 0 l 307 987 l 489 987 l 279 0 l 97 0 z "},"Κ":{"ha":904,"x_min":78,"x_max":1065,"o":"m 288 987 l 469 987 l 380 565 l 838 987 l 1065 987 l 595 548 l 875 0 l 647 0 l 429 426 l 331 336 l 260 0 l 78 0 l 288 987 z "},"Λ":{"ha":883,"x_min":47,"x_max":836,"o":"m 647 0 l 594 709 l 244 0 l 47 0 l 547 987 l 762 987 l 836 0 l 647 0 z "},"Μ":{"ha":1050,"x_min":45,"x_max":1221,"o":"m 45 0 l 254 987 l 498 987 l 587 288 l 977 987 l 1221 987 l 1011 0 l 833 0 l 977 677 l 618 0 l 435 0 l 365 670 l 222 0 l 45 0 z "},"Ν":{"ha":911,"x_min":81,"x_max":1038,"o":"m 81 0 l 290 987 l 467 987 l 720 350 l 855 987 l 1038 987 l 828 0 l 648 0 l 403 660 l 262 0 l 81 0 z "},"Ξ":{"ha":808,"x_min":78,"x_max":954,"o":"m 113 163 l 779 163 l 744 1 l 78 0 l 113 163 m 288 987 l 954 988 l 920 825 l 253 825 l 288 987 m 262 587 l 795 588 l 760 425 l 227 425 l 262 587 z "},"Ο":{"ha":956,"x_min":159,"x_max":1025,"o":"m 832 635 q 665 847 832 847 q 437 696 524 847 q 352 370 352 546 q 375 233 352 277 q 515 144 421 144 q 747 310 656 144 q 832 629 828 462 l 832 635 m 159 367 q 219 647 161 503 q 396 897 279 793 q 533 979 454 947 q 700 1010 611 1010 q 853 979 789 1010 q 1008 781 972 921 q 1025 654 1025 715 l 1025 647 q 966 368 1024 513 q 785 100 903 211 q 648 14 728 47 q 481 -20 569 -20 q 327 14 393 -20 q 175 224 210 74 q 159 358 159 292 l 159 367 z "},"Π":{"ha":850,"x_min":78,"x_max":981,"o":"m 288 987 l 981 987 l 771 0 l 589 0 l 764 825 l 435 825 l 260 0 l 78 0 l 288 987 z "},"Ρ":{"ha":779,"x_min":82,"x_max":879,"o":"m 382 558 l 471 558 q 686 692 658 558 q 690 724 690 706 q 528 825 690 825 l 439 825 l 382 558 m 292 987 l 562 987 q 722 964 654 987 q 873 807 846 920 q 879 751 879 781 q 823 576 879 659 q 599 417 745 463 q 435 393 522 393 l 347 393 l 264 0 l 82 0 l 292 987 z "},"Σ":{"ha":1050,"x_min":34,"x_max":987,"o":"m 781 0 l 34 0 l 86 244 l 362 481 l 188 723 l 239 966 l 987 966 l 949 789 l 390 789 l 610 480 l 267 178 l 819 178 l 781 0 z "},"Τ":{"ha":918,"x_min":229,"x_max":1078,"o":"m 262 987 l 1078 987 l 1044 825 l 734 825 l 558 0 l 376 0 l 552 825 l 229 825 l 262 987 z "},"Υ":{"ha":891,"x_min":254,"x_max":1056,"o":"m 254 987 l 447 987 l 580 623 l 867 987 l 1056 987 l 642 478 l 541 0 l 358 0 l 460 478 l 254 987 z "},"Φ":{"ha":1057,"x_min":174,"x_max":1114,"o":"m 673 214 l 627 0 l 463 0 l 508 213 q 433 224 471 218 q 338 256 395 231 q 174 480 174 327 q 237 669 174 581 q 460 827 311 771 q 648 871 546 859 l 672 986 l 837 986 l 812 870 q 951 833 888 863 q 1053 765 1015 803 q 1114 608 1114 703 q 1103 524 1114 578 q 1051 412 1091 469 q 960 319 1011 355 q 712 220 857 247 q 673 214 675 214 m 780 717 l 705 367 q 818 394 758 371 q 960 542 941 442 q 964 576 964 556 q 857 699 964 661 q 781 717 819 712 l 780 717 m 615 718 q 363 613 437 699 q 325 511 325 570 q 444 385 325 425 q 521 366 503 366 q 541 366 538 366 l 615 718 z "},"Χ":{"ha":880,"x_min":36,"x_max":1036,"o":"m 250 987 l 459 987 l 570 648 l 826 987 l 1036 987 l 644 493 l 831 0 l 602 0 l 498 312 l 264 0 l 36 0 l 431 493 l 250 987 z "},"Ψ":{"ha":754,"x_min":184,"x_max":913,"o":"m 370 640 q 357 538 357 597 q 389 446 357 479 l 503 987 l 686 987 l 571 448 q 671 640 642 501 l 743 989 l 913 989 q 839 640 912 985 q 696 359 801 463 q 533 268 625 290 l 476 0 l 294 0 l 351 267 q 224 357 264 290 q 184 499 184 424 q 199 640 184 595 l 275 989 l 445 989 l 370 640 z "},"Ω":{"ha":956,"x_min":21,"x_max":1025,"o":"m 832 635 q 665 847 832 847 q 437 696 524 847 q 352 370 352 546 q 357 298 352 334 q 394 220 361 262 q 463 155 427 178 l 429 0 l 21 0 l 54 155 l 198 155 q 159 358 159 251 l 159 367 q 219 647 161 503 q 396 897 279 793 q 533 979 454 947 q 700 1010 611 1010 q 853 979 789 1010 q 1008 781 972 921 q 1025 654 1025 715 l 1025 647 q 966 368 1024 513 q 838 155 918 250 l 968 155 l 935 0 l 526 0 l 559 155 q 662 209 602 166 q 749 308 721 251 q 832 629 829 471 l 832 635 z "},"Ϊ":{"ha":376,"x_min":97,"x_max":715,"o":"m 168 1168 q 214 1265 168 1228 q 305 1303 259 1303 q 373 1275 351 1303 q 395 1225 395 1246 q 350 1117 395 1154 q 258 1080 304 1080 q 190 1109 212 1080 q 168 1168 168 1137 m 488 1168 q 533 1265 488 1228 q 625 1303 579 1303 q 693 1275 671 1303 q 715 1225 715 1247 q 669 1117 715 1154 q 578 1080 624 1080 q 510 1109 532 1080 q 488 1168 488 1137 m 97 0 l 307 987 l 489 987 l 279 0 l 97 0 z "},"Ϋ":{"ha":891,"x_min":254,"x_max":1056,"o":"m 428 1168 q 474 1265 428 1228 q 566 1303 519 1303 q 633 1275 612 1303 q 655 1225 655 1247 q 610 1117 655 1154 q 518 1080 564 1080 q 450 1109 472 1080 q 428 1168 428 1137 m 747 1168 q 793 1265 747 1228 q 884 1303 838 1303 q 952 1275 930 1303 q 975 1225 975 1247 q 929 1117 975 1154 q 837 1080 883 1080 q 769 1109 791 1080 q 747 1168 747 1137 m 254 987 l 447 987 l 580 623 l 867 987 l 1056 987 l 642 478 l 541 0 l 358 0 l 460 478 l 254 987 z "},"ά":{"ha":900,"x_min":124,"x_max":968,"o":"m 610 808 q 577 791 602 791 q 540 793 552 791 q 513 808 528 795 q 494 842 488 827 l 574 1053 q 598 1076 580 1068 q 633 1084 617 1084 l 642 1084 q 695 1068 677 1084 q 716 1012 728 1040 l 610 808 m 310 362 q 296 257 296 300 q 390 138 296 138 q 566 362 519 138 q 578 467 578 418 q 486 586 578 586 q 310 362 358 586 m 968 652 l 830 536 q 784 564 817 559 l 697 156 q 729 165 711 157 q 757 184 747 173 l 846 67 q 757 12 808 32 q 663 -8 705 -8 q 646 -9 652 -9 q 567 16 604 -9 l 522 24 l 491 9 q 340 -22 423 -22 q 163 81 225 -22 q 124 237 124 146 q 139 362 124 291 q 283 642 177 539 q 522 745 389 745 q 642 717 591 745 l 682 682 q 820 728 739 728 q 910 703 869 728 q 968 652 951 679 z "},"έ":{"ha":620,"x_min":99,"x_max":671,"o":"m 551 808 q 518 791 543 791 q 481 793 493 791 q 454 808 469 795 q 435 842 429 827 l 515 1053 q 539 1076 521 1068 q 574 1084 558 1084 l 583 1084 q 636 1068 618 1084 q 657 1012 672 1037 l 551 808 m 605 159 q 310 -20 499 -20 q 213 -1 258 -20 q 104 124 126 35 q 99 170 99 148 q 123 270 99 225 q 168 337 147 315 q 264 412 205 376 q 216 514 216 452 q 251 632 216 580 q 325 708 286 684 q 490 752 399 752 q 671 609 646 752 l 511 565 q 493 595 507 583 q 452 607 479 607 q 400 587 425 607 q 366 517 366 560 q 380 478 366 498 q 422 458 395 458 l 477 458 l 441 298 l 378 298 q 310 272 342 298 q 269 195 269 239 q 287 151 269 171 q 336 131 304 131 q 451 199 410 131 l 605 159 z "},"ή":{"ha":760,"x_min":81,"x_max":794,"o":"m 610 808 q 577 791 602 791 q 540 793 552 791 q 513 808 528 795 q 494 842 488 827 l 574 1053 q 598 1076 580 1068 q 633 1084 617 1084 l 642 1084 q 695 1068 677 1084 q 716 1012 728 1040 l 610 808 m 256 0 l 81 0 l 235 728 l 410 728 l 387 618 q 497 711 429 674 q 618 747 564 747 q 703 729 672 747 q 760 673 734 710 q 794 543 794 623 q 784 453 794 500 l 631 -269 l 456 -269 l 590 364 q 606 473 606 440 q 588 559 606 541 q 554 583 571 578 q 515 588 538 588 q 393 523 440 588 q 333 363 355 469 l 256 0 z "},"ί":{"ha":536,"x_min":147,"x_max":539,"o":"m 387 808 q 353 791 378 791 q 316 793 328 791 q 289 808 304 795 q 271 842 264 827 l 350 1053 q 375 1076 356 1068 q 410 1084 393 1084 l 418 1084 q 471 1068 453 1084 q 492 1012 504 1040 l 387 808 m 248 728 l 424 728 l 319 239 q 317 214 317 230 q 333 181 317 198 q 373 163 349 163 q 449 192 424 163 l 539 75 q 453 21 494 35 q 352 8 411 8 q 240 45 292 8 q 167 135 187 83 q 147 219 147 187 q 153 277 147 250 l 248 728 z "},"ΰ":{"ha":748,"x_min":123,"x_max":916,"o":"m 245 890 q 291 988 245 951 q 382 1025 336 1025 q 450 998 429 1025 q 472 946 472 970 q 427 840 472 878 q 335 803 381 803 q 267 831 289 803 q 245 890 245 859 m 688 890 q 734 988 688 951 q 826 1025 780 1025 q 894 998 872 1025 q 916 946 916 970 q 870 840 916 878 q 779 803 825 803 q 710 831 732 803 q 688 890 688 859 m 590 808 q 556 791 582 791 q 519 793 531 791 q 492 808 508 795 q 474 842 468 827 l 553 1053 q 613 1084 564 1082 l 622 1084 q 674 1068 656 1084 q 695 1012 708 1039 l 590 808 m 437 146 q 553 270 505 164 q 579 352 564 282 q 594 449 594 422 q 592 502 594 476 q 574 552 589 528 q 488 601 543 601 l 585 760 q 693 728 648 760 q 776 522 773 673 l 776 516 q 713 228 776 376 q 637 101 681 152 q 543 23 593 51 q 353 -27 451 -27 q 265 -16 313 -27 q 140 79 196 0 q 123 170 123 103 q 151 363 123 237 l 228 728 l 403 728 l 326 363 q 313 269 315 310 l 313 260 q 346 153 313 176 q 393 140 367 139 q 437 146 420 141 z "},"α":{"ha":900,"x_min":124,"x_max":968,"o":"m 310 362 q 296 257 296 300 q 390 138 296 138 q 566 362 519 138 q 578 467 578 418 q 486 586 578 586 q 310 362 358 586 m 968 652 l 830 536 q 784 564 817 559 l 697 156 q 729 165 711 157 q 757 184 747 173 l 846 67 q 757 12 808 32 q 663 -8 705 -8 q 646 -9 652 -9 q 567 16 604 -9 l 522 24 l 491 9 q 340 -22 423 -22 q 163 81 225 -22 q 124 237 124 146 q 139 362 124 291 q 283 642 177 539 q 522 745 389 745 q 642 717 591 745 l 682 682 q 820 728 739 728 q 910 703 869 728 q 968 652 951 679 z "},"β":{"ha":855,"x_min":-15,"x_max":911,"o":"m 736 781 q 624 878 736 878 q 421 773 492 878 q 281 259 381 717 q 143 -269 180 -203 l -15 -269 q 28 -148 4 -238 q 112 217 52 -58 q 190 567 172 492 q 290 854 241 787 q 658 1036 422 1036 q 865 950 799 1036 q 911 806 911 890 q 902 728 911 767 q 837 587 884 639 q 743 520 790 536 q 783 495 760 516 q 849 328 849 431 q 843 271 849 300 q 698 54 812 128 q 415 -20 583 -20 q 285 16 311 -20 l 380 153 q 430 132 399 132 q 626 190 558 132 q 675 292 675 232 q 624 396 675 351 q 460 440 572 440 l 453 440 l 442 441 l 439 441 q 484 572 440 441 q 614 595 562 572 q 736 781 736 650 z "},"γ":{"ha":719,"x_min":146,"x_max":808,"o":"m 279 0 l 203 728 l 387 728 l 410 262 l 640 728 l 808 728 l 280 -269 l 146 -269 l 279 0 z "},"δ":{"ha":749,"x_min":125,"x_max":906,"o":"m 140 364 q 283 643 177 540 q 452 736 358 715 l 352 864 l 387 1027 l 906 1027 l 871 864 l 584 864 l 756 644 q 794 506 794 581 q 780 364 794 431 q 637 84 743 188 q 378 -20 531 -20 q 164 83 226 -20 q 125 222 125 146 q 140 364 125 297 m 311 364 q 299 269 299 309 q 414 140 299 140 q 612 364 564 140 q 623 458 623 418 q 509 587 623 587 q 311 364 359 587 z "},"ε":{"ha":620,"x_min":99,"x_max":671,"o":"m 605 159 q 310 -20 499 -20 q 213 -1 258 -20 q 104 124 126 35 q 99 170 99 148 q 123 270 99 225 q 168 337 147 315 q 264 412 205 376 q 216 514 216 452 q 251 632 216 580 q 325 708 286 684 q 490 752 399 752 q 671 609 646 752 l 511 565 q 493 595 507 583 q 452 607 479 607 q 400 587 425 607 q 366 517 366 560 q 380 478 366 498 q 422 458 395 458 l 477 458 l 441 298 l 378 298 q 310 272 342 298 q 269 195 269 239 q 287 151 269 171 q 336 131 304 131 q 451 199 410 131 l 605 159 z "},"ζ":{"ha":760,"x_min":98,"x_max":861,"o":"m 463 -149 q 497 -78 497 -121 q 483 -39 497 -58 q 441 -20 469 -20 l 387 -20 q 149 74 224 -20 q 98 235 98 136 q 111 340 98 283 q 241 557 134 450 l 564 824 l 256 824 l 291 987 l 861 987 l 826 824 l 342 429 q 288 340 306 396 q 277 270 277 311 q 312 186 277 229 q 421 143 348 143 q 490 136 470 138 q 644 63 583 130 q 689 -57 689 24 q 682 -120 689 -85 q 648 -196 675 -155 q 583 -259 620 -237 l 463 -149 z "},"η":{"ha":760,"x_min":81,"x_max":794,"o":"m 256 0 l 81 0 l 235 728 l 410 728 l 387 618 q 497 711 429 674 q 618 747 564 747 q 703 729 672 747 q 760 673 734 710 q 794 543 794 623 q 784 453 794 500 l 631 -269 l 456 -269 l 590 364 q 606 473 606 440 q 588 559 606 541 q 554 583 571 578 q 515 588 538 588 q 393 523 440 588 q 333 363 355 469 l 256 0 z "},"θ":{"ha":798,"x_min":140,"x_max":870,"o":"m 163 513 q 333 879 214 748 q 614 1010 452 1010 q 837 879 776 1010 q 870 714 870 808 q 842 489 870 620 q 749 238 814 359 q 591 49 683 117 q 393 -19 499 -19 l 392 -19 q 222 49 286 -19 q 140 311 140 136 q 163 513 140 401 m 370 614 l 685 614 q 694 713 694 674 q 689 772 694 753 q 580 846 674 846 q 435 771 486 846 q 370 614 400 719 m 333 452 q 315 284 315 360 l 315 281 q 364 161 315 194 q 433 145 390 145 q 576 241 522 145 q 652 452 622 323 l 333 452 z "},"ι":{"ha":536,"x_min":147,"x_max":539,"o":"m 248 728 l 424 728 l 319 239 q 317 214 317 230 q 333 181 317 198 q 373 163 349 163 q 449 192 424 163 l 539 75 q 453 21 494 35 q 352 8 411 8 q 240 45 292 8 q 167 135 187 83 q 147 219 147 187 q 153 277 147 250 l 248 728 z "},"κ":{"ha":698,"x_min":16,"x_max":850,"o":"m 257 281 l 197 -1 l 16 -1 l 170 728 l 352 728 l 294 456 l 623 728 l 850 728 l 431 372 l 692 0 l 465 0 l 257 281 z "},"λ":{"ha":719,"x_min":49,"x_max":653,"o":"m 433 728 l 416 1027 l 549 1027 l 653 0 l 486 0 l 454 465 l 233 0 l 49 0 l 433 728 z "},"μ":{"ha":765,"x_min":40,"x_max":837,"o":"m 274 53 l 205 -269 l 40 -269 l 252 728 l 420 728 l 332 317 q 326 265 326 290 q 329 218 326 240 q 349 177 332 196 q 428 139 383 139 q 522 197 473 139 q 584 317 570 256 l 671 728 l 837 728 l 682 0 l 517 0 l 529 57 q 466 1 507 22 q 392 -20 425 -20 q 320 3 359 -20 q 274 53 281 26 z "},"ν":{"ha":719,"x_min":203,"x_max":808,"o":"m 279 0 l 203 728 l 387 728 l 410 262 l 640 728 l 808 728 l 423 0 l 279 0 z "},"ξ":{"ha":760,"x_min":105,"x_max":847,"o":"m 326 554 q 262 689 262 608 q 307 846 262 770 l 206 846 l 241 1009 l 847 1009 l 812 846 l 569 846 q 486 810 526 842 q 432 713 446 778 q 429 678 429 702 q 454 619 429 654 q 530 584 479 584 l 627 584 l 596 439 l 484 439 q 365 395 422 439 q 290 256 290 336 q 321 179 290 216 q 421 143 351 143 q 490 136 454 143 q 644 63 594 117 q 689 -57 689 24 q 682 -120 689 -85 q 647 -196 675 -155 q 583 -259 619 -237 l 463 -149 q 497 -78 497 -121 q 483 -39 497 -58 q 441 -20 469 -20 l 422 -20 q 386 -21 399 -21 q 256 4 314 -21 q 113 171 140 54 q 105 229 105 202 q 145 382 105 307 q 326 554 194 476 z "},"ο":{"ha":749,"x_min":125,"x_max":794,"o":"m 311 364 q 299 269 299 309 q 414 140 299 140 q 612 364 564 140 q 623 458 623 418 q 509 587 623 587 q 311 364 359 587 m 140 364 q 283 643 177 540 q 542 746 390 746 q 756 644 694 746 q 794 506 794 581 q 780 364 794 431 q 637 84 743 188 q 378 -20 531 -20 q 164 83 226 -20 q 125 222 125 146 q 140 364 125 297 z "},"π":{"ha":760,"x_min":81,"x_max":883,"o":"m 633 566 l 376 566 l 256 1 l 81 1 l 201 566 l 152 566 l 186 728 l 883 728 l 848 566 l 808 566 l 688 1 l 513 1 l 633 566 z "},"ρ":{"ha":749,"x_min":1,"x_max":794,"o":"m 140 364 q 283 643 177 540 q 542 746 390 746 q 756 644 694 746 q 794 506 794 581 q 780 364 794 431 q 637 84 743 188 q 379 -20 531 -20 q 236 12 292 -20 l 172 -290 l 1 -289 l 140 364 m 311 364 q 299 269 299 309 q 414 140 299 140 q 612 364 564 140 q 623 458 623 418 q 509 587 623 587 q 311 364 359 587 z "},"ς":{"ha":710,"x_min":123,"x_max":789,"o":"m 629 513 q 529 590 601 590 q 395 525 456 590 q 313 361 334 459 q 305 283 305 328 q 328 199 305 239 q 440 138 366 138 q 519 162 492 138 q 562 214 541 182 l 691 138 q 587 42 641 77 q 407 -20 491 -20 q 171 84 244 -20 q 123 252 123 153 q 135 361 123 302 q 290 639 172 532 q 556 746 408 746 q 699 703 633 746 q 789 589 764 661 l 629 513 z "},"σ":{"ha":780,"x_min":125,"x_max":931,"o":"m 140 364 q 283 643 177 540 q 542 746 390 746 l 931 746 l 898 587 l 781 587 q 794 486 794 541 q 780 364 794 431 q 637 84 743 188 q 378 -20 531 -20 q 164 83 226 -20 q 125 222 125 146 q 140 364 125 297 m 311 364 q 299 269 299 309 q 414 140 299 140 q 612 364 564 140 q 623 458 623 418 q 509 587 623 587 q 311 364 359 587 z "},"τ":{"ha":760,"x_min":201,"x_max":845,"o":"m 521 245 q 519 220 519 235 q 534 187 519 205 q 587 170 550 170 q 650 198 625 170 l 741 81 q 654 27 695 40 q 554 14 613 14 q 439 54 494 14 q 349 235 349 118 q 354 283 349 255 l 411 566 l 201 566 l 235 728 l 845 728 l 810 566 l 593 566 l 529 283 l 521 245 z "},"υ":{"ha":748,"x_min":123,"x_max":776,"o":"m 437 146 q 553 270 505 164 q 579 352 564 282 q 594 449 594 422 q 592 502 594 476 q 574 552 589 528 q 488 601 543 601 l 585 760 q 693 728 648 760 q 776 522 773 673 l 776 516 q 713 228 776 376 q 637 101 681 152 q 543 23 593 51 q 353 -27 451 -27 q 265 -16 313 -27 q 140 79 196 0 q 123 170 123 103 q 151 363 123 237 l 228 728 l 403 728 l 326 363 q 313 269 315 310 l 313 260 q 346 153 313 176 q 393 140 367 139 q 437 146 420 141 z "},"φ":{"ha":860,"x_min":104,"x_max":884,"o":"m 269 -269 l 323 -10 q 280 2 309 -7 q 210 41 250 11 q 104 264 104 121 q 165 489 104 380 q 346 669 229 603 l 361 534 q 292 458 323 506 q 252 363 261 410 q 242 294 242 317 q 349 131 242 173 l 353 129 l 417 431 q 483 560 431 496 q 711 686 584 686 l 726 686 q 827 618 790 670 q 884 436 884 541 q 781 159 884 283 q 621 28 711 73 q 499 -9 568 2 l 444 -269 l 269 -269 m 745 408 q 700 535 745 490 q 671 543 688 543 q 634 524 655 543 q 600 469 608 503 l 528 126 q 623 173 576 140 q 745 408 745 263 z "},"χ":{"ha":579,"x_min":-37,"x_max":708,"o":"m 496 -269 l 326 -269 l 286 -5 l 134 -269 l -37 -269 l 250 229 l 175 728 l 346 728 l 386 465 l 537 728 l 708 728 l 421 229 l 496 -269 z "},"ψ":{"ha":754,"x_min":125,"x_max":857,"o":"m 125 240 q 140 364 125 275 q 217 728 216 705 l 391 728 q 311 364 379 687 q 299 256 299 309 q 330 170 299 203 l 475 854 l 658 854 l 513 172 q 612 364 582 224 l 687 728 l 857 728 q 780 364 849 692 q 637 84 743 188 q 474 -8 566 14 l 419 -269 l 237 -269 l 292 -9 q 165 81 205 13 q 125 240 125 149 z "},"ω":{"ha":1161,"x_min":138,"x_max":1209,"o":"m 325 205 q 380 145 343 156 q 421 140 395 141 q 473 153 446 139 q 555 269 519 178 q 583 363 571 306 l 621 543 l 796 543 l 758 363 q 746 269 747 310 l 746 262 q 779 153 746 176 q 824 139 800 139 q 869 146 851 141 q 986 270 938 163 q 1012 352 997 282 q 1027 449 1027 422 q 1024 502 1027 476 q 1006 552 1022 528 q 920 601 976 601 l 1017 760 q 1126 728 1081 760 q 1209 522 1207 672 l 1209 517 q 1145 228 1209 377 q 1072 103 1114 152 q 873 -16 994 13 q 786 -27 827 -27 q 695 -16 745 -27 q 602 43 646 -4 q 484 -16 538 -4 q 389 -27 430 -27 q 222 24 292 -27 q 160 103 182 52 q 138 228 138 154 q 201 522 138 377 q 370 728 265 671 q 492 760 427 760 l 522 601 q 415 552 467 601 q 327 364 355 493 q 314 289 314 306 q 316 270 314 273 q 325 205 316 229 z "},"ϊ":{"ha":536,"x_min":105,"x_max":652,"o":"m 105 892 q 151 990 105 953 q 243 1027 197 1027 q 311 999 289 1027 q 333 949 333 971 q 281 838 333 879 q 196 805 242 805 q 127 834 150 805 q 105 892 105 863 m 425 892 q 471 990 425 953 q 563 1027 517 1027 q 631 999 609 1027 q 652 949 652 971 q 607 842 652 879 q 515 805 561 805 q 447 834 469 805 q 425 892 425 863 m 248 728 l 424 728 l 319 239 q 317 214 317 230 q 333 181 317 198 q 373 163 349 163 q 449 192 424 163 l 539 75 q 453 21 494 35 q 352 8 411 8 q 240 45 292 8 q 167 135 187 83 q 147 219 147 187 q 153 277 147 250 l 248 728 z "},"ϋ":{"ha":748,"x_min":123,"x_max":776,"o":"m 437 146 q 553 270 505 164 q 579 352 564 282 q 594 449 594 422 q 592 502 594 476 q 574 552 589 528 q 488 601 543 601 l 585 760 q 693 728 648 760 q 776 522 773 673 l 776 516 q 713 228 776 376 q 637 101 681 152 q 543 23 593 51 q 353 -27 451 -27 q 265 -16 313 -27 q 140 79 196 0 q 123 170 123 103 q 151 363 123 237 l 228 728 l 403 728 l 326 363 q 313 269 315 310 l 313 260 q 346 153 313 176 q 393 140 367 139 q 437 146 420 141 m 218 891 q 264 989 218 952 q 357 1027 311 1027 q 425 999 403 1027 q 446 949 446 971 q 400 842 446 879 q 308 804 354 804 q 240 832 262 804 q 218 891 218 860 m 538 891 q 584 989 538 952 q 675 1027 629 1027 q 744 999 722 1027 q 766 949 766 971 q 720 842 766 879 q 628 804 674 804 q 559 832 581 804 q 538 891 538 860 z "},"ό":{"ha":749,"x_min":125,"x_max":794,"o":"m 610 808 q 577 791 602 791 q 540 793 552 791 q 513 808 528 795 q 494 842 488 827 l 574 1053 q 598 1076 580 1068 q 633 1084 617 1084 l 642 1084 q 695 1068 677 1084 q 716 1012 728 1040 l 610 808 m 311 364 q 299 269 299 309 q 414 140 299 140 q 612 364 564 140 q 623 458 623 418 q 509 587 623 587 q 311 364 359 587 m 140 364 q 283 643 177 540 q 542 746 390 746 q 756 644 694 746 q 794 506 794 581 q 780 364 794 431 q 637 84 743 188 q 378 -20 531 -20 q 164 83 226 -20 q 125 222 125 146 q 140 364 125 297 z "},"ύ":{"ha":748,"x_min":123,"x_max":776,"o":"m 541 808 q 508 791 533 791 q 471 793 483 791 q 444 808 459 795 q 425 842 419 827 l 505 1053 q 529 1076 511 1068 q 564 1084 548 1084 l 573 1084 q 626 1068 608 1084 q 647 1012 659 1040 l 541 808 m 437 146 q 553 270 505 164 q 579 352 564 282 q 594 449 594 422 q 592 502 594 476 q 574 552 589 528 q 488 601 543 601 l 585 760 q 693 728 648 760 q 776 522 773 673 l 776 516 q 713 228 776 376 q 637 101 681 152 q 543 23 593 51 q 353 -27 451 -27 q 265 -16 313 -27 q 140 79 196 0 q 123 170 123 103 q 151 363 123 237 l 228 728 l 403 728 l 326 363 q 313 269 315 310 l 313 260 q 346 153 313 176 q 393 140 367 139 q 437 146 420 141 z "},"ώ":{"ha":1161,"x_min":138,"x_max":1209,"o":"m 795 808 q 762 791 787 791 q 725 793 737 791 q 698 808 713 795 q 680 842 673 827 l 759 1053 q 784 1076 765 1068 q 819 1084 802 1084 l 827 1084 q 880 1068 862 1084 q 901 1012 916 1037 l 795 808 m 325 205 q 380 145 343 156 q 421 140 395 141 q 473 153 446 139 q 555 269 519 178 q 583 363 571 306 l 621 543 l 796 543 l 758 363 q 746 269 747 310 l 746 262 q 779 153 746 176 q 824 139 800 139 q 869 146 851 141 q 986 270 938 163 q 1012 352 997 282 q 1027 449 1027 422 q 1024 502 1027 476 q 1006 552 1022 528 q 920 601 976 601 l 1017 760 q 1126 728 1081 760 q 1209 522 1207 672 l 1209 517 q 1145 228 1209 377 q 1072 103 1114 152 q 873 -16 994 13 q 786 -27 827 -27 q 695 -16 745 -27 q 602 43 646 -4 q 484 -16 538 -4 q 389 -27 430 -27 q 222 24 292 -27 q 160 103 182 52 q 138 228 138 154 q 201 522 138 377 q 370 728 265 671 q 492 760 427 760 l 522 601 q 415 552 467 601 q 327 364 355 493 q 314 289 314 306 q 316 270 314 273 q 325 205 316 229 z "},"ϑ":{"ha":798,"x_min":143,"x_max":870,"o":"m 326 452 q 307 315 309 390 l 307 305 q 323 203 307 230 q 427 145 359 145 q 576 241 522 145 q 652 452 622 323 q 431 490 517 452 q 302 582 345 528 q 277 661 277 614 q 291 781 277 716 q 332 879 304 845 l 334 880 q 614 1010 453 1010 q 837 879 776 1010 q 870 714 870 808 q 842 489 870 620 q 749 238 814 359 q 591 49 683 117 q 393 -19 499 -19 l 392 -19 q 217 54 286 -19 q 143 262 143 134 q 163 433 143 340 l 168 452 l 326 452 m 680 584 q 694 711 694 672 q 589 854 694 854 q 433 772 456 854 q 423 711 423 735 q 478 617 423 646 q 549 592 511 600 q 680 584 587 584 z "},"ϕ":{"ha":765,"x_min":125,"x_max":794,"o":"m 140 364 q 283 643 177 540 q 456 737 359 716 l 509 986 l 673 986 l 621 738 q 752 649 711 718 q 794 488 794 581 q 780 364 794 431 q 637 84 743 188 q 461 -12 560 9 l 407 -269 l 242 -269 l 297 -11 q 167 78 208 10 q 125 240 125 146 q 140 364 125 297 m 418 562 q 311 364 342 511 q 299 269 299 309 q 334 165 299 197 l 418 562 m 584 565 l 498 162 q 612 364 579 211 q 623 458 623 418 q 584 565 623 533 z "},"ϖ":{"ha":1161,"x_min":138,"x_max":1273,"o":"m 239 763 l 1273 763 l 1238 600 l 1201 600 q 1209 522 1209 558 q 1209 517 1209 522 q 1145 228 1209 377 q 1072 103 1114 152 q 873 -16 994 13 q 786 -27 827 -27 q 695 -16 745 -27 q 602 43 646 -4 q 484 -16 538 -4 q 389 -27 430 -27 q 222 24 292 -27 q 160 103 182 52 q 138 228 138 154 q 201 522 138 377 q 241 600 221 568 l 205 600 l 239 763 m 325 205 q 380 145 343 156 q 421 140 395 141 q 473 153 446 139 q 555 269 519 178 q 583 363 571 306 l 621 543 l 796 543 l 758 363 q 746 269 747 310 l 746 262 q 779 153 746 176 q 824 139 800 139 q 869 146 851 141 q 986 270 938 163 q 1012 352 997 282 q 1027 449 1027 422 q 1024 502 1027 476 q 1006 552 1022 528 q 933 600 979 595 l 509 600 q 424 560 460 595 q 365 480 387 525 q 328 371 342 435 q 314 289 314 306 q 316 270 314 273 q 325 205 316 229 z "},"Ё":{"ha":821,"x_min":77,"x_max":969,"o":"m 422 1168 q 468 1265 422 1228 q 560 1303 514 1303 q 628 1275 606 1303 q 650 1225 650 1247 q 604 1117 650 1154 q 513 1080 559 1080 q 445 1109 467 1080 q 422 1168 422 1137 m 742 1168 q 787 1265 742 1228 q 879 1303 833 1303 q 947 1275 925 1303 q 969 1225 969 1247 q 923 1117 969 1154 q 832 1080 878 1080 q 764 1109 786 1080 q 742 1168 742 1137 m 287 987 l 953 987 l 919 825 l 435 825 l 384 587 l 826 587 l 791 425 l 349 425 l 294 163 l 778 163 l 743 0 l 77 0 l 287 987 z "},"Ђ":{"ha":850,"x_min":81,"x_max":874,"o":"m 493 184 q 546 155 509 155 q 609 177 583 155 q 642 231 635 198 l 655 289 l 654 289 l 670 364 q 685 459 684 430 l 685 469 q 633 563 685 534 q 555 588 588 588 q 500 583 523 588 q 411 523 450 569 q 374 467 404 515 q 333 363 345 420 l 256 0 l 81 0 l 256 822 l 144 822 l 178 985 l 588 985 l 553 822 l 431 822 l 387 618 q 515 711 418 652 q 654 747 576 747 q 764 729 733 747 q 830 673 795 710 q 874 543 874 627 q 864 453 874 500 l 838 332 l 839 332 l 825 269 q 761 139 811 201 q 640 38 710 76 q 511 0 570 0 q 417 13 452 0 q 353 67 382 26 l 493 184 z "},"Ѓ":{"ha":808,"x_min":78,"x_max":954,"o":"m 568 1040 q 559 1036 562 1036 q 513 1072 536 1036 q 506 1099 508 1081 q 517 1145 503 1136 l 744 1312 q 762 1319 753 1319 q 823 1280 799 1319 q 831 1249 831 1266 q 807 1184 831 1201 l 568 1040 m 435 825 l 260 0 l 78 0 l 288 987 l 954 987 l 920 825 l 435 825 z "},"Є":{"ha":888,"x_min":149,"x_max":998,"o":"m 149 333 l 150 353 q 292 800 161 618 q 709 1015 447 1015 q 903 954 829 1015 q 998 805 978 893 l 812 745 q 755 821 794 789 q 669 852 717 852 q 435 708 521 852 q 397 632 404 656 l 388 606 l 688 606 l 654 444 l 350 444 q 346 359 346 414 q 362 253 346 305 q 420 172 378 201 q 522 142 461 142 q 719 278 614 142 l 880 210 q 487 -22 723 -22 q 325 7 394 -22 q 220 89 256 37 q 166 204 183 140 q 149 333 149 269 z "},"Ѕ":{"ha":815,"x_min":114,"x_max":909,"o":"m 115 274 l 302 303 q 342 189 306 233 q 453 144 378 144 q 576 180 528 144 q 640 302 640 228 q 617 368 640 346 q 513 433 580 406 q 495 441 507 435 q 471 451 482 446 q 391 488 431 467 q 333 520 350 509 q 258 602 279 557 q 242 671 242 636 q 302 859 242 777 q 510 995 374 957 q 635 1012 571 1012 q 824 953 749 1012 q 909 804 899 894 l 717 770 q 601 848 699 848 q 435 739 458 848 q 433 719 433 731 q 545 617 433 667 q 623 583 590 597 q 815 429 776 520 q 830 352 830 393 q 678 60 830 165 q 418 -20 563 -20 q 194 58 274 -20 q 114 250 114 136 q 115 274 114 266 z "},"І":{"ha":376,"x_min":97,"x_max":489,"o":"m 97 0 l 307 987 l 489 987 l 279 0 l 97 0 z "},"Ї":{"ha":376,"x_min":97,"x_max":718,"o":"m 172 1168 q 217 1265 172 1228 q 309 1303 263 1303 q 377 1275 355 1303 q 399 1225 399 1246 q 353 1117 399 1154 q 262 1080 308 1080 q 194 1109 216 1080 q 172 1168 172 1137 m 491 1168 q 536 1265 491 1228 q 628 1303 582 1303 q 696 1275 674 1303 q 718 1225 718 1247 q 672 1117 718 1154 q 581 1080 627 1080 q 513 1109 535 1080 q 491 1168 491 1137 m 97 0 l 307 987 l 489 987 l 279 0 l 97 0 z "},"Ј":{"ha":848,"x_min":138,"x_max":975,"o":"m 307 310 q 450 149 307 149 q 598 228 544 149 q 668 397 647 296 l 758 825 l 507 825 l 541 987 l 975 987 l 850 397 q 616 31 794 136 q 413 -24 526 -24 q 153 146 205 -24 q 138 258 138 196 q 154 397 138 319 l 317 397 q 307 310 307 351 z "},"Љ":{"ha":1327,"x_min":59,"x_max":1352,"o":"m 199 184 q 249 155 214 155 q 308 172 283 155 l 348 231 l 613 987 l 1031 987 l 948 594 l 1036 594 q 1293 506 1213 594 q 1352 352 1352 443 q 1299 180 1352 263 q 1079 23 1224 66 q 910 0 1003 0 l 640 0 l 816 825 l 731 825 l 531 269 q 466 138 497 176 q 346 38 416 76 q 217 0 276 0 q 122 13 157 0 q 59 67 87 26 l 199 184 m 913 429 l 857 162 l 945 162 q 1160 296 1132 162 q 1164 328 1164 310 q 1002 429 1164 429 l 913 429 z "},"Њ":{"ha":1164,"x_min":78,"x_max":1183,"o":"m 288 987 l 469 987 l 385 586 l 595 586 l 680 987 l 863 987 l 779 594 l 867 594 q 1124 506 1043 594 q 1183 352 1183 443 q 1129 180 1183 263 q 909 23 1055 66 q 741 0 833 0 l 471 0 l 561 424 l 350 424 l 260 0 l 78 0 l 288 987 m 688 162 l 775 162 q 991 296 962 162 q 994 328 994 310 q 832 429 994 429 l 745 429 l 688 162 z "},"Ћ":{"ha":760,"x_min":81,"x_max":794,"o":"m 256 0 l 81 0 l 256 823 l 175 823 l 210 986 l 551 986 l 517 823 l 431 823 l 387 618 q 497 711 429 674 q 618 747 564 747 q 703 729 672 747 q 760 673 734 710 q 794 543 794 623 q 784 453 794 500 l 688 0 l 513 0 l 590 364 q 606 473 606 440 q 588 559 606 541 q 554 583 571 578 q 515 588 538 588 q 393 523 440 588 q 333 363 355 469 l 256 0 z "},"Ќ":{"ha":904,"x_min":78,"x_max":1065,"o":"m 633 1040 q 625 1036 627 1036 q 578 1072 602 1036 q 571 1099 573 1081 q 583 1145 568 1136 l 809 1312 q 827 1319 818 1319 q 888 1280 864 1319 q 897 1249 897 1266 q 872 1184 897 1201 l 633 1040 m 288 987 l 469 987 l 380 565 l 838 987 l 1065 987 l 595 548 l 875 0 l 647 0 l 429 426 l 331 336 l 260 0 l 78 0 l 288 987 z "},"Ў":{"ha":891,"x_min":-32,"x_max":1056,"o":"m 432 1168 q 478 1265 432 1228 q 570 1303 524 1303 q 637 1275 616 1303 q 659 1225 659 1247 q 614 1117 659 1154 q 522 1080 568 1080 q 454 1109 476 1080 q 432 1168 432 1137 m 751 1168 q 797 1265 751 1228 q 888 1303 842 1303 q 957 1275 935 1303 q 979 1225 979 1247 q 933 1117 979 1154 q 841 1080 887 1080 q 773 1109 795 1080 q 751 1168 751 1137 m 108 184 q 161 155 123 155 q 223 176 198 155 l 460 478 l 254 987 l 447 987 l 580 623 l 867 987 l 1056 987 l 642 478 l 375 138 q 255 38 325 76 q 126 0 185 0 q 32 13 66 0 q -32 67 -3 26 l 108 184 z "},"Џ":{"ha":840,"x_min":79,"x_max":981,"o":"m 307 -163 l 342 0 l 79 0 l 288 987 l 470 987 l 295 162 l 623 162 l 798 987 l 981 987 l 772 0 l 505 0 l 470 -163 l 307 -163 z "},"А":{"ha":964,"x_min":32,"x_max":932,"o":"m 644 711 l 475 424 l 678 424 l 644 711 m 694 257 l 390 257 l 243 0 l 32 0 l 623 987 l 797 987 l 932 0 l 724 0 l 694 257 z "},"Б":{"ha":779,"x_min":82,"x_max":833,"o":"m 82 0 l 292 987 l 833 987 l 799 825 l 439 825 l 390 594 l 478 594 q 631 570 564 594 q 787 411 758 526 q 794 355 794 385 q 740 180 794 263 q 520 23 667 67 q 352 0 444 0 l 82 0 m 355 429 l 298 162 l 387 162 q 602 296 574 162 q 606 328 606 310 q 444 429 606 429 l 355 429 z "},"В":{"ha":831,"x_min":81,"x_max":890,"o":"m 355 433 l 297 163 l 451 163 q 608 202 556 163 q 677 334 677 254 q 509 433 677 433 l 355 433 m 438 827 l 389 595 l 503 595 q 644 629 595 595 q 704 734 704 673 q 674 797 704 767 q 552 827 644 827 l 438 827 m 890 784 q 820 606 884 667 q 705 541 771 559 q 805 480 766 526 q 850 399 843 434 q 857 343 857 365 q 783 148 857 243 q 593 22 715 59 q 437 0 522 0 l 81 0 l 290 987 l 586 987 q 871 871 813 987 q 890 784 890 833 z "},"Г":{"ha":808,"x_min":78,"x_max":954,"o":"m 435 825 l 260 0 l 78 0 l 288 987 l 954 987 l 920 825 l 435 825 z "},"Д":{"ha":1137,"x_min":16,"x_max":1116,"o":"m 613 987 l 1116 987 l 941 163 l 1103 162 l 1034 -163 l 871 -163 l 906 0 l 213 0 l 178 -163 l 16 -163 l 85 162 l 290 163 q 308 172 302 168 l 348 231 l 613 987 m 760 165 l 899 825 l 731 825 l 531 269 q 483 163 506 200 l 760 165 z "},"Е":{"ha":821,"x_min":77,"x_max":953,"o":"m 287 987 l 953 987 l 919 825 l 435 825 l 384 587 l 826 587 l 791 425 l 349 425 l 294 163 l 778 163 l 743 0 l 77 0 l 287 987 z "},"Ж":{"ha":1132,"x_min":77,"x_max":1257,"o":"m 681 985 l 681 987 l 867 987 l 792 650 l 793 648 l 1047 987 l 1257 987 l 867 493 l 1051 0 l 823 0 l 722 312 l 720 309 l 654 0 l 471 0 l 537 309 l 305 0 l 77 0 l 471 493 l 290 987 l 500 987 l 610 650 l 681 985 z "},"З":{"ha":798,"x_min":110,"x_max":852,"o":"m 852 811 q 706 556 852 646 q 755 511 736 532 q 815 359 815 444 q 757 172 815 260 q 543 6 680 56 q 399 -19 474 -19 q 164 83 243 -19 q 110 219 122 137 l 295 267 q 347 174 307 203 q 446 145 386 145 q 559 186 505 145 q 629 321 629 241 q 595 402 629 363 q 499 441 562 441 l 387 441 l 418 586 l 515 586 q 610 627 564 586 q 672 754 672 680 q 647 820 672 791 q 575 850 623 850 q 492 828 528 850 q 437 774 457 806 l 277 819 q 600 1010 391 1010 q 795 949 722 1010 q 852 811 852 902 z "},"И":{"ha":911,"x_min":81,"x_max":1038,"o":"m 290 987 l 472 987 l 332 328 l 858 987 l 1038 987 l 828 0 l 646 0 l 781 637 l 257 0 l 81 0 l 290 987 z "},"Й":{"ha":911,"x_min":81,"x_max":1038,"o":"m 884 1137 q 786 1059 846 1090 q 671 1028 726 1028 q 569 1060 617 1028 q 502 1140 520 1091 q 484 1233 484 1190 q 495 1317 484 1276 l 604 1317 q 662 1200 625 1229 q 706 1190 675 1190 q 752 1199 736 1190 q 863 1317 789 1221 l 970 1317 q 966 1296 970 1316 q 884 1137 948 1215 m 290 987 l 472 987 l 332 328 l 858 987 l 1038 987 l 828 0 l 646 0 l 781 637 l 257 0 l 81 0 l 290 987 z "},"К":{"ha":904,"x_min":78,"x_max":1065,"o":"m 288 987 l 469 987 l 380 565 l 838 987 l 1065 987 l 595 548 l 875 0 l 647 0 l 429 426 l 331 336 l 260 0 l 78 0 l 288 987 z "},"Л":{"ha":951,"x_min":59,"x_max":1116,"o":"m 199 184 q 249 155 214 155 q 308 172 283 155 l 348 231 l 613 987 l 1116 987 l 906 0 l 724 0 l 899 825 l 731 825 l 531 269 q 466 138 497 176 q 346 38 416 76 q 217 0 276 0 q 122 13 157 0 q 59 67 87 26 l 199 184 z "},"М":{"ha":1050,"x_min":45,"x_max":1221,"o":"m 45 0 l 254 987 l 498 987 l 587 288 l 977 987 l 1221 987 l 1011 0 l 833 0 l 977 677 l 618 0 l 435 0 l 365 670 l 222 0 l 45 0 z "},"Н":{"ha":850,"x_min":78,"x_max":981,"o":"m 288 987 l 469 987 l 385 586 l 713 586 l 798 987 l 981 987 l 771 0 l 589 0 l 679 424 l 350 424 l 260 0 l 78 0 l 288 987 z "},"О":{"ha":956,"x_min":159,"x_max":1025,"o":"m 832 635 q 665 847 832 847 q 437 696 524 847 q 352 370 352 546 q 375 233 352 277 q 515 144 421 144 q 747 310 656 144 q 832 629 828 462 l 832 635 m 159 367 q 219 647 161 503 q 396 897 279 793 q 533 979 454 947 q 700 1010 611 1010 q 853 979 789 1010 q 1008 781 972 921 q 1025 654 1025 715 l 1025 647 q 966 368 1024 513 q 785 100 903 211 q 648 14 728 47 q 481 -20 569 -20 q 327 14 393 -20 q 175 224 210 74 q 159 358 159 292 l 159 367 z "},"П":{"ha":850,"x_min":78,"x_max":981,"o":"m 288 987 l 981 987 l 771 0 l 589 0 l 764 825 l 435 825 l 260 0 l 78 0 l 288 987 z "},"Р":{"ha":779,"x_min":82,"x_max":879,"o":"m 382 558 l 471 558 q 686 692 658 558 q 690 724 690 706 q 528 825 690 825 l 439 825 l 382 558 m 292 987 l 562 987 q 722 964 654 987 q 873 807 846 920 q 879 751 879 781 q 823 576 879 659 q 599 417 745 463 q 435 393 522 393 l 347 393 l 264 0 l 82 0 l 292 987 z "},"С":{"ha":888,"x_min":149,"x_max":998,"o":"m 149 333 l 150 353 q 292 800 161 618 q 709 1015 447 1015 q 903 954 829 1015 q 998 805 978 893 l 812 745 q 755 821 794 789 q 669 852 717 852 q 435 708 521 852 q 366 531 387 626 q 346 370 346 437 q 362 252 346 303 q 420 172 378 201 q 522 142 461 142 q 719 278 614 142 l 880 210 q 487 -22 723 -22 q 325 7 394 -22 q 220 89 256 37 q 166 204 183 140 q 149 333 149 269 z "},"Т":{"ha":918,"x_min":229,"x_max":1078,"o":"m 262 987 l 1078 987 l 1044 825 l 734 825 l 558 0 l 376 0 l 552 825 l 229 825 l 262 987 z "},"У":{"ha":891,"x_min":-32,"x_max":1056,"o":"m 108 184 q 161 155 123 155 q 223 176 198 155 l 460 478 l 254 987 l 447 987 l 580 623 l 867 987 l 1056 987 l 642 478 l 375 138 q 255 38 325 76 q 126 0 185 0 q 32 13 66 0 q -32 67 -3 26 l 108 184 z "},"Ф":{"ha":1057,"x_min":174,"x_max":1114,"o":"m 673 214 l 627 0 l 463 0 l 508 213 q 433 224 471 218 q 338 256 395 231 q 174 480 174 327 q 237 669 174 581 q 460 827 311 771 q 648 871 546 859 l 672 986 l 837 986 l 812 870 q 951 833 888 863 q 1053 765 1015 803 q 1114 608 1114 703 q 1103 524 1114 578 q 1051 412 1091 469 q 960 319 1011 355 q 712 220 857 247 q 673 214 675 214 m 780 717 l 705 367 q 818 394 758 371 q 960 542 941 442 q 964 576 964 556 q 857 699 964 661 q 781 717 819 712 l 780 717 m 615 718 q 363 613 437 699 q 325 511 325 570 q 444 385 325 425 q 521 366 503 366 q 541 366 538 366 l 615 718 z "},"Х":{"ha":880,"x_min":36,"x_max":1036,"o":"m 250 987 l 459 987 l 570 648 l 826 987 l 1036 987 l 644 493 l 831 0 l 602 0 l 498 312 l 264 0 l 36 0 l 431 493 l 250 987 z "},"Ц":{"ha":850,"x_min":78,"x_max":981,"o":"m 78 0 l 288 987 l 469 987 l 294 162 l 623 162 l 798 987 l 981 987 l 771 0 l 78 0 z "},"Ч":{"ha":760,"x_min":184,"x_max":897,"o":"m 722 987 l 897 987 l 688 0 l 513 0 l 591 368 q 481 275 547 311 q 345 239 415 239 q 274 259 308 239 q 217 313 240 279 q 184 447 184 361 q 194 534 184 491 l 290 987 l 465 987 l 388 623 q 373 512 373 547 q 377 458 373 477 q 395 423 381 439 q 452 399 418 399 q 539 419 511 399 q 585 463 568 439 q 645 623 623 516 l 722 987 z "},"Ш":{"ha":1115,"x_min":78,"x_max":1257,"o":"m 78 0 l 288 987 l 469 987 l 294 162 l 492 162 l 667 987 l 848 987 l 673 162 l 899 162 l 1074 987 l 1257 987 l 1047 0 l 78 0 z "},"Щ":{"ha":1278,"x_min":78,"x_max":1257,"o":"m 78 0 l 288 987 l 469 987 l 294 162 l 492 162 l 667 987 l 848 987 l 673 162 l 899 162 l 1074 987 l 1257 987 l 1082 162 l 1244 163 l 1177 -155 l 1015 -155 l 1047 0 l 78 0 z "},"Ъ":{"ha":873,"x_min":195,"x_max":922,"o":"m 210 0 l 385 825 l 195 825 l 230 987 l 602 987 l 518 594 l 606 594 q 864 506 783 594 q 922 354 922 444 q 869 180 922 263 q 649 23 794 68 q 480 0 573 0 l 210 0 m 484 429 l 427 162 l 515 162 q 730 296 702 162 q 734 328 734 310 q 572 429 734 429 l 484 429 z "},"Ы":{"ha":846,"x_min":82,"x_max":988,"o":"m 596 0 l 806 987 l 988 987 l 779 0 l 596 0 m 310 429 l 253 162 l 319 162 q 459 296 431 162 q 465 345 465 320 q 376 429 465 429 l 310 429 m 82 0 l 292 987 l 473 987 l 390 594 l 411 594 q 525 570 475 594 q 633 411 615 526 q 635 364 635 394 q 585 180 635 273 q 412 23 524 67 q 285 0 354 0 l 82 0 z "},"Ь":{"ha":779,"x_min":82,"x_max":794,"o":"m 355 429 l 298 162 l 387 162 q 602 296 574 162 q 606 328 606 310 q 444 429 606 429 l 355 429 m 82 0 l 292 987 l 473 987 l 390 594 l 478 594 q 631 570 564 594 q 787 411 758 526 q 794 355 794 385 q 740 180 794 263 q 520 23 667 67 q 352 0 444 0 l 82 0 z "},"Э":{"ha":888,"x_min":106,"x_max":962,"o":"m 768 642 q 585 852 768 852 q 490 821 543 852 q 400 745 437 789 l 240 805 q 398 954 297 892 q 605 1015 500 1015 q 887 913 802 1015 q 944 803 926 865 q 962 670 962 741 l 962 663 q 897 353 960 511 q 821 209 869 279 q 714 88 773 138 q 574 7 656 37 q 400 -22 493 -22 q 106 210 163 -22 l 296 278 q 435 142 343 142 q 642 254 558 142 q 752 511 719 359 q 768 642 768 584 z "},"Ю":{"ha":1120,"x_min":97,"x_max":1192,"o":"m 97 0 l 307 987 l 489 987 l 410 614 l 512 614 q 654 879 563 777 q 936 1010 774 1010 q 1159 879 1098 1010 q 1192 714 1192 808 q 1164 488 1192 620 q 1071 237 1136 357 q 914 49 1006 117 q 715 -19 821 -19 l 714 -19 q 544 49 608 -19 q 463 315 463 136 q 474 452 463 377 l 376 452 l 279 0 l 97 0 m 637 284 l 637 281 q 687 161 637 194 q 755 145 712 145 q 898 241 844 145 q 947 352 928 294 q 991 528 966 410 q 1017 697 1017 646 q 1012 772 1017 747 q 902 846 997 846 q 757 771 808 846 q 672 535 706 696 q 637 284 637 374 z "},"Я":{"ha":821,"x_min":82,"x_max":999,"o":"m 726 558 l 783 825 l 696 825 q 479 692 508 825 q 475 659 475 674 q 640 558 475 558 l 726 558 m 665 393 l 629 393 q 585 394 600 393 l 290 0 l 82 0 l 425 425 q 309 536 343 463 q 288 623 288 582 q 430 901 288 792 q 730 987 546 987 l 999 987 l 789 0 l 608 0 l 691 393 l 665 393 z "},"а":{"ha":732,"x_min":106,"x_max":762,"o":"m 526 321 q 438 355 498 355 q 332 321 378 355 q 274 221 274 277 q 302 159 274 189 q 389 130 330 130 q 492 162 449 130 q 547 264 547 204 q 526 321 547 298 m 412 503 q 523 468 479 503 q 570 391 566 433 l 583 446 q 588 488 588 472 q 534 591 588 566 q 459 608 498 608 q 340 590 385 608 q 295 572 333 587 l 249 684 q 356 728 286 709 q 479 747 426 747 q 667 701 594 747 q 762 507 762 641 q 751 413 762 463 l 663 0 l 489 0 l 509 92 q 429 15 486 50 q 304 -20 371 -20 q 144 56 199 -20 q 106 180 106 109 q 113 243 106 211 q 223 429 136 355 q 412 503 310 503 z "},"б":{"ha":749,"x_min":125,"x_max":835,"o":"m 543 1027 l 835 1027 l 800 864 l 508 864 q 436 846 458 864 q 408 796 415 829 l 390 716 q 542 746 456 746 q 756 644 694 746 q 794 506 794 581 q 780 364 794 431 q 637 84 743 188 q 378 -20 531 -20 q 164 83 226 -20 q 125 222 125 146 q 147 395 125 314 l 224 758 q 288 888 238 825 q 409 988 338 950 q 543 1027 479 1027 m 309 357 q 299 269 299 307 q 414 140 299 140 q 612 364 564 140 q 623 458 623 418 q 509 587 623 587 q 331 436 385 587 l 314 357 l 309 357 z "},"в":{"ha":678,"x_min":36,"x_max":718,"o":"m 282 320 l 240 120 l 349 120 q 465 149 427 120 q 516 247 516 189 q 391 320 516 320 l 282 320 m 345 611 l 308 439 l 387 439 q 491 465 456 439 q 535 542 535 498 q 514 589 535 567 q 424 611 492 611 l 345 611 m 718 579 q 670 452 711 490 q 581 399 629 413 q 654 354 627 388 q 692 252 692 307 q 687 213 692 238 q 643 116 675 157 q 582 54 612 75 q 499 16 552 33 q 382 -1 446 -1 l 36 -1 l 191 730 l 493 730 q 715 608 696 730 q 718 579 718 583 z "},"г":{"ha":755,"x_min":81,"x_max":842,"o":"m 235 728 l 842 728 l 808 566 l 382 566 l 256 0 l 81 0 l 235 728 z "}}}
